RobotoFlex_opsz14_wght1000_wdth100_GRAD150.ufo
<glyph name="exclam" format="2">
  <advance width="758"/>
  <unicode hex="0021"/>
  <outline>
    <contour>
      <point x="127.72307692310001" y="196.23076923079998" type="qcurve" smooth="yes"/>
      <point x="127.72307692310001" y="285.0923076923"/>
      <point x="256.63503407980005" y="413.2615384615"/>
      <point x="378.3497838364" y="413.2615384615" type="qcurve" smooth="yes"/>
      <point x="499.47991820839997" y="413.2615384615"/>
      <point x="629.9611061344" y="285.0923076923"/>
      <point x="629.9611061344" y="196.23076923079998" type="qcurve" smooth="yes"/>
      <point x="629.9611061344" y="106.1692307692"/>
      <point x="499.8491489776" y="-22.0"/>
      <point x="378.8420915287" y="-22.0" type="qcurve" smooth="yes"/>
      <point x="256.63503407980005" y="-22.0"/>
      <point x="127.72307692310001" y="106.1692307692"/>
    </contour>
    <contour>
      <point x="193.7361596884" y="516.9076923077" type="line"/>
      <point x="162.411661149" y="1456.0" type="line"/>
      <point x="595.2725219084999" y="1456.0" type="line"/>
      <point x="562.6249464460001" y="516.9076923077" type="line"/>
    </contour>
  </outline>
</glyph>
<glyph name="quotedbl" format="2">
  <advance width="973"/>
  <unicode hex="0022"/>
  <outline>
    <contour>
      <point x="81.7916222006" y="672.3692307691999" type="line"/>
      <point x="55.4769230769" y="1233.7538461538002" type="line"/>
      <point x="55.4769230769" y="1456.0" type="line"/>
      <point x="406.6379279455" y="1456.0" type="line"/>
      <point x="406.6379279455" y="1233.7538461538002" type="line"/>
      <point x="381.4001518987" y="672.3692307691999" type="line"/>
    </contour>
    <contour>
      <point x="592.8910886076" y="672.3692307691999" type="line"/>
      <point x="566.5763894839" y="1233.7538461538002" type="line"/>
      <point x="566.5763894839" y="1456.0" type="line"/>
      <point x="917.6143174294" y="1456.0" type="line"/>
      <point x="917.6143174294" y="1233.7538461538002" type="line"/>
      <point x="892.3765413827" y="672.3692307691999" type="line"/>
    </contour>
  </outline>
</glyph>
<glyph name="numbersign" format="2">
  <advance width="1644.0"/>
  <unicode hex="0023"/>
  <outline>
    <contour>
      <point x="190.9384615385" y="-20.0" type="line"/>
      <point x="594.1151898733999" y="1474.9848101266" type="line"/>
      <point x="938.4957935735" y="1474.9848101266" type="line"/>
      <point x="535.4421421616" y="-18.8" type="line"/>
    </contour>
    <contour>
      <point x="704.953067186" y="-20.0" type="line"/>
      <point x="1107.5682570594" y="1474.9848101266" type="line"/>
      <point x="1452.0719376826" y="1474.9848101266" type="line"/>
      <point x="1049.4567478092001" y="-20.0" type="line"/>
    </contour>
    <contour>
      <point x="100.09230769230001" y="291.0" type="line"/>
      <point x="100.09230769230001" y="646.2307692308" type="line"/>
      <point x="1478.7413631938" y="646.2307692308" type="line"/>
      <point x="1478.7413631938" y="291.0" type="line"/>
    </contour>
    <contour>
      <point x="165.14595910420002" y="812.3540408957999" type="line"/>
      <point x="165.14595910420002" y="1163.9848101266" type="line"/>
      <point x="1542.9180915287" y="1163.9848101266" type="line"/>
      <point x="1542.9180915287" y="812.3540408957999" type="line"/>
    </contour>
  </outline>
</glyph>
<glyph name="dollar" format="2">
	<unicode hex="0024"/>
	<advance width="1291"/>
	<outline>
		<contour>
			<point x="69" y="453" type="qcurve" smooth="yes"/>
			<point x="69" y="476" type="line"/>
			<point x="480.8" y="476" type="line"/>
			<point x="480.8" y="460.8" type="line" smooth="yes"/>
			<point x="480.8" y="372.8"/>
			<point x="608" y="293"/>
			<point x="720" y="293" type="qcurve" smooth="yes"/>
			<point x="833.2" y="293"/>
			<point x="951" y="358"/>
			<point x="951" y="425" type="qcurve" smooth="yes"/>
			<point x="951" y="492"/>
			<point x="872" y="544.8"/>
			<point x="610" y="573.8" type="qcurve" smooth="yes"/>
			<point x="336" y="604.8"/>
			<point x="87" y="817.2"/>
			<point x="87" y="1009" type="qcurve" smooth="yes"/>
			<point x="87" y="1213"/>
			<point x="428" y="1458"/>
			<point x="711" y="1458" type="qcurve" smooth="yes"/>
			<point x="998" y="1458"/>
			<point x="1343" y="1209"/>
			<point x="1343" y="1009" type="qcurve" smooth="yes"/>
			<point x="1343" y="989" type="line"/>
			<point x="926.8" y="989" type="line"/>
			<point x="926.8" y="1002" type="line" smooth="yes"/>
			<point x="926.8" y="1071.8"/>
			<point x="822.8" y="1164"/>
			<point x="712" y="1164" type="qcurve" smooth="yes"/>
			<point x="603" y="1164"/>
			<point x="507" y="1103"/>
			<point x="507" y="1047" type="qcurve" smooth="yes"/>
			<point x="507" y="986"/>
			<point x="583.2" y="946"/>
			<point x="842" y="916" type="qcurve" smooth="yes"/>
			<point x="1119" y="881.6"/>
			<point x="1370" y="664.6"/>
			<point x="1370" y="462" type="qcurve" smooth="yes"/>
			<point x="1370" y="248"/>
			<point x="1015" y="-2"/>
			<point x="721" y="-2" type="qcurve" smooth="yes"/>
			<point x="429" y="-2"/>
			<point x="69" y="230"/>
		</contour>
		<contour>
			<point x="557.8" y="-150" type="line"/>
			<point x="557.8" y="758" type="line"/>
			<point x="878" y="758" type="line"/>
			<point x="878" y="99" type="line"/>
			<point x="899" y="90" type="line"/>
			<point x="899" y="-150" type="line"/>
		</contour>
		<contour>
			<point x="556.8" y="758" type="line"/>
			<point x="556.8" y="1356" type="line"/>
			<point x="534.8" y="1366" type="line"/>
			<point x="534.8" y="1606" type="line"/>
			<point x="875.8" y="1606" type="line"/>
			<point x="875.8" y="758" type="line"/>
		</contour>
	</outline>
</glyph>
<glyph name="ampersand" format="2">
	<unicode hex="0026"/>
	<advance width="1454"/>
	<outline>
		<contour>
			<point x="71" y="380" type="qcurve" smooth="yes"/>
			<point x="71" y="552.2"/>
			<point x="277.2" y="758.6"/>
			<point x="426.2" y="838" type="qcurve" smooth="yes"/>
			<point x="671.2" y="968" type="line" smooth="yes"/>
			<point x="728.8" y="1004.6"/>
			<point x="755.4" y="1055.6"/>
			<point x="755.4" y="1101.2" type="qcurve" smooth="yes"/>
			<point x="755.4" y="1161.6"/>
			<point x="722.8" y="1200.8"/>
			<point x="682.2" y="1200.8" type="qcurve" smooth="yes"/>
			<point x="642.8" y="1200.8"/>
			<point x="610" y="1151.4"/>
			<point x="610" y="1092.2" type="qcurve" smooth="yes"/>
			<point x="610" y="1042.2"/>
			<point x="659.6" y="956.6"/>
			<point x="719.2" y="872.2" type="qcurve" smooth="yes"/>
			<point x="1440.2" y="0" type="line"/>
			<point x="976.2" y="0" type="line"/>
			<point x="418" y="667" type="line" smooth="yes"/>
			<point x="282.4" y="818.6"/>
			<point x="180.6" y="989.2"/>
			<point x="180.6" y="1090.2" type="qcurve" smooth="yes"/>
			<point x="180.6" y="1277.6"/>
			<point x="456.8" y="1486"/>
			<point x="683.2" y="1486" type="qcurve" smooth="yes"/>
			<point x="911" y="1486"/>
			<point x="1171.4" y="1288.6"/>
			<point x="1171.4" y="1108.2" type="qcurve" smooth="yes"/>
			<point x="1171.4" y="978.6"/>
			<point x="1048.4" y="811.2"/>
			<point x="911" y="735" type="qcurve" smooth="yes"/>
			<point x="668.8" y="608" type="line" smooth="yes"/>
			<point x="576" y="560.4"/>
			<point x="509.8" y="470.2"/>
			<point x="509.8" y="409.2" type="qcurve" smooth="yes"/>
			<point x="509.8" y="345.2"/>
			<point x="565.2" y="278.2"/>
			<point x="624.8" y="278.2" type="qcurve" smooth="yes"/>
			<point x="738.2" y="278.2"/>
			<point x="943.8" y="489.6"/>
			<point x="948.8" y="685" type="qcurve"/>
			<point x="1365" y="685" type="line"/>
			<point x="1365" y="391"/>
			<point x="924.8" y="-20"/>
			<point x="609.8" y="-20" type="qcurve" smooth="yes"/>
			<point x="345.4" y="-20"/>
			<point x="71" y="208.8"/>
		</contour>
	</outline>
</glyph>
<glyph name="quotesingle" format="2">
	<unicode hex="0027"/>
	<advance width="517"/>
	<outline>
		<contour>
			<point x="109.38603700099999" y="672.3692307691999" type="line"/>
			<point x="67.47692307690001" y="1233.7538461538002" type="line"/>
			<point x="67.47692307690001" y="1456" type="line"/>
			<point x="449.82675754630003" y="1456" type="line"/>
			<point x="449.82675754630003" y="1233.7538461538002" type="line"/>
			<point x="407.79456669909996" y="672.3692307691999" type="line"/>
		</contour>
	</outline>
</glyph>
<glyph name="parenleft" format="2">
  <advance width="815"/>
  <unicode hex="0028"/>
  <outline>
    <contour>
      <point x="725.6727166504" y="-438.4" type="line"/>
      <point x="450.571684518" y="-344.5076923077"/>
      <point x="91.9230769231" y="111.27400194740001"/>
      <point x="91.9230769231" y="514.8769230769" type="qcurve" smooth="yes"/>
      <point x="91.9230769231" y="525.0" type="line" smooth="yes"/>
      <point x="91.9230769231" y="885.0965920156"/>
      <point x="409.771684518" y="1362.9076923077"/>
      <point x="724.4727166504" y="1476.0" type="qcurve"/>
      <point x="724.4727166504" y="1186.0183057449" type="line"/>
      <point x="651.4143192432" y="1116.7068436179"/>
      <point x="510.4188704966" y="815.6527750729999"/>
      <point x="510.4188704966" y="532.0" type="qcurve" smooth="yes"/>
      <point x="510.4188704966" y="508.0" type="line" smooth="yes"/>
      <point x="510.4188704966" y="206.30671859790002"/>
      <point x="631.0143192432" y="-73.1068436179"/>
      <point x="725.6727166504" y="-146.0183057449" type="qcurve"/>
    </contour>
  </outline>
</glyph>
<glyph name="parenright" format="2">
	<unicode hex="0029"/>
	<advance width="815"/>
	<outline>
		<contour>
			<point x="93.7153846154" y="-436" type="qcurve"/>
			<point x="93.7153846154" y="-146.0183057449" type="line"/>
			<point x="173.9277312561" y="-92.4952288218"/>
			<point x="308.9692307692" y="206.30671859790002"/>
			<point x="308.9692307692" y="508" type="qcurve" smooth="yes"/>
			<point x="308.9692307692" y="532" type="line" smooth="yes"/>
			<point x="308.9692307692" y="815.6527750729999"/>
			<point x="166.7277312561" y="1115.6952288218001"/>
			<point x="93.7153846154" y="1184.8183057449" type="qcurve"/>
			<point x="93.7153846154" y="1476" type="line"/>
			<point x="356.81641674779996" y="1374.9076923077"/>
			<point x="727.4650243427001" y="906.8196689387"/>
			<point x="727.4650243427001" y="525.1230769231" type="qcurve" smooth="yes"/>
			<point x="727.4650243427001" y="515" type="line" smooth="yes"/>
			<point x="727.4650243427001" y="111.3970788705"/>
			<point x="374.81641674779996" y="-338.5076923077"/>
		</contour>
	</outline>
</glyph>
<glyph name="asterisk" format="2">
  <advance width="1168"/>
  <unicode hex="002A"/>
  <outline>
    <contour>
      <point x="25.3846153846" y="936.8461538462" type="line"/>
      <point x="148.6494878286" y="1305.9" type="line"/>
      <point x="413.7790808179" y="1185.8692307692" type="line"/>
      <point x="384.38304965919997" y="1476.0" type="line"/>
      <point x="782.7972658228" y="1476.0" type="line"/>
      <point x="753.6473885102" y="1185.8692307692" type="line"/>
      <point x="1018.7769814994999" y="1306.0230769231" type="line"/>
      <point x="1141.9187770204" y="936.9692307692" type="line"/>
      <point x="858.0094683544" y="877.8461538462" type="line"/>
      <point x="1051.7178461538" y="660.1384615385" type="line"/>
      <point x="729.1843271665" y="434.26153846150004" type="line"/>
      <point x="583.7747731256" y="686.9153846154" type="line"/>
      <point x="438.36521908469996" y="434.26153846150004" type="line"/>
      <point x="115.9547770204" y="660.1384615385" type="line"/>
      <point x="309.2939240506" y="877.8461538462" type="line"/>
    </contour>
  </outline>
</glyph>
<glyph name="plus" format="2">
	<unicode hex="002B"/>
	<advance width="1200"/>
	<outline>
		<contour>
			<point x="99" y="494.6" type="line"/>
			<point x="99" y="856.8" type="line"/>
			<point x="1101" y="856.8" type="line"/>
			<point x="1101" y="494.6" type="line"/>
		</contour>
		<contour>
			<point x="393.6" y="158.2" type="line"/>
			<point x="393.6" y="1189.8" type="line"/>
			<point x="805" y="1189.8" type="line"/>
			<point x="805" y="158.2" type="line"/>
		</contour>
	</outline>
</glyph>
<glyph name="comma" format="2">
  <advance width="685"/>
  <unicode hex="002C"/>
  <outline>
    <contour>
      <point x="45.7155793574" y="-244.6461538462" type="line"/>
      <point x="110.6246932814" y="-165.7692307692"/>
      <point x="172.3384615385" y="9.2307692308"/>
      <point x="172.3384615385" y="120.9076923077" type="qcurve" smooth="yes"/>
      <point x="172.3384615385" y="409.4153846154" type="line"/>
      <point x="544.1030185005" y="409.4153846154" type="line"/>
      <point x="544.3134800388999" y="121.39999999999999" type="line" smooth="yes"/>
      <point x="544.3134800388999" y="-29.4307692308"/>
      <point x="403.3064225901" y="-284.6769230769"/>
      <point x="285.6313106134" y="-376.7307692308" type="qcurve"/>
    </contour>
  </outline>
</glyph>
<glyph name="hyphen" format="2">
  <advance width="665"/>
  <unicode hex="002D"/>
  <outline>
    <contour>
      <point x="38.7230769231" y="452.8615384615" type="line"/>
      <point x="38.7230769231" y="805.9076923077" type="line"/>
      <point x="626.1178383642" y="805.9076923077" type="line"/>
      <point x="626.1178383642" y="452.8615384615" type="line"/>
    </contour>
  </outline>
</glyph>
<glyph name="period" format="2">
  <advance width="727.0"/>
  <unicode hex="002E"/>
  <outline>
    <contour>
      <point x="100.5538461538" y="214.6923076923" type="qcurve" smooth="yes"/>
      <point x="100.5538461538" y="312.9538461538"/>
      <point x="231.9030185005" y="451.0923076923"/>
      <point x="353.09406037" y="451.0923076923" type="qcurve" smooth="yes"/>
      <point x="476.3620253165" y="451.0923076923"/>
      <point x="606.5111976631" y="312.9538461538"/>
      <point x="606.5111976631" y="214.6923076923" type="qcurve" smooth="yes"/>
      <point x="606.5111976631" y="116.3570552147"/>
      <point x="476.3620253165" y="-21.6307692308"/>
      <point x="353.09406037" y="-21.6307692308" type="qcurve" smooth="yes"/>
      <point x="231.9030185005" y="-21.6307692308"/>
      <point x="100.5538461538" y="116.726285984"/>
    </contour>
  </outline>
</glyph>
<glyph name="slash" format="2">
  <advance width="615.0"/>
  <unicode hex="002F"/>
  <outline>
    <contour>
      <point x="-103.6" y="-125.0" type="line"/>
      <point x="379.3615384615" y="1456.0" type="line"/>
      <point x="711.5915287244" y="1456.0" type="line"/>
      <point x="228.9453748783" y="-125.0" type="line"/>
    </contour>
  </outline>
</glyph>
<glyph name="zero" format="2">
	<unicode hex="0030"/>
	<advance width="1156"/>
	<outline>
		<contour>
			<point x="26.8" y="563" type="qcurve" smooth="yes"/>
			<point x="26.8" y="893" type="line" smooth="yes"/>
			<point x="26.8" y="1158.4"/>
			<point x="301.6" y="1485"/>
			<point x="576.8" y="1485" type="qcurve" smooth="yes"/>
			<point x="853.6" y="1485"/>
			<point x="1129.2" y="1160.4"/>
			<point x="1129.2" y="893" type="qcurve" smooth="yes"/>
			<point x="1129.2" y="563" type="line" smooth="yes"/>
			<point x="1129.2" y="296.6"/>
			<point x="850.6" y="-29"/>
			<point x="576.8" y="-29" type="qcurve" smooth="yes"/>
			<point x="300.6" y="-29"/>
			<point x="26.8" y="296.6"/>
		</contour>
		<contour>
			<point x="481.6" y="517" type="line" smooth="yes"/>
			<point x="481.6" y="413.8"/>
			<point x="519" y="292.8"/>
			<point x="579.2" y="292.8" type="qcurve" smooth="yes"/>
			<point x="639.4" y="292.8"/>
			<point x="676.8" y="413.8"/>
			<point x="676.8" y="517" type="qcurve" smooth="yes"/>
			<point x="676.8" y="937" type="line" smooth="yes"/>
			<point x="676.8" y="1042.2"/>
			<point x="638.4" y="1162.2"/>
			<point x="579.2" y="1162.2" type="qcurve" smooth="yes"/>
			<point x="520" y="1162.2"/>
			<point x="481.6" y="1042.2"/>
			<point x="481.6" y="937" type="qcurve" smooth="yes"/>
		</contour>
	</outline>
</glyph>
<glyph name="one" format="2">
	<unicode hex="0031"/>
	<advance width="1156"/>
	<outline>
		<contour>
			<point x="451.6" y="0" type="line"/>
			<point x="451.6" y="1065.2" type="line"/>
			<point x="132" y="955.8" type="line"/>
			<point x="132" y="1288" type="line"/>
			<point x="599.4" y="1469" type="line"/>
			<point x="888.6" y="1469" type="line"/>
			<point x="888.6" y="0" type="line"/>
		</contour>
	</outline>
</glyph>
<glyph name="two" format="2">
	<unicode hex="0032"/>
	<advance width="1156"/>
	<outline>
		<contour>
			<point x="37" y="0" type="line"/>
			<point x="37" y="245.8" type="line"/>
			<point x="499.4" y="800.6" type="line" smooth="yes"/>
			<point x="563.6" y="878.4"/>
			<point x="649.8" y="1008"/>
			<point x="649.8" y="1069.2" type="qcurve" smooth="yes"/>
			<point x="649.8" y="1118.4"/>
			<point x="615.2" y="1162.2"/>
			<point x="560" y="1162.2" type="qcurve" smooth="yes"/>
			<point x="504.8" y="1162.2"/>
			<point x="469.6" y="1086.2"/>
			<point x="469.6" y="992.4" type="qcurve" smooth="yes"/>
			<point x="469.6" y="945.4" type="line"/>
			<point x="24.4" y="945.4" type="line"/>
			<point x="24.4" y="1003.4" type="line" smooth="yes"/>
			<point x="24.4" y="1220.4"/>
			<point x="296.8" y="1485"/>
			<point x="557.2" y="1485" type="qcurve" smooth="yes"/>
			<point x="851.8" y="1485"/>
			<point x="1103.8" y="1271.6"/>
			<point x="1104.8" y="1082.4" type="qcurve" smooth="yes"/>
			<point x="1104.8" y="926.6"/>
			<point x="954.4" y="715.4"/>
			<point x="854.6" y="597.4" type="qcurve" smooth="yes"/>
			<point x="618.6" y="329.2" type="line"/>
			<point x="1123.2" y="329.2" type="line"/>
			<point x="1123.2" y="0" type="line"/>
		</contour>
	</outline>
</glyph>
<glyph name="three" format="2">
	<unicode hex="0033"/>
	<advance width="1156"/>
	<outline>
		<contour>
			<point x="7.3999999999999995" y="427.6" type="qcurve" smooth="yes"/>
			<point x="7.3999999999999995" y="462.6" type="line"/>
			<point x="448" y="462.6" type="line"/>
			<point x="448" y="431.6" type="line" smooth="yes"/>
			<point x="448" y="364.4"/>
			<point x="493.2" y="285.6"/>
			<point x="564.4" y="285.6" type="qcurve" smooth="yes"/>
			<point x="635.8" y="285.6"/>
			<point x="681" y="368.8"/>
			<point x="681" y="454.6" type="qcurve" smooth="yes"/>
			<point x="681" y="528.8"/>
			<point x="623.6" y="602"/>
			<point x="533.4" y="602" type="qcurve" smooth="yes"/>
			<point x="383.6" y="602" type="line"/>
			<point x="383.6" y="903" type="line"/>
			<point x="525.4" y="903" type="line" smooth="yes"/>
			<point x="592.6" y="903"/>
			<point x="644" y="977"/>
			<point x="644" y="1045.6" type="qcurve" smooth="yes"/>
			<point x="644" y="1104"/>
			<point x="610.6" y="1170.4"/>
			<point x="551.4" y="1170.4" type="qcurve" smooth="yes"/>
			<point x="495.4" y="1170.4"/>
			<point x="459" y="1104.6"/>
			<point x="459" y="1039.4" type="qcurve" smooth="yes"/>
			<point x="459" y="1018.4" type="line"/>
			<point x="20.4" y="1018.4" type="line"/>
			<point x="20.4" y="1037.4" type="line" smooth="yes"/>
			<point x="20.4" y="1225.4"/>
			<point x="292.6" y="1486"/>
			<point x="565.4" y="1486" type="qcurve" smooth="yes"/>
			<point x="858.4" y="1486"/>
			<point x="1091" y="1255.8"/>
			<point x="1091" y="1116.8" type="qcurve" smooth="yes"/>
			<point x="1091" y="980.4"/>
			<point x="979" y="804.8"/>
			<point x="858.6" y="766" type="qcurve"/>
			<point x="858.6" y="762" type="line"/>
			<point x="987.6" y="734.6"/>
			<point x="1133" y="557.2"/>
			<point x="1133" y="426.2" type="qcurve" smooth="yes"/>
			<point x="1133" y="217.2"/>
			<point x="854.4" y="-29"/>
			<point x="555.4" y="-29" type="qcurve" smooth="yes"/>
			<point x="270.8" y="-29"/>
			<point x="7.3999999999999995" y="221.6"/>
		</contour>
	</outline>
</glyph>
<glyph name="four" format="2">
  <advance width="1156"/>
  <unicode hex="0034"/>
  <outline>
    <contour>
      <point x="621.2" y="0.0" type="line"/>
      <point x="621.2" y="391.0" type="line"/>
      <point x="624.2" y="438.0" type="line"/>
      <point x="624.2" y="928.2" type="line"/>
      <point x="613.2" y="928.2" type="line"/>
      <point x="400.6" y="607.0" type="line"/>
      <point x="722.0" y="607.0" type="line"/>
      <point x="786.2" y="609.0" type="line"/>
      <point x="1159.4" y="609.0" type="line"/>
      <point x="1159.4" y="291.6" type="line"/>
      <point x="-3.0" y="291.6" type="line"/>
      <point x="-3.0" y="571.8" type="line"/>
      <point x="622.8" y="1456.0" type="line"/>
      <point x="1057.2" y="1456.0" type="line"/>
      <point x="1057.2" y="0.0" type="line"/>
    </contour>
  </outline>
</glyph>
<glyph name="five" format="2">
  <advance width="1156"/>
  <unicode hex="0035"/>
  <outline>
    <contour>
      <point x="8.399999999999999" y="421.6" type="qcurve" smooth="yes"/>
      <point x="8.399999999999999" y="453.6" type="line"/>
      <point x="454.2" y="453.6" type="line"/>
      <point x="454.2" y="424.6" type="line" smooth="yes"/>
      <point x="454.2" y="356.2"/>
      <point x="510.4" y="285.6"/>
      <point x="577.6" y="285.6" type="qcurve" smooth="yes"/>
      <point x="652.8" y="285.6"/>
      <point x="688.2" y="377.0"/>
      <point x="688.2" y="470.0" type="qcurve" smooth="yes"/>
      <point x="688.2" y="562.0"/>
      <point x="643.8" y="650.4"/>
      <point x="577.6" y="650.4" type="qcurve" smooth="yes"/>
      <point x="519.6" y="650.4"/>
      <point x="458.6" y="592.2"/>
      <point x="438.4" y="553.0" type="qcurve"/>
      <point x="68.8" y="726.6" type="line"/>
      <point x="144.2" y="1456.0" type="line"/>
      <point x="1050.6" y="1456.0" type="line"/>
      <point x="1050.6" y="1124.4" type="line"/>
      <point x="491.0" y="1126.4" type="line"/>
      <point x="466.2" y="905.8" type="line"/>
      <point x="496.2" y="933.2"/>
      <point x="588.8" y="966.0"/>
      <point x="669.4" y="966.0" type="qcurve" smooth="yes"/>
      <point x="884.4" y="966.0"/>
      <point x="1132.4" y="719.0"/>
      <point x="1132.4" y="499.0" type="qcurve" smooth="yes"/>
      <point x="1132.4" y="263.0"/>
      <point x="868.6" y="-29.0"/>
      <point x="578.6" y="-29.0" type="qcurve" smooth="yes"/>
      <point x="289.2" y="-29.0"/>
      <point x="8.399999999999999" y="224.6"/>
    </contour>
  </outline>
</glyph>
<glyph name="six" format="2">
  <advance width="1156.0"/>
  <unicode hex="0036"/>
  <outline>
    <contour>
      <point x="18.8" y="601.0" type="qcurve" smooth="yes"/>
      <point x="18.8" y="643.0" type="line" smooth="yes"/>
      <point x="18.8" y="1020.0"/>
      <point x="489.8" y="1456.0"/>
      <point x="980.8" y="1456.0" type="qcurve" smooth="yes"/>
      <point x="1014.8" y="1456.0" type="line"/>
      <point x="1014.8" y="1123.2" type="line"/>
      <point x="983.8" y="1123.2" type="line" smooth="yes"/>
      <point x="711.4" y="1123.2"/>
      <point x="414.6" y="914.8"/>
      <point x="414.6" y="641.0" type="qcurve" smooth="yes"/>
      <point x="454.6" y="595.0" type="line" smooth="yes"/>
      <point x="454.6" y="397.8"/>
      <point x="518.4" y="280.6"/>
      <point x="591.6" y="280.6" type="qcurve" smooth="yes"/>
      <point x="665.8" y="280.6"/>
      <point x="708.6" y="379.6"/>
      <point x="708.6" y="483.0" type="qcurve" smooth="yes"/>
      <point x="708.6" y="566.6"/>
      <point x="660.8" y="688.2"/>
      <point x="582.6" y="688.2" type="qcurve" smooth="yes"/>
      <point x="511.4" y="688.2"/>
      <point x="457.2" y="568.6"/>
      <point x="457.2" y="499.2" type="qcurve"/>
      <point x="322.4" y="499.2" type="line"/>
      <point x="322.4" y="695.6"/>
      <point x="502.2" y="986.8"/>
      <point x="693.2" y="986.8" type="qcurve" smooth="yes"/>
      <point x="917.8" y="986.8"/>
      <point x="1151.8" y="715.6"/>
      <point x="1151.8" y="492.2" type="qcurve" smooth="yes"/>
      <point x="1151.8" y="261.6"/>
      <point x="882.6" y="-29.0"/>
      <point x="596.6" y="-29.0" type="qcurve" smooth="yes"/>
      <point x="338.0" y="-29.0"/>
      <point x="18.8" y="262.0"/>
    </contour>
  </outline>
</glyph>
<glyph name="seven" format="2">
	<unicode hex="0037"/>
	<advance width="1156"/>
	<outline>
		<contour>
			<point x="154.2" y="0" type="line"/>
			<point x="659.2" y="1093.6" type="line"/>
			<point x="17" y="1093.6" type="line"/>
			<point x="17" y="1456" type="line"/>
			<point x="1111.4" y="1456" type="line"/>
			<point x="1111.4" y="1138.4" type="line"/>
			<point x="622" y="0" type="line"/>
		</contour>
	</outline>
</glyph>
<glyph name="eight" format="2">
  <advance width="1156"/>
  <unicode hex="0038"/>
  <outline>
    <contour>
      <point x="-1.0" y="390.0" type="qcurve" smooth="yes"/>
      <point x="-1.0" y="549.0"/>
      <point x="198.8" y="729.6"/>
      <point x="307.2" y="754.4" type="qcurve"/>
      <point x="307.2" y="758.4" type="line"/>
      <point x="194.6" y="798.4"/>
      <point x="47.6" y="968.0"/>
      <point x="47.6" y="1100.0" type="qcurve" smooth="yes"/>
      <point x="47.6" y="1265.0"/>
      <point x="313.0" y="1485.0"/>
      <point x="576.6" y="1485.0" type="qcurve" smooth="yes"/>
      <point x="840.2" y="1485.0"/>
      <point x="1109.2" y="1262.6"/>
      <point x="1109.2" y="1099.0" type="qcurve" smooth="yes"/>
      <point x="1109.2" y="968.0"/>
      <point x="985.0" y="801.4"/>
      <point x="869.4" y="758.4" type="qcurve"/>
      <point x="869.4" y="754.4" type="line"/>
      <point x="981.6" y="737.8"/>
      <point x="1156.8" y="549.0"/>
      <point x="1156.8" y="390.0" type="qcurve" smooth="yes"/>
      <point x="1156.8" y="193.0"/>
      <point x="860.6" y="-29.0"/>
      <point x="576.6" y="-29.0" type="qcurve" smooth="yes"/>
      <point x="293.8" y="-29.0"/>
      <point x="-1.0" y="193.0"/>
    </contour>
    <contour>
      <point x="446.4" y="428.2" type="qcurve" smooth="yes"/>
      <point x="446.4" y="353.4"/>
      <point x="502.6" y="268.4"/>
      <point x="576.6" y="268.4" type="qcurve" smooth="yes"/>
      <point x="650.8" y="268.4"/>
      <point x="709.4" y="353.4"/>
      <point x="709.4" y="428.2" type="qcurve" smooth="yes"/>
      <point x="709.4" y="509.6"/>
      <point x="661.8" y="602.2"/>
      <point x="576.6" y="602.2" type="qcurve" smooth="yes"/>
      <point x="491.6" y="602.2"/>
      <point x="446.4" y="509.6"/>
    </contour>
    <contour>
      <point x="477.4" y="1043.8" type="qcurve" smooth="yes"/>
      <point x="477.4" y="972.2"/>
      <point x="504.6" y="886.8"/>
      <point x="576.6" y="886.8" type="qcurve" smooth="yes"/>
      <point x="648.8" y="886.8"/>
      <point x="678.4" y="972.2"/>
      <point x="678.4" y="1043.8" type="qcurve" smooth="yes"/>
      <point x="678.4" y="1107.6"/>
      <point x="641.8" y="1186.6"/>
      <point x="576.6" y="1186.6" type="qcurve" smooth="yes"/>
      <point x="511.6" y="1186.6"/>
      <point x="477.4" y="1107.6"/>
    </contour>
  </outline>
</glyph>
<glyph name="nine" format="2">
  <advance width="1156.0"/>
  <unicode hex="0039"/>
  <outline>
    <contour>
      <point x="4.199999999999999" y="961.8" type="qcurve" smooth="yes"/>
      <point x="4.199999999999999" y="1193.2"/>
      <point x="273.4" y="1485.0"/>
      <point x="559.4" y="1485.0" type="qcurve" smooth="yes"/>
      <point x="818.0" y="1485.0"/>
      <point x="1137.2" y="1194.0"/>
      <point x="1137.2" y="855.0" type="qcurve" smooth="yes"/>
      <point x="1137.2" y="813.0" type="line" smooth="yes"/>
      <point x="1137.2" y="430.6"/>
      <point x="666.0" y="8.0"/>
      <point x="175.0" y="-6.0" type="qcurve" smooth="yes"/>
      <point x="141.2" y="-6.0" type="line"/>
      <point x="141.2" y="326.8" type="line"/>
      <point x="172.2" y="326.8" type="line" smooth="yes"/>
      <point x="444.6" y="326.8"/>
      <point x="732.6" y="535.8"/>
      <point x="732.6" y="815.0" type="qcurve" smooth="yes"/>
      <point x="702.6" y="861.0" type="line" smooth="yes"/>
      <point x="702.6" y="1032.2"/>
      <point x="648.6" y="1175.4"/>
      <point x="558.4" y="1175.4" type="qcurve" smooth="yes"/>
      <point x="485.2" y="1175.4"/>
      <point x="448.4" y="1075.4"/>
      <point x="448.4" y="971.0" type="qcurve" smooth="yes"/>
      <point x="448.4" y="875.4"/>
      <point x="492.2" y="763.8"/>
      <point x="568.4" y="763.8" type="qcurve" smooth="yes"/>
      <point x="644.6" y="763.8"/>
      <point x="703.4" y="879.4"/>
      <point x="703.4" y="954.8" type="qcurve"/>
      <point x="813.6" y="954.8" type="line"/>
      <point x="813.6" y="786.6"/>
      <point x="671.8" y="466.0"/>
      <point x="462.8" y="466.0" type="qcurve" smooth="yes"/>
      <point x="238.0" y="466.0"/>
      <point x="4.199999999999999" y="737.6"/>
    </contour>
  </outline>
</glyph>
<glyph name="colon" format="2">
  <advance width="732.0"/>
  <unicode hex="003A"/>
  <outline>
    <contour>
      <point x="118.2153846154" y="203.39999999999998" type="qcurve" smooth="yes"/>
      <point x="118.2153846154" y="295.1767032967"/>
      <point x="245.2642648491" y="426.8615384615"/>
      <point x="365.4319376826" y="426.8615384615" type="qcurve" smooth="yes"/>
      <point x="484.52268743909997" y="426.8615384615"/>
      <point x="613.6484907498" y="295.1767032967"/>
      <point x="613.6484907498" y="203.39999999999998" type="qcurve" smooth="yes"/>
      <point x="613.6484907498" y="109.8406947891"/>
      <point x="484.92607205449997" y="-21.6307692308"/>
      <point x="365.7651684518" y="-21.6307692308" type="qcurve" smooth="yes"/>
      <point x="245.5273417722" y="-21.6307692308"/>
      <point x="118.2153846154" y="110.2099255583"/>
    </contour>
    <contour>
      <point x="118.2153846154" y="882.7538461537999" type="qcurve" smooth="yes"/>
      <point x="118.2153846154" y="975.9514113504999"/>
      <point x="245.5273417722" y="1107.1347692308"/>
      <point x="365.7651684518" y="1107.1347692308" type="qcurve" smooth="yes"/>
      <point x="484.92607205449997" y="1107.1347692308"/>
      <point x="613.6484907498" y="975.9514113504999"/>
      <point x="613.6484907498" y="882.7538461537999" type="qcurve" smooth="yes"/>
      <point x="613.6484907498" y="789.7810989011"/>
      <point x="484.52268743909997" y="658.9230769231"/>
      <point x="365.4319376826" y="658.9230769231" type="qcurve" smooth="yes"/>
      <point x="245.2642648491" y="658.9230769231"/>
      <point x="118.2153846154" y="790.1503296703"/>
    </contour>
  </outline>
</glyph>
<glyph name="semicolon" format="2">
  <advance width="732.0"/>
  <unicode hex="003B"/>
  <outline>
    <contour>
      <point x="75.42332229799999" y="-244.8923076923" type="line"/>
      <point x="140.0862823759" y="-166.2615384615"/>
      <point x="202.1855890944" y="8.123076923099998"/>
      <point x="201.6769737098" y="119.4307692308" type="qcurve" smooth="yes"/>
      <point x="201.3086660175" y="381.79999999999995" type="line"/>
      <point x="549.0936708861" y="381.79999999999995" type="line"/>
      <point x="549.3918247322" y="119.9230769231" type="line" smooth="yes"/>
      <point x="549.3918247322" y="-30.538461538500002"/>
      <point x="424.2188198637" y="-289.0769230769"/>
      <point x="312.8775150925" y="-376.7307692308" type="qcurve"/>
    </contour>
    <contour>
      <point x="124.78461538459999" y="882.7538461537999" type="qcurve" smooth="yes"/>
      <point x="124.78461538459999" y="975.9514113504999"/>
      <point x="247.5671843163" y="1107.1347692308"/>
      <point x="363.5651684518" y="1107.1347692308" type="qcurve" smooth="yes"/>
      <point x="478.4916242841" y="1107.1347692308"/>
      <point x="602.6792599805" y="975.9514113504999"/>
      <point x="602.6792599805" y="882.7538461537999" type="qcurve" smooth="yes"/>
      <point x="602.6792599805" y="790.3945409429"/>
      <point x="478.8149951315" y="658.9230769231"/>
      <point x="363.2319376826" y="658.9230769231" type="qcurve" smooth="yes"/>
      <point x="247.4488802337" y="658.9230769231"/>
      <point x="124.78461538459999" y="790.7637717122001"/>
    </contour>
  </outline>
</glyph>
<glyph name="less" format="2">
  <advance width="1200"/>
  <unicode hex="003C"/>
  <outline>
    <contour>
      <point x="1043.0" y="139.2" type="line"/>
      <point x="115.0" y="528.2" type="line"/>
      <point x="115.0" y="820.6" type="line"/>
      <point x="1043.0" y="1209.6" type="line"/>
      <point x="1043.0" y="848.2" type="line"/>
      <point x="572.6" y="679.4" type="line"/>
      <point x="1043.0" y="508.6" type="line"/>
    </contour>
  </outline>
</glyph>
<glyph name="equal" format="2">
	<unicode hex="003D"/>
	<advance width="1200"/>
	<outline>
		<contour>
			<point x="135" y="298.4" type="line"/>
			<point x="135" y="604.2" type="line"/>
			<point x="1065" y="604.2" type="line"/>
			<point x="1065" y="298.4" type="line"/>
		</contour>
		<contour>
			<point x="135" y="708.2" type="line"/>
			<point x="135" y="1015" type="line"/>
			<point x="1065" y="1015" type="line"/>
			<point x="1065" y="708.2" type="line"/>
		</contour>
	</outline>
</glyph>
<glyph name="greater" format="2">
	<unicode hex="003E"/>
	<advance width="1200"/>
	<outline>
		<contour>
			<point x="115" y="139.2" type="line"/>
			<point x="115" y="500.6" type="line"/>
			<point x="585.4" y="669.4" type="line"/>
			<point x="115" y="840.2" type="line"/>
			<point x="115" y="1209.6" type="line"/>
			<point x="1043" y="820.6" type="line"/>
			<point x="1043" y="528.2" type="line"/>
		</contour>
	</outline>
</glyph>
<glyph name="question" format="2">
  <advance width="1263.0"/>
  <unicode hex="003F"/>
  <outline>
    <contour>
      <point x="332.3301850049" y="196.23076923079998" type="qcurve" smooth="yes"/>
      <point x="332.3301850049" y="285.0923076923"/>
      <point x="462.9344498539" y="413.2615384615"/>
      <point x="584.4338149951" y="413.2615384615" type="qcurve" smooth="yes"/>
      <point x="707.1331801363" y="413.2615384615"/>
      <point x="836.5374449853999" y="285.0923076923"/>
      <point x="836.5374449853999" y="196.23076923079998" type="qcurve" smooth="yes"/>
      <point x="836.5374449853999" y="106.1692307692"/>
      <point x="707.1331801363" y="-22.0"/>
      <point x="584.4338149951" y="-22.0" type="qcurve" smooth="yes"/>
      <point x="463.4267575463" y="-22.0"/>
      <point x="332.3301850049" y="106.1692307692"/>
    </contour>
    <contour>
      <point x="97.9846153846" y="995.8384615385" type="line"/>
      <point x="97.9846153846" y="1049.1307692307998" type="line" smooth="yes"/>
      <point x="97.9846153846" y="1265.5692307692002"/>
      <point x="392.7201908471" y="1476.0"/>
      <point x="614.8370983446999" y="1476.0" type="qcurve" smooth="yes"/>
      <point x="846.9915365141" y="1476.0"/>
      <point x="1153.9606738072" y="1262.4615384615001"/>
      <point x="1153.9606738072" y="1057.9538461538" type="qcurve" smooth="yes"/>
      <point x="1153.9606738072" y="917.3846153846"/>
      <point x="1025.6276027264" y="750.8769230769001"/>
      <point x="920.1319610516" y="683.5538461538" type="qcurve" smooth="yes"/>
      <point x="845.6472950341" y="643.8384615384999"/>
      <point x="804.2241674781001" y="512.5846153846"/>
      <point x="804.2241674781001" y="459.7538461538" type="qcurve" smooth="yes"/>
      <point x="804.2241674781001" y="445.8153846154" type="line"/>
      <point x="363.832292113" y="445.8153846154" type="line"/>
      <point x="363.832292113" y="462.5846153846" type="line" smooth="yes"/>
      <point x="363.832292113" y="575.5307692308"/>
      <point x="431.0" y="775.2"/>
      <point x="540.0" y="850.4" type="qcurve" smooth="yes"/>
      <point x="626.2" y="908.4"/>
      <point x="703.6" y="968.4"/>
      <point x="703.6" y="1040.0" type="qcurve" smooth="yes"/>
      <point x="703.6" y="1120.6"/>
      <point x="663.0" y="1177.0"/>
      <point x="612.0" y="1177.0" type="qcurve" smooth="yes"/>
      <point x="570.8" y="1177.0"/>
      <point x="529.6" y="1112.8"/>
      <point x="529.6" y="1037.8" type="qcurve" smooth="yes"/>
      <point x="529.7447906524001" y="995.8384615385" type="line"/>
    </contour>
  </outline>
</glyph>
<glyph name="at" format="2">
	<unicode hex="0040"/>
	<advance width="2302"/>
	<outline>
		<contour>
			<point x="651.1258773126" y="400" type="qcurve" smooth="yes"/>
			<point x="651.4" y="703"/>
			<point x="967.2" y="1052"/>
			<point x="1164.2" y="1052" type="qcurve" smooth="yes"/>
			<point x="1252.2" y="1052"/>
			<point x="1366.3850204479" y="987.2153846154"/>
			<point x="1402.5004050633" y="946" type="qcurve"/>
			<point x="1675.9749328139999" y="946" type="line"/>
			<point x="1586.574932814" y="350" type="line" smooth="yes"/>
			<point x="1579.6481708006002" y="280.8522516248"/>
			<point x="1610.1340840076998" y="224.4923076923"/>
			<point x="1644.1441635833" y="224.3692307692" type="qcurve" smooth="yes"/>
			<point x="1716.0569039678999" y="224.2461538462"/>
			<point x="1807.5441635833001" y="453.7615384615"/>
			<point x="1807.5441635833001" y="643.7230769231" type="qcurve" smooth="yes"/>
			<point x="1807.5441635833001" y="872.7527952921"/>
			<point x="1481.0826403094" y="1211.9076923077"/>
			<point x="1186.9696358325" y="1211.9076923077" type="qcurve" smooth="yes"/>
			<point x="897.8083865628" y="1211.9076923077"/>
			<point x="508.5951080818" y="770.1841469762"/>
			<point x="508.5951080818" y="453.7230769231" type="qcurve" smooth="yes"/>
			<point x="508.5951080818" y="154.107475623"/>
			<point x="845.1034964529" y="-169.6923076923"/>
			<point x="1102.8850204479002" y="-169.6923076923" type="qcurve" smooth="yes"/>
			<point x="1207.3234819864" y="-169.6923076923"/>
			<point x="1351.9311742941" y="-116.8"/>
			<point x="1401.2850204479" y="-80.9230769231" type="qcurve"/>
			<point x="1401.2850204479" y="-357.2307692308" type="line"/>
			<point x="1348.3965819655" y="-401.0369563423"/>
			<point x="1207.3234819864" y="-446"/>
			<point x="1102.8850204479002" y="-446" type="qcurve" smooth="yes"/>
			<point x="694.7855540408999" y="-446"/>
			<point x="100.2153846154" y="40"/>
			<point x="100.2153846154" y="460" type="qcurve" smooth="yes"/>
			<point x="100.2153846154" y="880"/>
			<point x="744.608630964" y="1486"/>
			<point x="1186.9696358325" y="1486" type="qcurve" smooth="yes"/>
			<point x="1642.5800778968" y="1486"/>
			<point x="2207.395224927" y="1000"/>
			<point x="2207.395224927" y="650" type="qcurve" smooth="yes"/>
			<point x="2207.395224927" y="360"/>
			<point x="1853.27465958" y="0"/>
			<point x="1591.8198597858" y="0" type="qcurve" smooth="yes"/>
			<point x="1484.6070223953" y="0"/>
			<point x="1329.6007010710998" y="97.4307692308"/>
			<point x="1298.4170165531" y="180" type="qcurve"/>
			<point x="1259.2573398247" y="96.03846153849999"/>
			<point x="1121.3046192795" y="0"/>
			<point x="1046.1465589094" y="0" type="qcurve" smooth="yes"/>
			<point x="864.8415066735" y="0"/>
			<point x="651.4" y="220"/>
		</contour>
		<contour>
			<point x="1015.6388666018" y="403.3230769231" type="qcurve" smooth="yes"/>
			<point x="1015.6388666018" y="325.7769230769"/>
			<point x="1058.9716209442" y="248.55384615379998"/>
			<point x="1098.6311742941" y="248.55384615379998" type="qcurve" smooth="yes"/>
			<point x="1150.4053047712" y="248.55384615379998"/>
			<point x="1236.1892346641" y="336.43846153849995"/>
			<point x="1251.9449425511" y="448.6" type="qcurve" smooth="yes"/>
			<point x="1286.426714703" y="765.1692307692" type="line"/>
			<point x="1265.3113300876" y="783.9384615385"/>
			<point x="1212.1420993184001" y="804.2153846154"/>
			<point x="1184.7728685492" y="804.2153846154" type="qcurve" smooth="yes"/>
			<point x="1112.4440619982" y="804.2153846154"/>
			<point x="1015.6388666018" y="574.2923076923"/>
		</contour>
	</outline>
</glyph>
<glyph name="A" format="2">
  <advance width="1487"/>
  <unicode hex="0041"/>
  <outline>
    <contour>
      <point x="-63.0" y="0.0" type="line"/>
      <point x="488.8" y="1460.0" type="line"/>
      <point x="975.8" y="1460.0" type="line"/>
      <point x="1550.0" y="0.0" type="line"/>
      <point x="1072.6" y="0.0" type="line"/>
      <point x="729.6" y="947.4" type="line" smooth="yes"/>
      <point x="717.6" y="981.4"/>
      <point x="706.8" y="1043.4"/>
      <point x="702.0" y="1073.4" type="qcurve"/>
      <point x="695.0" y="1073.4" type="line"/>
      <point x="691.2" y="1043.4"/>
      <point x="679.4" y="980.4"/>
      <point x="667.4" y="947.4" type="qcurve" smooth="yes"/>
      <point x="327.8" y="0.0" type="line"/>
    </contour>
    <contour>
      <point x="333.4" y="251.8" type="line"/>
      <point x="418.8" y="561.4" type="line"/>
      <point x="1017.2" y="561.4" type="line"/>
      <point x="1104.8" y="251.8" type="line"/>
    </contour>
  </outline>
</glyph>
<glyph name="B" format="2">
	<unicode hex="0042"/>
	<advance width="1426"/>
	<outline>
		<contour>
			<point x="136.8" y="0" type="line"/>
			<point x="136.8" y="1456" type="line"/>
			<point x="745" y="1456" type="line" smooth="yes"/>
			<point x="1010" y="1456"/>
			<point x="1311" y="1267"/>
			<point x="1311" y="1072" type="qcurve" smooth="yes"/>
			<point x="1311" y="952"/>
			<point x="1214.4" y="792.2"/>
			<point x="1144.4" y="768" type="qcurve"/>
			<point x="1144.4" y="764" type="line"/>
			<point x="1232.2" y="738.6"/>
			<point x="1352" y="562"/>
			<point x="1352" y="419" type="qcurve" smooth="yes"/>
			<point x="1352" y="220"/>
			<point x="1032" y="0"/>
			<point x="773" y="0" type="qcurve" smooth="yes"/>
		</contour>
		<contour>
			<point x="568.4" y="286.4" type="line"/>
			<point x="760" y="286.4" type="line" smooth="yes"/>
			<point x="841.6" y="286.4"/>
			<point x="918.6" y="376"/>
			<point x="918.6" y="454.8" type="qcurve" smooth="yes"/>
			<point x="918.6" y="530.2"/>
			<point x="841.6" y="621.2"/>
			<point x="760" y="621.2" type="qcurve" smooth="yes"/>
			<point x="568.4" y="621.2" type="line"/>
		</contour>
		<contour>
			<point x="568.4" y="884.8" type="line"/>
			<point x="733" y="884.8" type="line" smooth="yes"/>
			<point x="812.6" y="884.8"/>
			<point x="882.6" y="957.4"/>
			<point x="882.6" y="1024.8" type="qcurve" smooth="yes"/>
			<point x="882.6" y="1092.2"/>
			<point x="812.6" y="1166.6"/>
			<point x="733" y="1166.6" type="qcurve" smooth="yes"/>
			<point x="568.4" y="1166.6" type="line"/>
		</contour>
	</outline>
	<anchor name="bottom" x="703" y="0"/>
	<anchor name="top" x="703" y="1456"/>
</glyph>
<glyph name="C" format="2">
	<unicode hex="0043"/>
	<advance width="1443"/>
	<outline>
		<contour>
			<point x="80" y="683" type="qcurve" smooth="yes"/>
			<point x="80" y="773" type="line" smooth="yes"/>
			<point x="80" y="1135"/>
			<point x="460.2" y="1485"/>
			<point x="779.6" y="1485" type="qcurve" smooth="yes"/>
			<point x="1072.8" y="1485"/>
			<point x="1420.8" y="1197.6"/>
			<point x="1423.2" y="939.4" type="qcurve" smooth="yes"/>
			<point x="1423.4" y="899.4" type="line"/>
			<point x="983.2" y="899.4" type="line"/>
			<point x="983" y="947.4" type="line" smooth="yes"/>
			<point x="981.8" y="1068.6"/>
			<point x="877.8" y="1164"/>
			<point x="773.6" y="1164" type="qcurve" smooth="yes"/>
			<point x="657.6" y="1164"/>
			<point x="530" y="1031.4"/>
			<point x="530" y="839" type="qcurve" smooth="yes"/>
			<point x="530" y="617" type="line" smooth="yes"/>
			<point x="530" y="433.2"/>
			<point x="650.8" y="291"/>
			<point x="781.6" y="291" type="qcurve" smooth="yes"/>
			<point x="885" y="291"/>
			<point x="985" y="404.2"/>
			<point x="983.2" y="511.2" type="qcurve" smooth="yes"/>
			<point x="983.2" y="555.6" type="line"/>
			<point x="1423.4" y="555.6" type="line"/>
			<point x="1423.4" y="511.6" type="line" smooth="yes"/>
			<point x="1425" y="260.4"/>
			<point x="1070.8" y="-29"/>
			<point x="779.6" y="-29" type="qcurve" smooth="yes"/>
			<point x="457.2" y="-29"/>
			<point x="80" y="327"/>
		</contour>
	</outline>
	<anchor name="bottom" x="780" y="0"/>
	<anchor name="top" x="779" y="1456"/>
</glyph>
<glyph name="D" format="2">
  <advance width="1496"/>
  <unicode hex="0044"/>
  <anchor x="748.0" y="0" name="bottom"/>
  <anchor x="820.6" y="728.0" name="center"/>
  <anchor x="748.0" y="1456.0" name="top"/>
  <outline>
    <contour>
      <point x="136.8" y="0.0" type="line"/>
      <point x="136.8" y="1456.0" type="line"/>
      <point x="685.6067692308001" y="1456.0" type="line" smooth="yes"/>
      <point x="992.4952137086" y="1456.0"/>
      <point x="1415.6" y="1107.0"/>
      <point x="1415.6" y="774.0" type="qcurve" smooth="yes"/>
      <point x="1415.6" y="683.0" type="line" smooth="yes"/>
      <point x="1415.6" y="350.0"/>
      <point x="991.7567521702" y="0.0"/>
      <point x="685.6067692308001" y="0.0" type="qcurve" smooth="yes"/>
    </contour>
    <contour>
      <point x="567.4836923077" y="311.50769230770004" type="line"/>
      <point x="676.4990769231" y="311.50769230770004" type="line" smooth="yes"/>
      <point x="800.8786241317" y="311.50769230770004"/>
      <point x="970.6" y="480.0"/>
      <point x="970.976" y="670.8" type="qcurve" smooth="yes"/>
      <point x="970.976" y="784.7076923077" type="line" smooth="yes"/>
      <point x="970.6" y="976.0"/>
      <point x="801.247854901" y="1142.0307692308002"/>
      <point x="676.4990769231" y="1142.0307692308002" type="qcurve" smooth="yes"/>
      <point x="567.4836923077" y="1142.0307692308002" type="line"/>
    </contour>
  </outline>
</glyph>
<glyph name="E" format="2">
  <advance width="1259"/>
  <unicode hex="0045"/>
  <anchor x="675.0" y="0" name="bottom"/>
  <anchor x="1091.0" y="0" name="ogonek"/>
  <anchor x="675.0" y="1456.0" name="top"/>
  <outline>
    <contour>
      <point x="136.8" y="0.0" type="line"/>
      <point x="136.8" y="1456.0" type="line"/>
      <point x="1186.7906056475" y="1456.0" type="line"/>
      <point x="1186.7906056475" y="1135.3846153846" type="line"/>
      <point x="566.2529230769001" y="1135.3846153846" type="line"/>
      <point x="566.2529230769001" y="904.2769230769" type="line"/>
      <point x="1096.5136825706" y="904.2769230769" type="line"/>
      <point x="1096.5136825706" y="591.0769230769" type="line"/>
      <point x="566.2529230769001" y="591.0769230769" type="line"/>
      <point x="566.2529230769001" y="318.15384615380003" type="line"/>
      <point x="1198.0213748782999" y="318.15384615380003" type="line"/>
      <point x="1198.0213748782999" y="0.0" type="line"/>
    </contour>
  </outline>
</glyph>
<glyph name="F" format="2">
	<unicode hex="0046"/>
	<advance width="1217"/>
	<outline>
		<contour>
			<point x="136.8" y="0" type="line"/>
			<point x="136.8" y="1456" type="line"/>
			<point x="1168.4521441091001" y="1456" type="line"/>
			<point x="1168.4521441091001" y="1135.5076923077002" type="line"/>
			<point x="569.9452307692001" y="1135.5076923077002" type="line"/>
			<point x="569.9452307692001" y="837.0615384615" type="line"/>
			<point x="1102.3906056475" y="837.0615384615" type="line"/>
			<point x="1102.3906056475" y="522.6" type="line"/>
			<point x="569.9452307692001" y="522.6" type="line"/>
			<point x="569.9452307692001" y="0" type="line"/>
		</contour>
	</outline>
	<anchor name="bottom" x="667" y="0"/>
	<anchor name="top" x="654" y="1455.8"/>
</glyph>
<glyph name="G" format="2">
	<unicode hex="0047"/>
	<advance width="1464"/>
	<outline>
		<contour>
			<point x="80" y="683" type="qcurve" smooth="yes"/>
			<point x="80" y="773" type="line" smooth="yes"/>
			<point x="80" y="1135"/>
			<point x="461.8" y="1485"/>
			<point x="778.6" y="1485" type="qcurve" smooth="yes"/>
			<point x="1073.8" y="1485"/>
			<point x="1419.4" y="1218.8"/>
			<point x="1405.6" y="1000.4" type="qcurve" smooth="yes"/>
			<point x="1404.4" y="983.6" type="line"/>
			<point x="966.4" y="983.6" type="line"/>
			<point x="966.4" y="995.6" type="line" smooth="yes"/>
			<point x="965.2" y="1080.4"/>
			<point x="870.4" y="1165.4"/>
			<point x="758" y="1165.4" type="qcurve" smooth="yes"/>
			<point x="656.4" y="1165.4"/>
			<point x="527" y="1021.2"/>
			<point x="527" y="837" type="qcurve" smooth="yes"/>
			<point x="527" y="619" type="line" smooth="yes"/>
			<point x="527" y="424.8"/>
			<point x="684.8" y="287.6"/>
			<point x="806.2" y="287.6" type="qcurve" smooth="yes"/>
			<point x="861.6" y="287.6"/>
			<point x="936.8" y="311"/>
			<point x="976.8" y="339.6" type="qcurve"/>
			<point x="976.8" y="503.4" type="line"/>
			<point x="786.2" y="503.4" type="line"/>
			<point x="786.2" y="813" type="line"/>
			<point x="1405.4" y="813" type="line"/>
			<point x="1405.4" y="197.8" type="line"/>
			<point x="1320.6" y="112"/>
			<point x="1025.6" y="-29"/>
			<point x="805.2" y="-29" type="qcurve" smooth="yes"/>
			<point x="462.6" y="-29"/>
			<point x="80" y="321"/>
		</contour>
	</outline>
	<anchor name="bottom" x="778" y="0"/>
	<anchor name="top" x="778" y="1456"/>
</glyph>
<glyph name="H" format="2">
	<unicode hex="0048"/>
	<advance width="1558"/>
	<outline>
		<contour>
			<point x="136.8" y="0" type="line"/>
			<point x="136.8" y="1456" type="line"/>
			<point x="570.2" y="1456" type="line"/>
			<point x="570.2" y="912.2" type="line"/>
			<point x="990.8" y="912.2" type="line"/>
			<point x="990.8" y="1456" type="line"/>
			<point x="1423.2" y="1456" type="line"/>
			<point x="1423.2" y="0" type="line"/>
			<point x="990.8" y="0" type="line"/>
			<point x="990.8" y="587.6" type="line"/>
			<point x="570.2" y="587.6" type="line"/>
			<point x="570.2" y="0" type="line"/>
		</contour>
	</outline>
	<anchor name="bottom" x="779" y="0"/>
	<anchor name="center" x="779" y="1114"/>
	<anchor name="top" x="779" y="1456"/>
</glyph>
<glyph name="I" format="2">
  <advance width="678"/>
  <unicode hex="0049"/>
  <anchor x="339.0" y="0" name="bottom"/>
  <anchor x="283" y="0" name="ogonek"/>
  <anchor x="339.0" y="1456" name="top"/>
  <outline>
    <contour>
      <point x="121.8" y="0.0" type="line"/>
      <point x="121.8" y="1456.0" type="line"/>
      <point x="556.2" y="1456.0" type="line"/>
      <point x="556.2" y="0.0" type="line"/>
    </contour>
  </outline>
</glyph>
<glyph name="J" format="2">
  <advance width="1249.0"/>
  <unicode hex="004A"/>
  <anchor x="569.0" y="0.0" name="bottom"/>
  <anchor x="906.0" y="1456.0" name="top"/>
  <outline>
    <contour>
      <point x="25.0" y="503.4" type="qcurve" smooth="yes"/>
      <point x="25.0" y="525.4" type="line"/>
      <point x="448.4" y="525.4" type="line"/>
      <point x="448.4" y="491.4" type="line" smooth="yes"/>
      <point x="448.4" y="354.8"/>
      <point x="499.0" y="286.6"/>
      <point x="563.4" y="286.6" type="qcurve" smooth="yes"/>
      <point x="629.0" y="286.6"/>
      <point x="680.6" y="363.6"/>
      <point x="680.6" y="510.4" type="qcurve" smooth="yes"/>
      <point x="680.6" y="1456.0" type="line"/>
      <point x="1114.0" y="1456.0" type="line"/>
      <point x="1114.0" y="562.4" type="line" smooth="yes"/>
      <point x="1114.0" y="268.6"/>
      <point x="828.8" y="-29.0"/>
      <point x="569.4" y="-29.0" type="qcurve" smooth="yes"/>
      <point x="312.2" y="-29.0"/>
      <point x="25.0" y="214.6"/>
    </contour>
  </outline>
</glyph>
<glyph name="K" format="2">
  <advance width="1448"/>
  <unicode hex="004B"/>
  <anchor x="720" y="0" name="bottom"/>
  <anchor x="720" y="1456" name="top"/>
  <outline>
    <contour>
      <point x="136.8" y="0.0" type="line"/>
      <point x="136.8" y="1456.0" type="line"/>
      <point x="570.2" y="1456.0" type="line"/>
      <point x="570.2" y="991.0" type="line"/>
      <point x="968.0" y="1456.0" type="line"/>
      <point x="1415.2" y="1456.0" type="line"/>
      <point x="570.2" y="502.6" type="line"/>
      <point x="570.2" y="0.0" type="line"/>
    </contour>
    <contour>
      <point x="994.2" y="0.0" type="line"/>
      <point x="540.2" y="636.2" type="line"/>
      <point x="818.8" y="953.2" type="line"/>
      <point x="1522.4" y="0.0" type="line"/>
    </contour>
  </outline>
</glyph>
<glyph name="L" format="2">
  <advance width="1169"/>
  <unicode hex="004C"/>
  <outline>
    <contour>
      <point x="136.8" y="0.0" type="line"/>
      <point x="136.8" y="1456.0" type="line"/>
      <point x="569.9452307692001" y="1456.0" type="line"/>
      <point x="569.9452307692001" y="320.61538461540005" type="line"/>
      <point x="1146.6221538462" y="320.61538461540005" type="line"/>
      <point x="1146.6221538462" y="0.0" type="line"/>
    </contour>
  </outline>
</glyph>
<glyph name="M" format="2">
  <advance width="1963"/>
  <unicode hex="004D"/>
  <outline>
    <contour>
      <point x="136.8" y="0.0" type="line"/>
      <point x="136.8" y="1456.0" type="line"/>
      <point x="687.8" y="1456.0" type="line"/>
      <point x="942.0" y="690.4" type="line" smooth="yes"/>
      <point x="955.0" y="652.2"/>
      <point x="968.6" y="598.0"/>
      <point x="972.4" y="553.2" type="qcurve"/>
      <point x="977.2" y="553.2" type="line"/>
      <point x="982.2" y="598.0"/>
      <point x="996.8" y="653.2"/>
      <point x="1008.8" y="690.4" type="qcurve" smooth="yes"/>
      <point x="1264.0" y="1456.0" type="line"/>
      <point x="1826.2" y="1456.0" type="line"/>
      <point x="1826.2" y="0.0" type="line"/>
      <point x="1392.4" y="0.0" type="line"/>
      <point x="1392.4" y="780.6" type="line" smooth="yes"/>
      <point x="1392.4" y="818.0"/>
      <point x="1397.2" y="906.0"/>
      <point x="1400.2" y="942.2" type="qcurve"/>
      <point x="1391.4" y="942.2" type="line"/>
      <point x="1387.6" y="906.0"/>
      <point x="1373.0" y="818.0"/>
      <point x="1361.0" y="780.6" type="qcurve" smooth="yes"/>
      <point x="1103.4" y="0.0" type="line"/>
      <point x="759.6" y="0.0" type="line"/>
      <point x="498.2" y="788.0" type="line" smooth="yes"/>
      <point x="486.0" y="825.4"/>
      <point x="471.6" y="913.4"/>
      <point x="466.6" y="949.6" type="qcurve"/>
      <point x="458.0" y="949.6" type="line"/>
      <point x="461.0" y="913.4"/>
      <point x="464.6" y="825.4"/>
      <point x="464.6" y="788.0" type="qcurve" smooth="yes"/>
      <point x="464.6" y="0.0" type="line"/>
    </contour>
  </outline>
</glyph>
<glyph name="N" format="2">
	<unicode hex="004E"/>
	<advance width="1509"/>
	<outline>
		<contour>
			<point x="136.8" y="0" type="line"/>
			<point x="136.8" y="1456" type="line"/>
			<point x="601.6" y="1456" type="line"/>
			<point x="976.8" y="690.6" type="line" smooth="yes"/>
			<point x="991.8" y="659.6"/>
			<point x="1006.2" y="613.4"/>
			<point x="1016.2" y="575.6" type="qcurve"/>
			<point x="1024.4" y="575.6" type="line"/>
			<point x="1022" y="613"/>
			<point x="1020.4" y="658"/>
			<point x="1020.4" y="696.6" type="qcurve" smooth="yes"/>
			<point x="1020.4" y="1456" type="line"/>
			<point x="1372.2" y="1456" type="line"/>
			<point x="1372.2" y="0" type="line"/>
			<point x="892.2" y="0" type="line"/>
			<point x="528.2" y="750.8" type="line" smooth="yes"/>
			<point x="513.2" y="781.8"/>
			<point x="499.4" y="836"/>
			<point x="491.8" y="872.8" type="qcurve"/>
			<point x="483.6" y="872.8" type="line"/>
			<point x="486" y="835.2"/>
			<point x="488.6" y="773.2"/>
			<point x="488.6" y="735.8" type="qcurve" smooth="yes"/>
			<point x="488.6" y="0" type="line"/>
		</contour>
	</outline>
	<anchor name="bottom" x="729" y="0"/>
	<anchor name="top" x="729" y="1456"/>
</glyph>
<glyph name="O" format="2">
	<unicode hex="004F"/>
	<advance width="1552"/>
	<outline>
		<contour>
			<point x="80" y="683" type="qcurve" smooth="yes"/>
			<point x="80" y="773" type="line" smooth="yes"/>
			<point x="80" y="1133"/>
			<point x="466.2" y="1485"/>
			<point x="772.4" y="1485" type="qcurve" smooth="yes"/>
			<point x="1077.6" y="1485"/>
			<point x="1472" y="1133"/>
			<point x="1472" y="773" type="qcurve" smooth="yes"/>
			<point x="1472" y="683" type="line" smooth="yes"/>
			<point x="1472" y="323"/>
			<point x="1077.6" y="-29"/>
			<point x="772.4" y="-29" type="qcurve" smooth="yes"/>
			<point x="466.2" y="-29"/>
			<point x="80" y="323"/>
		</contour>
		<contour>
			<point x="528" y="627" type="line" smooth="yes"/>
			<point x="528" y="436.2"/>
			<point x="658" y="291"/>
			<point x="772.4" y="291" type="qcurve" smooth="yes"/>
			<point x="888" y="291"/>
			<point x="1025.2" y="436.2"/>
			<point x="1025.2" y="627" type="qcurve" smooth="yes"/>
			<point x="1025.2" y="828" type="line" smooth="yes"/>
			<point x="1025.2" y="1019.8"/>
			<point x="888" y="1164"/>
			<point x="772.4" y="1164" type="qcurve" smooth="yes"/>
			<point x="658" y="1164"/>
			<point x="528" y="1019.8"/>
			<point x="528" y="828" type="qcurve" smooth="yes"/>
		</contour>
	</outline>
	<anchor name="bottom" x="776" y="0"/>
	<anchor name="center" x="776" y="728"/>
	<anchor name="ogonek" x="929" y="0"/>
	<anchor name="top" x="776" y="1456"/>
	<anchor name="topright" x="1071" y="1456"/>
</glyph>
<glyph name="P" format="2">
  <advance width="1371"/>
  <unicode hex="0050"/>
  <anchor x="685.5" y="0" name="bottom"/>
  <anchor x="685.5" y="1456.0" name="top"/>
  <outline>
    <contour>
      <point x="136.8" y="0.0" type="line"/>
      <point x="136.8" y="1456.0" type="line"/>
      <point x="773.8" y="1456.0" type="line" smooth="yes"/>
      <point x="1040.8" y="1456.0"/>
      <point x="1328.8" y="1208.0"/>
      <point x="1328.8" y="952.2" type="qcurve" smooth="yes"/>
      <point x="1328.8" y="697.4"/>
      <point x="1041.8" y="445.2"/>
      <point x="772.8" y="445.2" type="qcurve" smooth="yes"/>
      <point x="570.2" y="445.2" type="line"/>
      <point x="570.2" y="0.0" type="line"/>
    </contour>
    <contour>
      <point x="570.2" y="757.0" type="line"/>
      <point x="717.8" y="757.0" type="line" smooth="yes"/>
      <point x="819.8" y="757.0"/>
      <point x="896.6" y="844.0"/>
      <point x="896.6" y="951.2" type="qcurve" smooth="yes"/>
      <point x="896.6" y="1056.2"/>
      <point x="819.8" y="1141.4"/>
      <point x="717.8" y="1141.4" type="qcurve" smooth="yes"/>
      <point x="570.2" y="1141.4" type="line"/>
    </contour>
  </outline>
</glyph>
<glyph name="Q" format="2">
  <advance width="1552"/>
  <unicode hex="0051"/>
  <outline>
    <contour>
      <point x="79.8" y="682.8615384615" type="qcurve" smooth="yes"/>
      <point x="79.8" y="773.1384615385" type="line" smooth="yes"/>
      <point x="80.0" y="1133.0"/>
      <point x="467.8518909445" y="1484.7692307692"/>
      <point x="773.522399221" y="1484.7692307692" type="qcurve" smooth="yes"/>
      <point x="1079.3159844206" y="1484.7692307692"/>
      <point x="1469.6" y="1133.0"/>
      <point x="1469.6447984421" y="773.1384615385" type="qcurve" smooth="yes"/>
      <point x="1469.6447984421" y="682.8615384615" type="line" smooth="yes"/>
      <point x="1469.6" y="323.0"/>
      <point x="1079.3159844206" y="-28.7692307692"/>
      <point x="773.522399221" y="-28.7692307692" type="qcurve" smooth="yes"/>
      <point x="467.8518909445" y="-28.7692307692"/>
      <point x="80.0" y="323.0"/>
    </contour>
    <contour>
      <point x="528.0" y="637.0" type="line" smooth="yes"/>
      <point x="528.0" y="444.0"/>
      <point x="659.2608607595" y="291.0461538462"/>
      <point x="773.522399221" y="291.0461538462" type="qcurve" smooth="yes"/>
      <point x="888.9839376826001" y="291.0461538462"/>
      <point x="1022.8" y="444.0"/>
      <point x="1022.8" y="637.0" type="qcurve" smooth="yes"/>
      <point x="1022.8" y="818.0" type="line" smooth="yes"/>
      <point x="1022.8" y="1011.0"/>
      <point x="888.9839376826001" y="1163.7230769231"/>
      <point x="773.522399221" y="1163.7230769231" type="qcurve" smooth="yes"/>
      <point x="659.2608607595" y="1163.7230769231"/>
      <point x="528.0" y="1011.0"/>
      <point x="528.0" y="818.0" type="qcurve" smooth="yes"/>
    </contour>
    <contour>
      <point x="1200.0" y="-344.6" type="line"/>
      <point x="744.5261226874" y="21.3384615385" type="line"/>
      <point x="1004.8" y="314.4" type="line"/>
      <point x="1458.6788003894999" y="-41.13846153850001" type="line"/>
    </contour>
  </outline>
</glyph>
<glyph name="R" format="2">
  <advance width="1370"/>
  <unicode hex="0052"/>
  <outline>
    <contour>
      <point x="136.8" y="0.0" type="line"/>
      <point x="136.8" y="1456.0" type="line"/>
      <point x="727.334909445" y="1456.0" type="line" smooth="yes"/>
      <point x="1005.1622442894" y="1456.0"/>
      <point x="1325.0" y="1204.8"/>
      <point x="1325.1570632911" y="958.9692307692" type="qcurve" smooth="yes"/>
      <point x="1325.0" y="710.0"/>
      <point x="1001.6241888039" y="451.1692307692"/>
      <point x="726.2272171373" y="451.1692307692" type="qcurve" smooth="yes"/>
      <point x="569.9452307692001" y="451.1692307692" type="line"/>
      <point x="569.9452307692001" y="0.0" type="line"/>
    </contour>
    <contour>
      <point x="569.9452307692001" y="759.4307692308" type="line"/>
      <point x="706.2887555988001" y="759.4307692308" type="line" smooth="yes"/>
      <point x="803.2685892787" y="759.4307692308"/>
      <point x="891.8" y="852.8"/>
      <point x="892.3502940604" y="953.8" type="qcurve" smooth="yes"/>
      <point x="892.8" y="1053.0"/>
      <point x="803.2685892787" y="1142.6923076923001"/>
      <point x="706.2887555988001" y="1142.6923076923001" type="qcurve" smooth="yes"/>
      <point x="569.9452307692001" y="1142.6923076923001" type="line"/>
    </contour>
    <contour>
      <point x="899.4" y="0.0" type="line"/>
      <point x="571.1772697176" y="671.3846153846" type="line"/>
      <point x="1043.9887439143" y="665.5846153846" type="line"/>
      <point x="1386.4" y="0.0" type="line"/>
    </contour>
  </outline>
</glyph>
<glyph name="S" format="2">
  <advance width="1341.0"/>
  <unicode hex="0053"/>
  <anchor x="670.5" y="0.0" name="bottom"/>
  <anchor x="670.5" y="1456.0" name="top"/>
  <outline>
    <contour>
      <point x="54.4307692308" y="432.6" type="qcurve" smooth="yes"/>
      <point x="54.4307692308" y="474.6307692308" type="line"/>
      <point x="503.32984615379996" y="474.6307692308" type="line"/>
      <point x="503.32984615379996" y="440.23076923080004" type="line" smooth="yes"/>
      <point x="503.2067692308" y="362.5769230769"/>
      <point x="595.5529230769" y="284.8538461538"/>
      <point x="678.2913846154" y="284.8538461538" type="qcurve" smooth="yes"/>
      <point x="759.7990769231" y="284.8538461538"/>
      <point x="847.2" y="342.4"/>
      <point x="847.2" y="392.6" type="qcurve" smooth="yes"/>
      <point x="847.2" y="463.0"/>
      <point x="769.2" y="522.8"/>
      <point x="573.6" y="564.8" type="qcurve" smooth="yes"/>
      <point x="357.8" y="611.2"/>
      <point x="68.8" y="839.2"/>
      <point x="68.2249386563" y="1029.8389483934" type="qcurve" smooth="yes"/>
      <point x="67.8" y="1248.0"/>
      <point x="401.9611996105" y="1484.5230769231"/>
      <point x="670.3836923077" y="1484.5230769231" type="qcurve" smooth="yes"/>
      <point x="937.2618928919" y="1484.5230769231"/>
      <point x="1266.6" y="1242.2"/>
      <point x="1266.1750769230998" y="1030.6307692308" type="qcurve" smooth="yes"/>
      <point x="1266.1750769230998" y="990.6923076923" type="line"/>
      <point x="830.5067692308" y="990.6923076923" type="line"/>
      <point x="830.5067692308" y="1023.6153846154" type="line" smooth="yes"/>
      <point x="830.5067692308" y="1088.9307692308"/>
      <point x="751.0" y="1169.4"/>
      <point x="672.4" y="1169.4" type="qcurve" smooth="yes"/>
      <point x="594.0" y="1169.4"/>
      <point x="520.4" y="1118.0"/>
      <point x="520.4" y="1073.4" type="qcurve" smooth="yes"/>
      <point x="520.4" y="1020.2"/>
      <point x="604.8" y="983.2"/>
      <point x="792.2" y="937.2" type="qcurve" smooth="yes"/>
      <point x="1005.6" y="884.2"/>
      <point x="1296.6" y="660.8"/>
      <point x="1297.2846075948999" y="441.0570593963" type="qcurve" smooth="yes"/>
      <point x="1297.6" y="202.2"/>
      <point x="952.1225004869" y="-28.7692307692"/>
      <point x="679.5221538462" y="-28.7692307692" type="qcurve" smooth="yes"/>
      <point x="410.334399221" y="-28.7692307692"/>
      <point x="54.0" y="197.0"/>
    </contour>
  </outline>
</glyph>
<glyph name="T" format="2">
	<unicode hex="0054"/>
	<advance width="1260"/>
	<outline>
		<contour>
			<point x="21.3384615385" y="1135.3846153846" type="line"/>
			<point x="21.3384615385" y="1456" type="line"/>
			<point x="1240.4213748783" y="1456" type="line"/>
			<point x="1240.4213748783" y="1135.3846153846" type="line"/>
			<point x="848.1909951315" y="1135.3846153846" type="line"/>
			<point x="848.1909951315" y="0" type="line"/>
			<point x="413.8149951315" y="0" type="line"/>
			<point x="413.8149951315" y="1135.3846153846" type="line"/>
		</contour>
	</outline>
	<anchor name="bottom" x="630" y="0"/>
	<anchor name="center" x="630" y="728"/>
	<anchor name="top" x="630" y="1456"/>
</glyph>
<glyph name="U" format="2">
	<unicode hex="0055"/>
	<advance width="1469"/>
	<outline>
		<contour>
			<point x="116" y="611" type="qcurve" smooth="yes"/>
			<point x="116" y="1456" type="line"/>
			<point x="548.4" y="1456" type="line"/>
			<point x="548.4" y="578" type="line" smooth="yes"/>
			<point x="548.4" y="402"/>
			<point x="654.6" y="291"/>
			<point x="741.2" y="291" type="qcurve" smooth="yes"/>
			<point x="827.6" y="291"/>
			<point x="934" y="403.2"/>
			<point x="934" y="578" type="qcurve" smooth="yes"/>
			<point x="934" y="1456" type="line"/>
			<point x="1352.2" y="1456" type="line"/>
			<point x="1352.2" y="611" type="line" smooth="yes"/>
			<point x="1352.8" y="270.6"/>
			<point x="998.2" y="-29"/>
			<point x="736.2" y="-29" type="qcurve" smooth="yes"/>
			<point x="472.2" y="-29"/>
			<point x="116" y="270.6"/>
		</contour>
	</outline>
	<anchor name="bottom" x="734.5" y="0"/>
	<anchor name="ogonek" x="858" y="0"/>
	<anchor name="top" x="734.5" y="1456"/>
	<anchor name="topright" x="1163" y="1455"/>
</glyph>
<glyph name="V" format="2">
  <advance width="1450.0"/>
  <unicode hex="0056"/>
  <anchor x="624.5" y="0.0" name="bottom"/>
  <anchor x="624.5" y="1456.0" name="top"/>
  <outline>
    <contour>
      <point x="-64.6" y="1456.0" type="line"/>
      <point x="416.0" y="1456.0" type="line"/>
      <point x="735.8" y="567.4" type="line" smooth="yes"/>
      <point x="743.2" y="546.0"/>
      <point x="749.6" y="501.4"/>
      <point x="754.2" y="466.8" type="qcurve"/>
      <point x="761.4" y="466.8" type="line"/>
      <point x="765.2" y="500.8"/>
      <point x="773.6" y="547.2"/>
      <point x="779.0" y="567.4" type="qcurve" smooth="yes"/>
      <point x="1112.0" y="1456.0" type="line"/>
      <point x="1514.6" y="1456.0" type="line"/>
      <point x="973.6" y="2.2" type="line"/>
      <point x="480.2" y="2.2" type="line"/>
    </contour>
  </outline>
</glyph>
<glyph name="W" format="2">
  <advance width="2101.0"/>
  <unicode hex="0057"/>
  <anchor x="975.5" y="0.0" name="bottom"/>
  <anchor x="975.5" y="1456.0" name="top"/>
  <outline>
    <contour>
      <point x="330.4" y="1.2000000000000002" type="line"/>
      <point x="4.0" y="1456.0" type="line"/>
      <point x="432.4" y="1456.0" type="line"/>
      <point x="609.0" y="589.2" type="line" smooth="yes"/>
      <point x="616.0" y="553.8"/>
      <point x="620.6" y="507.8"/>
      <point x="623.2" y="472.4" type="qcurve"/>
      <point x="630.4" y="472.4" type="line"/>
      <point x="633.0" y="507.8"/>
      <point x="636.4" y="553.8"/>
      <point x="642.4" y="589.2" type="qcurve" smooth="yes"/>
      <point x="839.4" y="1456.0" type="line"/>
      <point x="1339.8" y="1456.0" type="line"/>
      <point x="1534.6" y="592.4" type="line" smooth="yes"/>
      <point x="1542.6" y="557.0"/>
      <point x="1545.0" y="508.0"/>
      <point x="1547.6" y="472.6" type="qcurve"/>
      <point x="1555.0" y="472.6" type="line"/>
      <point x="1557.6" y="508.0"/>
      <point x="1563.0" y="557.0"/>
      <point x="1568.0" y="592.4" type="qcurve" smooth="yes"/>
      <point x="1738.8" y="1456.0" type="line"/>
      <point x="2097.0" y="1456.0" type="line"/>
      <point x="1784.6" y="1.2000000000000002" type="line"/>
      <point x="1273.6" y="1.2000000000000002" type="line"/>
      <point x="1066.4" y="866.6" type="line" smooth="yes"/>
      <point x="1058.4" y="902.0"/>
      <point x="1053.6" y="954.2"/>
      <point x="1052.2" y="989.6" type="qcurve"/>
      <point x="1044.8" y="989.6" type="line"/>
      <point x="1043.2" y="954.2"/>
      <point x="1039.4" y="902.0"/>
      <point x="1031.4" y="866.6" type="qcurve" smooth="yes"/>
      <point x="825.2" y="1.2000000000000002" type="line"/>
    </contour>
  </outline>
</glyph>
<glyph name="X" format="2">
	<unicode hex="0058"/>
	<advance width="1368"/>
	<outline>
		<contour>
			<point x="-45" y="0" type="line"/>
			<point x="491.4" y="837.2" type="line"/>
			<point x="581" y="837.2" type="line"/>
			<point x="938.4" y="1456" type="line"/>
			<point x="1350.4" y="1456" type="line"/>
			<point x="862.4" y="655" type="line"/>
			<point x="774" y="655" type="line"/>
			<point x="389.8" y="0" type="line"/>
		</contour>
		<contour>
			<point x="-26.4" y="1456" type="line"/>
			<point x="482.2" y="1453" type="line"/>
			<point x="858.4" y="845" type="line"/>
			<point x="853.2" y="845" type="line"/>
			<point x="1413" y="0" type="line"/>
			<point x="892.4" y="0" type="line"/>
			<point x="504.6" y="632.6" type="line"/>
			<point x="510.8" y="632.6" type="line"/>
		</contour>
	</outline>
	<anchor name="bottom" x="619" y="0"/>
	<anchor name="top" x="619" y="1456"/>
</glyph>
<glyph name="Y" format="2">
  <advance width="1316"/>
  <unicode hex="0059"/>
  <outline>
    <contour>
      <point x="454.8" y="0.0" type="line"/>
      <point x="454.8" y="481.8" type="line"/>
      <point x="-56.2" y="1456.0" type="line"/>
      <point x="424.2" y="1456.0" type="line"/>
      <point x="652.8" y="993.8" type="line" smooth="yes"/>
      <point x="665.6" y="967.0"/>
      <point x="682.2" y="907.8"/>
      <point x="690.0" y="879.2" type="qcurve"/>
      <point x="698.0" y="879.2" type="line"/>
      <point x="705.8" y="907.8"/>
      <point x="722.2" y="965.8"/>
      <point x="736.2" y="993.8" type="qcurve" smooth="yes"/>
      <point x="973.4" y="1456.0" type="line"/>
      <point x="1372.2" y="1456.0" type="line"/>
      <point x="889.2" y="520.8" type="line"/>
      <point x="889.2" y="0.0" type="line"/>
    </contour>
  </outline>
</glyph>
<glyph name="Z" format="2">
	<unicode hex="005A"/>
	<advance width="1325"/>
	<outline>
		<contour>
			<point x="62.4" y="0" type="line"/>
			<point x="62.4" y="264.4" type="line"/>
			<point x="648.8" y="1135.4" type="line"/>
			<point x="75.4" y="1135.4" type="line"/>
			<point x="75.4" y="1456" type="line"/>
			<point x="1221.6" y="1456" type="line"/>
			<point x="1223.6" y="1159.6" type="line"/>
			<point x="635.2" y="318.6" type="line"/>
			<point x="1244.6" y="318.6" type="line"/>
			<point x="1244.6" y="0" type="line"/>
		</contour>
	</outline>
	<anchor name="bottom" x="595.5" y="0"/>
	<anchor name="top" x="595.5" y="1456"/>
</glyph>
<glyph name="bracketleft" format="2">
	<unicode hex="005B"/>
	<advance width="780"/>
	<outline>
		<contour>
			<point x="132.3846153846" y="-310" type="line"/>
			<point x="132.3846153846" y="1456" type="line"/>
			<point x="705.7095618306" y="1456" type="line"/>
			<point x="705.7095618306" y="1156.0307692308" type="line"/>
			<point x="545.7941772152" y="1156.0307692308" type="line"/>
			<point x="545.7941772152" y="-10.030769230800006" type="line"/>
			<point x="705.7095618306" y="-10.030769230800006" type="line"/>
			<point x="705.7095618306" y="-310" type="line"/>
		</contour>
	</outline>
</glyph>
<glyph name="backslash" format="2">
	<unicode hex="005C"/>
	<advance width="619"/>
	<outline>
		<contour>
			<point x="-119.9538461538" y="1456" type="line"/>
			<point x="224.15306718600002" y="1456" type="line"/>
			<point x="737.1530671859999" y="-125" type="line"/>
			<point x="393.6076923077" y="-125" type="line"/>
		</contour>
	</outline>
</glyph>
<glyph name="bracketright" format="2">
  <advance width="780"/>
  <unicode hex="005D"/>
  <outline>
    <contour>
      <point x="647.8407205453" y="-310.0" type="line"/>
      <point x="74.5157740993" y="-310.0" type="line"/>
      <point x="74.5157740993" y="-10.030769230800006" type="line"/>
      <point x="234.43115871470002" y="-10.030769230800006" type="line"/>
      <point x="234.43115871470002" y="1156.0307692308" type="line"/>
      <point x="74.5157740993" y="1156.0307692308" type="line"/>
      <point x="74.5157740993" y="1456.0" type="line"/>
      <point x="647.8407205453" y="1456.0" type="line"/>
    </contour>
  </outline>
</glyph>
<glyph name="asciicircum" format="2">
  <advance width="1204.0"/>
  <unicode hex="005E"/>
  <outline>
    <contour>
      <point x="-23.661538461499998" y="720.0" type="line"/>
      <point x="382.73846153849996" y="1456.0" type="line"/>
      <point x="825.4753651412" y="1456.0" type="line"/>
      <point x="1230.8753651412" y="720.0" type="line"/>
      <point x="712.1384615385" y="720.0" type="line"/>
      <point x="604.0453748783" y="1051.2076923077" type="line"/>
      <point x="495.0753651412" y="720.0" type="line"/>
    </contour>
  </outline>
</glyph>
<glyph name="underscore" format="2">
  <advance width="832"/>
  <unicode hex="005F"/>
  <outline>
    <contour>
      <point x="0.0" y="-380.9076923077" type="line"/>
      <point x="0.0" y="-88.9846153846" type="line"/>
      <point x="831.6307692308" y="-88.9846153846" type="line"/>
      <point x="831.6307692308" y="-380.9076923077" type="line"/>
    </contour>
  </outline>
</glyph>
<glyph name="grave" format="2">
	<unicode hex="0060"/>
	<advance width="1024"/>
	<outline>
		<contour>
			<point x="576.2" y="1217" type="line"/>
			<point x="230" y="1553.8" type="line"/>
			<point x="534.8" y="1732.6" type="line"/>
			<point x="809.8" y="1376.4" type="line"/>
		</contour>
	</outline>
</glyph>
<glyph name="a" format="2">
	<unicode hex="0061"/>
	<advance width="1279"/>
	<outline>
		<contour>
			<point x="61" y="311" type="qcurve" smooth="yes"/>
			<point x="61" y="506.6"/>
			<point x="357" y="683.4"/>
			<point x="572.8" y="684.4" type="qcurve" smooth="yes"/>
			<point x="734.4" y="684.4" type="line"/>
			<point x="734.4" y="728" type="line" smooth="yes"/>
			<point x="734.4" y="769.4"/>
			<point x="688.2" y="820.6"/>
			<point x="628.8" y="820.6" type="qcurve" smooth="yes"/>
			<point x="571" y="820.6"/>
			<point x="520.6" y="780.4"/>
			<point x="520.6" y="742.8" type="qcurve" smooth="yes"/>
			<point x="520.6" y="712.8" type="line"/>
			<point x="107.4" y="712.8" type="line"/>
			<point x="107.4" y="742.8" type="line" smooth="yes"/>
			<point x="107.4" y="904.4"/>
			<point x="420.2" y="1088"/>
			<point x="649.6" y="1088" type="qcurve" smooth="yes"/>
			<point x="881" y="1088"/>
			<point x="1154.4" y="916"/>
			<point x="1154.4" y="725" type="qcurve" smooth="yes"/>
			<point x="1154.4" y="233" type="line" smooth="yes"/>
			<point x="1154.4" y="170"/>
			<point x="1183.2" y="52"/>
			<point x="1205.2" y="16" type="qcurve"/>
			<point x="1205.2" y="0" type="line"/>
			<point x="789" y="0" type="line"/>
			<point x="780.6" y="20.4"/>
			<point x="766.4" y="90.2"/>
			<point x="762.4" y="120.2" type="qcurve"/>
			<point x="741.2" y="67.4"/>
			<point x="555.2" y="-19"/>
			<point x="432" y="-19" type="qcurve" smooth="yes"/>
			<point x="275" y="-19"/>
			<point x="61" y="140"/>
		</contour>
		<contour>
			<point x="483.6" y="353.8" type="qcurve" smooth="yes"/>
			<point x="483.6" y="309.6"/>
			<point x="536.6" y="246.2"/>
			<point x="595.8" y="246.2" type="qcurve" smooth="yes"/>
			<point x="668.6" y="246.2"/>
			<point x="734.4" y="323.8"/>
			<point x="734.4" y="403.6" type="qcurve"/>
			<point x="734.4" y="446.4" type="line"/>
			<point x="634.2" y="446.4" type="line" smooth="yes"/>
			<point x="555.8" y="446.4"/>
			<point x="483.6" y="402.8"/>
		</contour>
	</outline>
	<anchor name="bottom" x="639.5" y="0"/>
	<anchor name="ogonek" x="918" y="0"/>
	<anchor name="top" x="639.5" y="1058.4116923077"/>
</glyph>
<glyph name="b" format="2">
	<unicode hex="0062"/>
	<advance width="1309"/>
	<outline>
		<contour>
			<point x="108" y="0" type="line"/>
			<point x="108" y="1526" type="line"/>
			<point x="528" y="1526" type="line"/>
			<point x="528" y="969.4" type="line"/>
			<point x="579.2" y="1026.6"/>
			<point x="727" y="1080"/>
			<point x="808.6" y="1080" type="qcurve" smooth="yes"/>
			<point x="1014.8" y="1080"/>
			<point x="1252" y="789"/>
			<point x="1252" y="547" type="qcurve" smooth="yes"/>
			<point x="1252" y="515" type="line" smooth="yes"/>
			<point x="1252" y="270"/>
			<point x="1011.8" y="-20"/>
			<point x="807.6" y="-20" type="qcurve" smooth="yes"/>
			<point x="723.8" y="-20"/>
			<point x="549.4" y="41.4"/>
			<point x="525.2" y="96.6" type="qcurve"/>
			<point x="520.2" y="96.6" type="line"/>
			<point x="515.4" y="0" type="line"/>
		</contour>
		<contour>
			<point x="528" y="409.8" type="line"/>
			<point x="541.6" y="361.4"/>
			<point x="619.4" y="290.4"/>
			<point x="686.4" y="290.4" type="qcurve" smooth="yes"/>
			<point x="751" y="290.4"/>
			<point x="821.4" y="389.6"/>
			<point x="821.4" y="485" type="qcurve" smooth="yes"/>
			<point x="821.4" y="574" type="line" smooth="yes"/>
			<point x="821.4" y="669.4"/>
			<point x="753" y="767.6"/>
			<point x="682.4" y="767.6" type="qcurve" smooth="yes"/>
			<point x="621.4" y="767.6"/>
			<point x="541.6" y="696.6"/>
			<point x="528" y="649.2" type="qcurve"/>
		</contour>
	</outline>
	<anchor name="bottom" x="654.5" y="0"/>
	<anchor name="top" x="654.5" y="961.6116923077"/>
</glyph>
<glyph name="c" format="2">
	<unicode hex="0063"/>
	<advance width="1205"/>
	<outline>
		<contour>
			<point x="58" y="514" type="qcurve" smooth="yes"/>
			<point x="58" y="546" type="line" smooth="yes"/>
			<point x="58" y="809"/>
			<point x="391.6" y="1089"/>
			<point x="648.4" y="1089" type="qcurve" smooth="yes"/>
			<point x="897" y="1089"/>
			<point x="1162.8" y="856.8"/>
			<point x="1182" y="681" type="qcurve" smooth="yes"/>
			<point x="1185.4" y="645.4" type="line"/>
			<point x="773.8" y="645.4" type="line"/>
			<point x="773.6" y="669.6" type="line" smooth="yes"/>
			<point x="773" y="728.6"/>
			<point x="700.4" y="787.8"/>
			<point x="643.4" y="787.8" type="qcurve" smooth="yes"/>
			<point x="575" y="787.8"/>
			<point x="488.4" y="691.8"/>
			<point x="488.4" y="579" type="qcurve" smooth="yes"/>
			<point x="488.4" y="481" type="line" smooth="yes"/>
			<point x="488.4" y="367.2"/>
			<point x="568" y="270.2"/>
			<point x="642.4" y="270.2" type="qcurve" smooth="yes"/>
			<point x="718.4" y="270.2"/>
			<point x="772.6" y="344.4"/>
			<point x="772.6" y="393.4" type="qcurve" smooth="yes"/>
			<point x="772.6" y="412.6" type="line"/>
			<point x="1183" y="412.6" type="line"/>
			<point x="1183" y="390.4" type="line" smooth="yes"/>
			<point x="1183" y="215.6"/>
			<point x="898" y="-30"/>
			<point x="648.4" y="-30" type="qcurve" smooth="yes"/>
			<point x="392.6" y="-30"/>
			<point x="58" y="251"/>
		</contour>
	</outline>
	<anchor name="bottom" x="643.2" y="0"/>
	<anchor name="top" x="643.2" y="1058"/>
</glyph>
<glyph name="d" format="2">
  <advance width="1309"/>
  <unicode hex="0064"/>
  <outline>
    <contour>
      <point x="57.7692307692" y="513.3289230769" type="qcurve" smooth="yes"/>
      <point x="57.7692307692" y="545.3289230769" type="line" smooth="yes"/>
      <point x="58.0" y="787.0"/>
      <point x="330.585647517" y="1078.4116923077"/>
      <point x="537.2652190847" y="1078.4116923077" type="qcurve" smooth="yes"/>
      <point x="621.7291100292" y="1078.4116923077"/>
      <point x="753.7067692308" y="1017.6116923077001"/>
      <point x="783.7587536514" y="970.4270769231" type="qcurve"/>
      <point x="783.7587536514" y="1526.4" type="line"/>
      <point x="1201.6154001947" y="1526.4" type="line"/>
      <point x="1201.6154001947" y="0.0" type="line"/>
      <point x="794.6818305744999" y="0.0" type="line"/>
      <point x="789.743369036" y="102.9538461538" type="line"/>
      <point x="785.9972151899" y="102.9538461538" type="line"/>
      <point x="761.0673768257" y="46.5076923077"/>
      <point x="624.0060331061" y="-20.0"/>
      <point x="539.6652190847" y="-20.0" type="qcurve" smooth="yes"/>
      <point x="307.1702629017" y="-20.0"/>
      <point x="58.0" y="272.0"/>
    </contour>
    <contour>
      <point x="487.4" y="484.0" type="line" smooth="yes"/>
      <point x="487.4" y="386.6"/>
      <point x="574.6" y="290.4"/>
      <point x="641.2" y="290.4" type="qcurve" smooth="yes"/>
      <point x="691.0" y="290.4"/>
      <point x="763.0" y="344.4"/>
      <point x="782.0" y="389.8" type="qcurve"/>
      <point x="782.0" y="669.2" type="line"/>
      <point x="765.0" y="719.0"/>
      <point x="703.0" y="768.6"/>
      <point x="643.2" y="768.6" type="qcurve" smooth="yes"/>
      <point x="578.6" y="768.6"/>
      <point x="487.4" y="672.0"/>
      <point x="487.4" y="574.0" type="qcurve" smooth="yes"/>
    </contour>
  </outline>
</glyph>
<glyph name="e" format="2">
	<unicode hex="0065"/>
	<advance width="1210"/>
	<outline>
		<contour>
			<point x="59" y="514" type="qcurve" smooth="yes"/>
			<point x="59" y="546" type="line" smooth="yes"/>
			<point x="59" y="797"/>
			<point x="391.2" y="1089"/>
			<point x="632.8" y="1089" type="qcurve" smooth="yes"/>
			<point x="877.6" y="1089"/>
			<point x="1177" y="814"/>
			<point x="1176.6" y="563" type="qcurve" smooth="yes"/>
			<point x="1176.6" y="420" type="line"/>
			<point x="358.4" y="420" type="line"/>
			<point x="358.4" y="650.4" type="line"/>
			<point x="764.6" y="650.4" type="line"/>
			<point x="764.6" y="669.2" type="line" smooth="yes"/>
			<point x="765.6" y="728.2"/>
			<point x="690.6" y="802"/>
			<point x="622.2" y="802" type="qcurve" smooth="yes"/>
			<point x="553.8" y="802"/>
			<point x="469" y="699.4"/>
			<point x="469" y="578" type="qcurve" smooth="yes"/>
			<point x="469" y="483" type="line" smooth="yes"/>
			<point x="469" y="368.6"/>
			<point x="567" y="268"/>
			<point x="641.2" y="268" type="qcurve" smooth="yes"/>
			<point x="706" y="268"/>
			<point x="808" y="347.6"/>
			<point x="839.4" y="395.2" type="qcurve"/>
			<point x="1145.4" y="208.2" type="line"/>
			<point x="1095.2" y="87.4"/>
			<point x="822.6" y="-31.2"/>
			<point x="650.8" y="-31.2" type="qcurve" smooth="yes"/>
			<point x="386" y="-31.2"/>
			<point x="59" y="262"/>
		</contour>
	</outline>
	<anchor name="bottom" x="639" y="-1"/>
	<anchor name="ogonek" x="783" y="0"/>
	<anchor name="top" x="629" y="1058"/>
</glyph>
<glyph name="f" format="2">
	<unicode hex="0066"/>
	<advance width="680"/>
	<outline>
		<contour>
			<point x="125.5384615385" y="0" type="line"/>
			<point x="125.5384615385" y="1068.6461538462" type="line" smooth="yes"/>
			<point x="125.6" y="1312.2"/>
			<point x="398.2" y="1546"/>
			<point x="588.8" y="1546" type="qcurve" smooth="yes"/>
			<point x="636.2" y="1546"/>
			<point x="710.5489542355999" y="1537.6307692307998"/>
			<point x="736.7489542356" y="1528.5076923077" type="qcurve"/>
			<point x="728.5258773126" y="1231.2153846154" type="line"/>
			<point x="711.4489542355999" y="1236.3692307692002"/>
			<point x="676.1951080818" y="1242.2461538462"/>
			<point x="653.2874157741" y="1242.2461538462" type="qcurve" smooth="yes"/>
			<point x="603.9383288898" y="1242.2461538462"/>
			<point x="543.3951080818" y="1150.0769230769"/>
			<point x="543.3951080818" y="1055.7230769231" type="qcurve" smooth="yes"/>
			<point x="543.3951080818" y="931.0963076923" type="line"/>
			<point x="544.6258773126" y="910.6963076923" type="line"/>
			<point x="544.6258773126" y="0" type="line"/>
		</contour>
		<contour>
			<point x="22.4153846154" y="753.2578461538001" type="line"/>
			<point x="22.4153846154" y="1058.4116923077" type="line"/>
			<point x="288.0283232717" y="1058.4116923077" type="line"/>
			<point x="318.120630964" y="1058.4116923077" type="line"/>
			<point x="686.3797234663999" y="1058.4116923077" type="line"/>
			<point x="686.3797234663999" y="753.2578461538001" type="line"/>
		</contour>
	</outline>
	<anchor name="bottom" x="340" y="0"/>
	<anchor name="top" x="340" y="1546"/>
</glyph>
<glyph name="g" format="2">
  <advance width="1309"/>
  <unicode hex="0067"/>
  <outline>
    <contour>
      <point x="147.6" y="-292.0" type="qcurve"/>
      <point x="291.0" y="-59.8" type="line"/>
      <point x="319.8" y="-82.8"/>
      <point x="490.8" y="-143.0"/>
      <point x="588.4" y="-143.0" type="qcurve" smooth="yes"/>
      <point x="667.2" y="-143.0"/>
      <point x="783.0" y="-25.0"/>
      <point x="783.0" y="110.0" type="qcurve" smooth="yes"/>
      <point x="783.0" y="90.6" type="line"/>
      <point x="752.6" y="34.4"/>
      <point x="612.4" y="-19.0"/>
      <point x="524.6" y="-19.0" type="qcurve" smooth="yes"/>
      <point x="319.4" y="-19.0"/>
      <point x="58.0" y="262.0"/>
      <point x="58.0" y="513.0" type="qcurve" smooth="yes"/>
      <point x="58.0" y="545.0" type="line" smooth="yes"/>
      <point x="58.0" y="797.0"/>
      <point x="317.6" y="1078.0"/>
      <point x="524.8" y="1078.0" type="qcurve" smooth="yes"/>
      <point x="607.6" y="1078.0"/>
      <point x="758.4" y="1013.6"/>
      <point x="782.8" y="956.4" type="qcurve"/>
      <point x="787.6" y="956.4" type="line"/>
      <point x="792.4" y="1058.0" type="line"/>
      <point x="1201.0" y="1058.0" type="line"/>
      <point x="1201.0" y="126.0" type="line" smooth="yes"/>
      <point x="1201.0" y="-146.4"/>
      <point x="858.8" y="-438.0"/>
      <point x="615.6" y="-438.0" type="qcurve" smooth="yes"/>
      <point x="469.4" y="-438.0"/>
      <point x="221.6" y="-354.2"/>
    </contour>
    <contour>
      <point x="487.4" y="484.0" type="line" smooth="yes"/>
      <point x="487.4" y="388.6"/>
      <point x="572.6" y="290.4"/>
      <point x="650.0" y="290.4" type="qcurve" smooth="yes"/>
      <point x="697.0" y="290.4"/>
      <point x="768.2" y="355.4"/>
      <point x="782.0" y="396.8" type="qcurve"/>
      <point x="782.0" y="649.2" type="line"/>
      <point x="765.0" y="714.6"/>
      <point x="691.0" y="768.6"/>
      <point x="640.2" y="768.6" type="qcurve" smooth="yes"/>
      <point x="571.6" y="768.6"/>
      <point x="487.4" y="669.4"/>
      <point x="487.4" y="574.0" type="qcurve" smooth="yes"/>
    </contour>
  </outline>
</glyph>
<glyph name="h" format="2">
	<unicode hex="0068"/>
	<advance width="1284"/>
	<outline>
		<contour>
			<point x="108" y="0" type="line"/>
			<point x="108" y="1526" type="line"/>
			<point x="527" y="1526" type="line"/>
			<point x="527" y="912.4" type="line"/>
			<point x="562.6" y="983.6"/>
			<point x="700.6" y="1080"/>
			<point x="826.8" y="1079.6" type="qcurve" smooth="yes"/>
			<point x="981.6" y="1080"/>
			<point x="1176.8" y="882.8"/>
			<point x="1176" y="664.8" type="qcurve" smooth="yes"/>
			<point x="1176" y="0" type="line"/>
			<point x="756" y="0" type="line"/>
			<point x="756" y="628.8" type="line" smooth="yes"/>
			<point x="756" y="706.8"/>
			<point x="691.6" y="766.2"/>
			<point x="645.6" y="766.2" type="qcurve" smooth="yes"/>
			<point x="597.2" y="766.2"/>
			<point x="539.6" y="707.8"/>
			<point x="528" y="644.8" type="qcurve"/>
			<point x="528" y="0" type="line"/>
		</contour>
	</outline>
	<anchor name="bottom" x="642" y="0"/>
	<anchor name="center" x="351" y="1303"/>
	<anchor name="top" x="317" y="1526"/>
</glyph>
<glyph name="i" format="2">
	<unicode hex="0069"/>
	<advance width="629"/>
	<outline>
		<contour>
			<point x="104" y="0" type="line"/>
			<point x="104" y="1058" type="line"/>
			<point x="526" y="1058" type="line"/>
			<point x="526" y="0" type="line"/>
		</contour>
		<contour>
			<point x="75.4" y="1321.2" type="qcurve" smooth="yes"/>
			<point x="75.4" y="1412"/>
			<point x="199.8" y="1536"/>
			<point x="315" y="1536" type="qcurve" smooth="yes"/>
			<point x="430.2" y="1536"/>
			<point x="554.6" y="1412"/>
			<point x="554.6" y="1321.2" type="qcurve" smooth="yes"/>
			<point x="554.6" y="1229.2"/>
			<point x="430.2" y="1104.2"/>
			<point x="314" y="1104.2" type="qcurve" smooth="yes"/>
			<point x="198.8" y="1104.2"/>
			<point x="75.4" y="1229.2"/>
		</contour>
	</outline>
	<anchor name="bottom" x="314.5" y="0"/>
	<anchor name="top" x="314.5" y="1058.4116923077"/>
	<anchor name="ogonek" x="224" y="0"/>
</glyph>
<glyph name="j" format="2">
	<unicode hex="006A"/>
	<advance width="635"/>
	<outline>
		<contour>
			<point x="-72.2" y="-411" type="qcurve"/>
			<point x="-74.2" y="-113.2" type="line"/>
			<point x="-60.6" y="-120"/>
			<point x="11.8" y="-133.2"/>
			<point x="43.4" y="-133.2" type="qcurve" smooth="yes"/>
			<point x="85.8" y="-133.2"/>
			<point x="121" y="-63.2"/>
			<point x="121" y="20.8" type="qcurve" smooth="yes"/>
			<point x="121" y="1058" type="line"/>
			<point x="542" y="1058" type="line"/>
			<point x="542" y="-36" type="line" smooth="yes"/>
			<point x="542" y="-226"/>
			<point x="304.4" y="-436"/>
			<point x="107.8" y="-436" type="qcurve" smooth="yes"/>
			<point x="75.6" y="-436"/>
			<point x="-53.4" y="-421.2"/>
		</contour>
		<contour>
			<point x="91.4" y="1321.2" type="qcurve" smooth="yes"/>
			<point x="91.4" y="1412"/>
			<point x="215.8" y="1536"/>
			<point x="332" y="1536" type="qcurve" smooth="yes"/>
			<point x="447.2" y="1536"/>
			<point x="570.6" y="1412"/>
			<point x="570.6" y="1321.2" type="qcurve" smooth="yes"/>
			<point x="570.6" y="1229.2"/>
			<point x="446.2" y="1104.2"/>
			<point x="331" y="1104.2" type="qcurve" smooth="yes"/>
			<point x="215.8" y="1104.2"/>
			<point x="91.4" y="1229.2"/>
		</contour>
	</outline>
	<anchor name="bottom" x="317.5" y="-436"/>
	<anchor name="top" x="317.5" y="1058.4116923077"/>
</glyph>
<glyph name="k" format="2">
	<unicode hex="006B"/>
	<advance width="1202"/>
	<outline>
		<contour>
			<point x="108" y="0" type="line"/>
			<point x="108" y="1526" type="line"/>
			<point x="528" y="1526" type="line"/>
			<point x="528" y="808.6" type="line"/>
			<point x="756" y="1059" type="line"/>
			<point x="1215.8" y="1059" type="line"/>
			<point x="528" y="319.2" type="line"/>
			<point x="528" y="0" type="line"/>
		</contour>
		<contour>
			<point x="755" y="0" type="line"/>
			<point x="442.6" y="436.4" type="line"/>
			<point x="713.2" y="738" type="line"/>
			<point x="1251" y="0" type="line"/>
		</contour>
	</outline>
	<anchor name="bottom" x="612" y="0"/>
	<anchor name="top" x="612" y="1526"/>
</glyph>
<glyph name="l" format="2">
  <advance width="627.0"/>
  <unicode hex="006C"/>
  <anchor x="313.5" y="0.0" name="bottom"/>
  <anchor x="313.5" y="728.0" name="center"/>
  <anchor x="314.0" y="1526.0" name="top"/>
  <anchor x="448.0" y="1058.0" name="topright"/>
  <outline>
    <contour>
      <point x="103.0" y="0.0" type="line"/>
      <point x="103.0" y="1526.0" type="line"/>
      <point x="524.0" y="1526.0" type="line"/>
      <point x="524.0" y="0.0" type="line"/>
    </contour>
  </outline>
</glyph>
<glyph name="m" format="2">
  <advance width="1931"/>
  <unicode hex="006D"/>
  <outline>
    <contour>
      <point x="108.0" y="0.0" type="line"/>
      <point x="108.0" y="1058.0" type="line"/>
      <point x="515.4" y="1058.0" type="line"/>
      <point x="520.2" y="955.0" type="line"/>
      <point x="526.2" y="955.0" type="line"/>
      <point x="561.2" y="1019.4"/>
      <point x="717.6" y="1079.0"/>
      <point x="796.2" y="1079.0" type="qcurve" smooth="yes"/>
      <point x="909.6" y="1079.0"/>
      <point x="1083.4" y="976.0"/>
      <point x="1117.8" y="891.8" type="qcurve"/>
      <point x="1119.4" y="891.8" type="line"/>
      <point x="1157.4" y="976.2"/>
      <point x="1374.0" y="1079.0"/>
      <point x="1473.8" y="1079.0" type="qcurve" smooth="yes"/>
      <point x="1625.2" y="1079.0"/>
      <point x="1832.0" y="857.4"/>
      <point x="1832.0" y="598.2" type="qcurve" smooth="yes"/>
      <point x="1832.0" y="0.0" type="line"/>
      <point x="1411.0" y="0.0" type="line"/>
      <point x="1411.0" y="632.2" type="line" smooth="yes"/>
      <point x="1411.0" y="693.6"/>
      <point x="1365.4" y="765.2"/>
      <point x="1315.4" y="766.2" type="qcurve" smooth="yes"/>
      <point x="1270.2" y="767.2"/>
      <point x="1198.4" y="715.8"/>
      <point x="1180.0" y="660.2" type="qcurve"/>
      <point x="1180.0" y="0.0" type="line"/>
      <point x="759.0" y="0.0" type="line"/>
      <point x="759.0" y="626.2" type="line" smooth="yes"/>
      <point x="759.0" y="692.6"/>
      <point x="709.6" y="766.2"/>
      <point x="655.4" y="766.2" type="qcurve" smooth="yes"/>
      <point x="611.4" y="766.2"/>
      <point x="545.6" y="719.8"/>
      <point x="528.0" y="660.2" type="qcurve"/>
      <point x="528.0" y="0.0" type="line"/>
    </contour>
  </outline>
</glyph>
<glyph name="n" format="2">
  <advance width="1284"/>
  <unicode hex="006E"/>
  <outline>
    <contour>
      <point x="108.0" y="0.0" type="line"/>
      <point x="108.0" y="1058.0" type="line"/>
      <point x="516.4" y="1058.0" type="line"/>
      <point x="521.2" y="959.6" type="line"/>
      <point x="526.2" y="959.6" type="line"/>
      <point x="545.8" y="1006.0"/>
      <point x="703.8" y="1081.2"/>
      <point x="797.0" y="1081.2" type="qcurve" smooth="yes"/>
      <point x="961.4" y="1081.2"/>
      <point x="1186.0" y="894.8"/>
      <point x="1186.0" y="637.8" type="qcurve" smooth="yes"/>
      <point x="1186.0" y="0.0" type="line"/>
      <point x="766.0" y="0.0" type="line"/>
      <point x="766.0" y="656.8" type="line" smooth="yes"/>
      <point x="766.0" y="724.4"/>
      <point x="713.0" y="766.2"/>
      <point x="663.8" y="766.2" type="qcurve" smooth="yes"/>
      <point x="629.6" y="766.2"/>
      <point x="545.2" y="718.2"/>
      <point x="528.0" y="663.8" type="qcurve"/>
      <point x="528.0" y="0.0" type="line"/>
    </contour>
  </outline>
</glyph>
<glyph name="o" format="2">
	<unicode hex="006F"/>
	<advance width="1302"/>
	<outline>
		<contour>
			<point x="58" y="514" type="qcurve" smooth="yes"/>
			<point x="58" y="546" type="line" smooth="yes"/>
			<point x="58" y="806"/>
			<point x="395" y="1089"/>
			<point x="651" y="1089" type="qcurve" smooth="yes"/>
			<point x="907" y="1089"/>
			<point x="1244" y="806.0173071163"/>
			<point x="1244" y="546" type="qcurve" smooth="yes"/>
			<point x="1244" y="514" type="line" smooth="yes"/>
			<point x="1244" y="254"/>
			<point x="907" y="-30"/>
			<point x="651" y="-30" type="qcurve" smooth="yes"/>
			<point x="395" y="-30"/>
			<point x="58" y="254"/>
		</contour>
		<contour>
			<point x="488.4" y="579" type="qcurve" smooth="yes"/>
			<point x="488.4" y="481" type="line" smooth="yes"/>
			<point x="488.4" y="352.6"/>
			<point x="581.2" y="282.4"/>
			<point x="651" y="282.4" type="qcurve" smooth="yes"/>
			<point x="720.8" y="282.4"/>
			<point x="812.6" y="352.6"/>
			<point x="812.6" y="481" type="qcurve" smooth="yes"/>
			<point x="812.6" y="579" type="line" smooth="yes"/>
			<point x="812.6" y="706.4"/>
			<point x="715.8" y="776.6"/>
			<point x="651" y="776.6" type="qcurve" smooth="yes"/>
			<point x="585.2" y="776.6"/>
			<point x="488.4" y="706.4"/>
		</contour>
	</outline>
	<anchor name="bottom" x="651" y="0"/>
	<anchor name="center" x="651" y="728"/>
	<anchor name="ogonek" x="749" y="0"/>
	<anchor name="top" x="651" y="1058.4116923077"/>
	<anchor name="topright" x="923" y="1058"/>
</glyph>
<glyph name="p" format="2">
	<unicode hex="0070"/>
	<advance width="1309"/>
	<outline>
		<contour>
			<point x="108" y="-416" type="line"/>
			<point x="108" y="1058" type="line"/>
			<point x="507" y="1058" type="line"/>
			<point x="511.8" y="960.4" type="line"/>
			<point x="516.8" y="960.4" type="line"/>
			<point x="540" y="1015.6"/>
			<point x="700.8" y="1080"/>
			<point x="784.6" y="1080" type="qcurve" smooth="yes"/>
			<point x="990.8" y="1080"/>
			<point x="1251" y="801"/>
			<point x="1251" y="546" type="qcurve" smooth="yes"/>
			<point x="1251" y="514" type="line" smooth="yes"/>
			<point x="1251" y="261"/>
			<point x="1001.8" y="-20"/>
			<point x="807.6" y="-20" type="qcurve" smooth="yes"/>
			<point x="725" y="-20"/>
			<point x="557.2" y="30.4"/>
			<point x="528" y="83.6" type="qcurve"/>
			<point x="528" y="-416" type="line"/>
		</contour>
		<contour>
			<point x="528" y="398.8" type="line"/>
			<point x="541.6" y="352.4"/>
			<point x="635.4" y="290.4"/>
			<point x="686.4" y="290.4" type="qcurve" smooth="yes"/>
			<point x="750" y="290.4"/>
			<point x="821.4" y="365.6"/>
			<point x="821.4" y="481" type="qcurve" smooth="yes"/>
			<point x="821.4" y="578" type="line" smooth="yes"/>
			<point x="821.4" y="693.8"/>
			<point x="750" y="768.6"/>
			<point x="683.4" y="768.6" type="qcurve" smooth="yes"/>
			<point x="625.4" y="768.6"/>
			<point x="546.6" y="711.6"/>
			<point x="528" y="669.2" type="qcurve"/>
		</contour>
	</outline>
	<anchor name="bottom" x="654.5" y="0"/>
	<anchor name="top" x="654.5" y="1058.4116923077"/>
</glyph>
<glyph name="q" format="2">
  <advance width="1309"/>
  <unicode hex="0071"/>
  <anchor x="654.5" y="0" name="bottom"/>
  <anchor x="654.5" y="1058.4116923077" name="top"/>
  <outline>
    <contour>
      <point x="57.7692307692" y="513.0307692308" type="qcurve" smooth="yes"/>
      <point x="57.7692307692" y="545.0307692308" type="line" smooth="yes"/>
      <point x="58.0" y="797.0"/>
      <point x="330.49795520929996" y="1078.6923076923"/>
      <point x="525.0021421616" y="1078.6923076923" type="qcurve" smooth="yes"/>
      <point x="626.3964946446" y="1078.6923076923"/>
      <point x="754.0732229796" y="1015.2307692308"/>
      <point x="786.3310613437" y="959.3076923077" type="qcurve"/>
      <point x="789.5156767283" y="959.3076923077" type="line"/>
      <point x="794.4541382668" y="1058.6923076923" type="line"/>
      <point x="1201.299707887" y="1058.6923076923" type="line"/>
      <point x="1201.299707887" y="-416.2461538462" type="line"/>
      <point x="783.2849074976" y="-416.2461538462" type="line"/>
      <point x="783.2849074976" y="91.6424537488" type="line"/>
      <point x="783.7772151899" y="91.5538461538" type="line"/>
      <point x="753.3384615385" y="35.1076923077"/>
      <point x="635.1041869523" y="-20.0"/>
      <point x="526.2021421615999" y="-20.0" type="qcurve" smooth="yes"/>
      <point x="319.082570594" y="-20.0"/>
      <point x="58.0" y="262.0"/>
    </contour>
    <contour>
      <point x="487.4" y="484.0" type="line" smooth="yes"/>
      <point x="487.4" y="375.4"/>
      <point x="564.6" y="290.4"/>
      <point x="627.2" y="290.4" type="qcurve" smooth="yes"/>
      <point x="682.4" y="290.4"/>
      <point x="767.2" y="346.4"/>
      <point x="782.0" y="399.8" type="qcurve"/>
      <point x="782.0" y="669.2" type="line"/>
      <point x="767.2" y="711.6"/>
      <point x="685.4" y="768.6"/>
      <point x="627.2" y="768.6" type="qcurve" smooth="yes"/>
      <point x="564.6" y="768.6"/>
      <point x="487.4" y="681.4"/>
      <point x="487.4" y="574.0" type="qcurve" smooth="yes"/>
    </contour>
  </outline>
</glyph>
<glyph name="r" format="2">
	<unicode hex="0072"/>
	<advance width="786"/>
	<outline>
		<contour>
			<point x="108" y="0" type="line"/>
			<point x="108" y="1058.4116923077" type="line"/>
			<point x="517.9181850049" y="1058.4116923077" type="line"/>
			<point x="522.8566465433" y="967.0116923077001" type="line"/>
			<point x="527.8028003895" y="967.0116923077001" type="line"/>
			<point x="548.1040691364001" y="1016.7178890039"/>
			<point x="640.1104926972" y="1086.1963076923"/>
			<point x="685.0335696203" y="1086.1963076923" type="qcurve" smooth="yes"/>
			<point x="705.8335696203001" y="1086.1963076923"/>
			<point x="741.8489542356" y="1077.1193846154"/>
			<point x="750.7335696203" y="1072.9193846153998" type="qcurve"/>
			<point x="750.7335696203" y="713.5655384615001" type="line"/>
			<point x="732.7258773126" y="719.2270769231"/>
			<point x="698.8489542356" y="723.8424615385"/>
			<point x="677.9181850049" y="723.8424615385" type="qcurve" smooth="yes"/>
			<point x="635.9659449372" y="723.8424615385"/>
			<point x="547.1364503317001" y="658.7717762174"/>
			<point x="530.164338851" y="606.3963076923001" type="qcurve"/>
			<point x="530.164338851" y="0" type="line"/>
		</contour>
	</outline>
	<anchor name="bottom" x="353" y="0"/>
	<anchor name="top" x="433" y="1058"/>
</glyph>
<glyph name="s" format="2">
  <advance width="1160"/>
  <unicode hex="0073"/>
  <outline>
    <contour>
      <point x="44.0" y="360.4" type="line"/>
      <point x="454.0" y="358.4" type="line"/>
      <point x="454.0" y="327.2" type="line" smooth="yes"/>
      <point x="454.0" y="273.4"/>
      <point x="514.0" y="235.0"/>
      <point x="572.8" y="235.0" type="qcurve" smooth="yes"/>
      <point x="632.6" y="235.0"/>
      <point x="677.8" y="273.6"/>
      <point x="677.8" y="309.4" type="qcurve" smooth="yes"/>
      <point x="677.8" y="347.2"/>
      <point x="594.6" y="371.4"/>
      <point x="419.0" y="402.8" type="qcurve" smooth="yes"/>
      <point x="220.4" y="437.4"/>
      <point x="84.4" y="612.8"/>
      <point x="84.4" y="733.4" type="qcurve" smooth="yes"/>
      <point x="84.4" y="907.4"/>
      <point x="354.6" y="1089.0"/>
      <point x="587.8" y="1089.0" type="qcurve" smooth="yes"/>
      <point x="820.0" y="1089.0"/>
      <point x="1094.0" y="890.8"/>
      <point x="1094.0" y="722.6" type="qcurve" smooth="yes"/>
      <point x="1094.0" y="700.6" type="line"/>
      <point x="685.0" y="700.6" type="line"/>
      <point x="685.0" y="727.8" type="line" smooth="yes"/>
      <point x="685.0" y="771.8"/>
      <point x="635.6" y="821.0"/>
      <point x="585.8" y="821.0" type="qcurve" smooth="yes"/>
      <point x="537.0" y="821.0"/>
      <point x="493.6" y="793.4"/>
      <point x="493.6" y="763.6" type="qcurve" smooth="yes"/>
      <point x="493.6" y="732.8"/>
      <point x="562.4" y="696.8"/>
      <point x="743.2" y="666.2" type="qcurve" smooth="yes"/>
      <point x="938.8" y="632.8"/>
      <point x="1096.4" y="473.2"/>
      <point x="1096.4" y="342.6" type="qcurve" smooth="yes"/>
      <point x="1096.4" y="158.6"/>
      <point x="824.0" y="-30.0"/>
      <point x="574.8" y="-30.0" type="qcurve" smooth="yes"/>
      <point x="328.6" y="-30.0"/>
      <point x="44.0" y="155.0"/>
      <point x="44.0" y="341.4" type="qcurve" smooth="yes"/>
    </contour>
  </outline>
</glyph>
<glyph name="t" format="2">
	<unicode hex="0074"/>
	<advance width="730"/>
	<outline>
		<contour>
			<point x="0" y="753.6" type="line"/>
			<point x="0" y="1058" type="line"/>
			<point x="701" y="1058" type="line"/>
			<point x="701" y="753.6" type="line"/>
		</contour>
		<contour>
			<point x="121" y="379.2" type="qcurve" smooth="yes"/>
			<point x="121" y="912.4" type="line"/>
			<point x="123" y="940.4" type="line"/>
			<point x="123" y="1295" type="line"/>
			<point x="539" y="1295" type="line"/>
			<point x="539" y="391.2" type="line" smooth="yes"/>
			<point x="539" y="318.2"/>
			<point x="591.6" y="269.2"/>
			<point x="624" y="269.2" type="qcurve" smooth="yes"/>
			<point x="640.8" y="269.2"/>
			<point x="677.2" y="280.4"/>
			<point x="690.8" y="287.2" type="qcurve"/>
			<point x="690.8" y="2" type="line"/>
			<point x="671.6" y="-10"/>
			<point x="585.8" y="-29"/>
			<point x="538.2" y="-29" type="qcurve" smooth="yes"/>
			<point x="352" y="-29"/>
			<point x="121" y="168.4"/>
		</contour>
	</outline>
	<anchor name="bottom" x="491" y="0"/>
	<anchor name="center" x="355" y="553"/>
	<anchor name="top" x="365" y="1295"/>
	<anchor name="topright" x="651" y="1058"/>
</glyph>
<glyph name="u" format="2">
	<unicode hex="0075"/>
	<advance width="1284"/>
	<outline>
		<contour>
			<point x="98" y="457.2" type="qcurve" smooth="yes"/>
			<point x="98" y="1058" type="line"/>
			<point x="519" y="1058" type="line"/>
			<point x="519" y="439.2" type="line" smooth="yes"/>
			<point x="519" y="349.2"/>
			<point x="580.4" y="291.8"/>
			<point x="621.2" y="291.8" type="qcurve" smooth="yes"/>
			<point x="664.4" y="291.8"/>
			<point x="742.8" y="352.8"/>
			<point x="756" y="393.2" type="qcurve"/>
			<point x="756" y="1058" type="line"/>
			<point x="1176" y="1058" type="line"/>
			<point x="1176" y="0" type="line"/>
			<point x="768.6" y="0" type="line"/>
			<point x="762.8" y="98.4" type="line"/>
			<point x="757.8" y="98.4" type="line"/>
			<point x="725.4" y="42.2"/>
			<point x="565" y="-21"/>
			<point x="469.4" y="-21" type="qcurve" smooth="yes"/>
			<point x="315.4" y="-21"/>
			<point x="98" y="199.2"/>
		</contour>
	</outline>
	<anchor name="bottom" x="642" y="0"/>
	<anchor name="ogonek" x="862" y="0"/>
	<anchor name="top" x="642" y="1058.4116923077"/>
	<anchor name="topright" x="972" y="1058"/>
</glyph>
<glyph name="v" format="2">
  <advance width="1133"/>
  <unicode hex="0076"/>
  <outline>
    <contour>
      <point x="-37.8" y="1058.0" type="line"/>
      <point x="397.6" y="1058.0" type="line"/>
      <point x="572.2" y="534.0" type="line" smooth="yes"/>
      <point x="584.2" y="498.2"/>
      <point x="590.2" y="442.0"/>
      <point x="594.2" y="401.0" type="qcurve"/>
      <point x="601.0" y="401.0" type="line"/>
      <point x="605.0" y="442.0"/>
      <point x="612.8" y="497.0"/>
      <point x="623.0" y="534.0" type="qcurve" smooth="yes"/>
      <point x="798.8" y="1058.0" type="line"/>
      <point x="1170.8" y="1058.0" type="line"/>
      <point x="771.6" y="0.0" type="line"/>
      <point x="361.6" y="0.0" type="line"/>
    </contour>
  </outline>
</glyph>
<glyph name="w" format="2">
  <advance width="1792"/>
  <unicode hex="0077"/>
  <outline>
    <contour>
      <point x="5.3999999999999995" y="1058.0" type="line"/>
      <point x="434.8" y="1058.0" type="line"/>
      <point x="542.4" y="586.2" type="line" smooth="yes"/>
      <point x="551.0" y="547.2"/>
      <point x="564.6" y="460.2"/>
      <point x="567.8" y="422.2" type="qcurve"/>
      <point x="574.8" y="422.2" type="line"/>
      <point x="576.2" y="460.2"/>
      <point x="584.4" y="547.2"/>
      <point x="593.2" y="586.2" type="qcurve" smooth="yes"/>
      <point x="700.6" y="1058.0" type="line"/>
      <point x="1138.2" y="1058.0" type="line"/>
      <point x="1255.4" y="585.2" type="line" smooth="yes"/>
      <point x="1265.2" y="546.2"/>
      <point x="1278.2" y="459.2"/>
      <point x="1282.6" y="421.2" type="qcurve"/>
      <point x="1288.6" y="421.2" type="line"/>
      <point x="1291.8" y="459.2"/>
      <point x="1304.4" y="546.2"/>
      <point x="1310.4" y="585.2" type="qcurve" smooth="yes"/>
      <point x="1427.0" y="1058.0" type="line"/>
      <point x="1786.6" y="1058.0" type="line"/>
      <point x="1486.6" y="0.0" type="line"/>
      <point x="1044.4" y="0.0" type="line"/>
      <point x="911.0" y="483.4" type="line" smooth="yes"/>
      <point x="901.0" y="519.4"/>
      <point x="889.4" y="598.4"/>
      <point x="886.8" y="634.4" type="qcurve"/>
      <point x="884.0" y="634.4" type="line"/>
      <point x="881.4" y="598.4"/>
      <point x="867.2" y="518.4"/>
      <point x="859.6" y="483.4" type="qcurve" smooth="yes"/>
      <point x="752.2" y="0.0" type="line"/>
      <point x="304.4" y="0.0" type="line"/>
    </contour>
  </outline>
</glyph>
<glyph name="x" format="2">
	<unicode hex="0078"/>
	<advance width="1176"/>
	<outline>
		<contour>
			<point x="-16" y="0" type="line"/>
			<point x="408.4" y="634.8" type="line"/>
			<point x="490.2" y="634.8" type="line"/>
			<point x="751.4" y="1058" type="line"/>
			<point x="1115.4" y="1058" type="line"/>
			<point x="726.8" y="447" type="line"/>
			<point x="650.2" y="447" type="line"/>
			<point x="348.2" y="0" type="line"/>
		</contour>
		<contour>
			<point x="20" y="1058" type="line"/>
			<point x="497.6" y="1058" type="line"/>
			<point x="771.4" y="637.6" type="line"/>
			<point x="773" y="637.6" type="line"/>
			<point x="1192.6" y="0" type="line"/>
			<point x="716.2" y="0" type="line"/>
			<point x="431.4" y="450.8" type="line"/>
			<point x="428.6" y="450.8" type="line"/>
		</contour>
	</outline>
	<anchor name="bottom" x="520" y="0"/>
	<anchor name="top" x="520" y="1058.4116923077"/>
</glyph>
<glyph name="y" format="2">
  <advance width="1172"/>
  <unicode hex="0079"/>
  <anchor x="931" y="0" name="bottom"/>
  <anchor x="516.5" y="1058.4116923077" name="top"/>
  <outline>
    <contour>
      <point x="143.4" y="-414.8" type="qcurve"/>
      <point x="150.4" y="-122.6" type="line"/>
      <point x="172.8" y="-130.6"/>
      <point x="231.2" y="-139.8"/>
      <point x="259.2" y="-139.8" type="qcurve" smooth="yes"/>
      <point x="323.8" y="-139.8"/>
      <point x="425.6" y="-77.0"/>
      <point x="436.0" y="6.2" type="qcurve"/>
      <point x="409.6" y="6.0" type="line"/>
      <point x="-17.0" y="1058.0" type="line"/>
      <point x="419.6" y="1058.0" type="line"/>
      <point x="595.4" y="535.0" type="line" smooth="yes"/>
      <point x="607.4" y="499.2"/>
      <point x="611.6" y="440.0"/>
      <point x="615.8" y="401.0" type="qcurve"/>
      <point x="622.6" y="401.0" type="line"/>
      <point x="626.6" y="440.0"/>
      <point x="631.0" y="498.0"/>
      <point x="643.0" y="535.0" type="qcurve" smooth="yes"/>
      <point x="819.2" y="1058.0" type="line"/>
      <point x="1187.8" y="1058.0" type="line"/>
      <point x="751.6" y="-111.0" type="line" smooth="yes"/>
      <point x="689.8" y="-277.8"/>
      <point x="458.2" y="-436.0"/>
      <point x="293.8" y="-436.0" type="qcurve" smooth="yes"/>
      <point x="243.2" y="-436.0"/>
      <point x="171.0" y="-427.0"/>
    </contour>
  </outline>
</glyph>
<glyph name="z" format="2">
	<unicode hex="007A"/>
	<advance width="1065"/>
	<outline>
		<contour>
			<point x="50" y="0" type="line"/>
			<point x="50" y="258" type="line"/>
			<point x="420.2" y="744.6" type="line"/>
			<point x="57.8" y="744.6" type="line"/>
			<point x="57.8" y="1058" type="line"/>
			<point x="995.8" y="1058" type="line"/>
			<point x="995.8" y="809.8" type="line"/>
			<point x="614.6" y="311.4" type="line"/>
			<point x="1030" y="311.4" type="line"/>
			<point x="1030" y="0" type="line"/>
		</contour>
	</outline>
	<anchor name="bottom" x="532.5" y="0"/>
	<anchor name="top" x="532.5" y="1058.4116923077"/>
</glyph>
<glyph name="braceleft" format="2">
  <advance width="804.0"/>
  <unicode hex="007B"/>
  <outline>
    <contour>
      <point x="741.0609230768999" y="-312.0" type="line"/>
      <point x="461.8206153846" y="-314.4615384615"/>
      <point x="111.43353846149999" y="-148.67692307689998"/>
      <point x="142.8830769231" y="55.0" type="qcurve" smooth="yes"/>
      <point x="172.9938461538" y="282.7076923077" type="line" smooth="yes"/>
      <point x="187.2861538462" y="382.1769230769"/>
      <point x="134.11723076919998" y="444.6461538462"/>
      <point x="83.3" y="444.6461538462" type="qcurve"/>
      <point x="83.3" y="703.3538461538001" type="line"/>
      <point x="134.11723076919998" y="703.3538461538001"/>
      <point x="187.2861538462" y="765.8230769231"/>
      <point x="172.9938461538" y="865.2923076923" type="qcurve" smooth="yes"/>
      <point x="142.8830769231" y="1093.0" type="line" smooth="yes"/>
      <point x="110.8796923077" y="1298.7692307692"/>
      <point x="466.8206153846" y="1461.2307692308"/>
      <point x="741.0609230768999" y="1460.0" type="qcurve"/>
      <point x="741.0609230768999" y="1178.9076923077" type="line"/>
      <point x="702.5544615385" y="1178.9076923077"/>
      <point x="523.9206153846" y="1159.3538461538"/>
      <point x="537.9501538462" y="1039.2461538462" type="qcurve" smooth="yes"/>
      <point x="570.4609230768999" y="814.0" type="line" smooth="yes"/>
      <point x="583.9609230769" y="726.9230769231"/>
      <point x="507.46092307690003" y="617.0"/>
      <point x="404.4224615385" y="574.0" type="qcurve"/>
      <point x="507.46092307690003" y="531.0"/>
      <point x="583.9609230769" y="421.0769230769"/>
      <point x="570.4609230768999" y="334.0" type="qcurve" smooth="yes"/>
      <point x="537.9501538462" y="108.7538461538" type="line" smooth="yes"/>
      <point x="523.7206153846" y="-11.953846153799999"/>
      <point x="705.5544615385" y="-30.907692307699996"/>
      <point x="741.0609230768999" y="-30.907692307699996" type="qcurve"/>
    </contour>
  </outline>
</glyph>
<glyph name="braceright" format="2">
	<unicode hex="007D"/>
	<advance width="804"/>
	<outline>
		<contour>
			<point x="71.5384615385" y="-312.2461538462" type="qcurve"/>
			<point x="71.5384615385" y="-31.153846153799996" type="line"/>
			<point x="105.6449230769" y="-31.153846153799996"/>
			<point x="246.8787692308" y="-14.8"/>
			<point x="226.04923076920002" y="108.5076923077" type="qcurve" smooth="yes"/>
			<point x="184.93846153849998" y="333.7538461538" type="line" smooth="yes"/>
			<point x="167.6384615385" y="419.8307692308"/>
			<point x="259.1384615385" y="530.7538461538"/>
			<point x="362.1769230769" y="573.7538461538" type="qcurve"/>
			<point x="259.1384615385" y="616.7538461538"/>
			<point x="167.6384615385" y="727.6769230768999"/>
			<point x="184.93846153849998" y="813.7538461538" type="qcurve" smooth="yes"/>
			<point x="226.04923076920002" y="1039" type="line" smooth="yes"/>
			<point x="246.8787692308" y="1162.3076923077"/>
			<point x="105.6449230769" y="1178.6615384615002"/>
			<point x="71.5384615385" y="1178.6615384615002" type="qcurve"/>
			<point x="71.5384615385" y="1459.7538461538" type="line"/>
			<point x="334.57876923080005" y="1462.2153846154"/>
			<point x="663.3658461538" y="1300.0307692308"/>
			<point x="621.1163076923" y="1092.7538461538" type="qcurve" smooth="yes"/>
			<point x="580.0055384615" y="865.0461538462" type="line" smooth="yes"/>
			<point x="561.1132307692" y="766.5769230768999"/>
			<point x="676.4821538462" y="703.1076923077001"/>
			<point x="729.2993846154001" y="703.1076923077001" type="qcurve"/>
			<point x="729.2993846154001" y="444.4" type="line"/>
			<point x="676.4821538462" y="444.4"/>
			<point x="561.1132307692" y="380.93076923079997"/>
			<point x="580.0055384615" y="282.46153846149997" type="qcurve" smooth="yes"/>
			<point x="621.1163076923" y="54.7538461538" type="line" smooth="yes"/>
			<point x="663.1196923077" y="-151.4153846154"/>
			<point x="334.57876923080005" y="-313.4769230769"/>
		</contour>
	</outline>
</glyph>
<glyph name="exclamdown" format="2">
  <advance width="758.0"/>
  <unicode hex="00A1"/>
  <outline>
    <contour>
      <point x="629.8" y="954.0" type="qcurve" smooth="yes"/>
      <point x="629.8" y="864.8"/>
      <point x="501.4" y="737.0"/>
      <point x="380.0" y="737.0" type="qcurve" smooth="yes"/>
      <point x="258.8" y="737.0"/>
      <point x="128.2" y="864.8"/>
      <point x="128.2" y="954.0" type="qcurve" smooth="yes"/>
      <point x="128.2" y="1044.4"/>
      <point x="257.8" y="1172.2"/>
      <point x="379.0" y="1172.2" type="qcurve" smooth="yes"/>
      <point x="501.4" y="1172.2"/>
      <point x="629.8" y="1044.4"/>
    </contour>
    <contour>
      <point x="564.4" y="633.0" type="line"/>
      <point x="595.4" y="-306.8" type="line"/>
      <point x="162.6" y="-306.8" type="line"/>
      <point x="195.8" y="633.0" type="line"/>
    </contour>
  </outline>
</glyph>
<glyph name="cent" format="2">
	<unicode hex="00A2"/>
	<advance width="1205"/>
	<outline>
		<contour>
			<point x="641" y="428" type="qcurve" smooth="yes"/>
			<point x="720.8" y="428"/>
			<point x="772.2" y="501"/>
			<point x="772" y="551" type="qcurve"/>
			<point x="1180" y="551" type="line"/>
			<point x="1180.4" y="381"/>
			<point x="895.6" y="132"/>
			<point x="647" y="132" type="qcurve" smooth="yes"/>
			<point x="387.8" y="132"/>
			<point x="57" y="423.8"/>
			<point x="57" y="676" type="qcurve" smooth="yes"/>
			<point x="57" y="708" type="line" smooth="yes"/>
			<point x="57" y="960.2"/>
			<point x="386.8" y="1251"/>
			<point x="647" y="1251" type="qcurve" smooth="yes"/>
			<point x="897.8" y="1251"/>
			<point x="1160.2" y="1014.4"/>
			<point x="1167" y="835" type="qcurve"/>
			<point x="773" y="835" type="line"/>
			<point x="773.2" y="893.6"/>
			<point x="705" y="954"/>
			<point x="642" y="954" type="qcurve" smooth="yes"/>
			<point x="564.6" y="954"/>
			<point x="485" y="847.6"/>
			<point x="485" y="741" type="qcurve" smooth="yes"/>
			<point x="485" y="643" type="line" smooth="yes"/>
			<point x="485" y="533"/>
			<point x="561.2" y="428"/>
		</contour>
		<contour>
			<point x="555" y="0" type="line"/>
			<point x="555" y="245" type="line"/>
			<point x="562" y="259" type="line"/>
			<point x="562" y="708" type="line"/>
			<point x="706" y="708" type="line"/>
			<point x="706" y="258" type="line"/>
			<point x="713" y="248" type="line"/>
			<point x="713" y="0" type="line"/>
		</contour>
		<contour>
			<point x="562" y="708" type="line"/>
			<point x="562" y="1182" type="line"/>
			<point x="555" y="1192" type="line"/>
			<point x="555" y="1402" type="line"/>
			<point x="713" y="1402" type="line"/>
			<point x="713" y="1192" type="line"/>
			<point x="706" y="1179" type="line"/>
			<point x="706" y="708" type="line"/>
		</contour>
	</outline>
</glyph>
<glyph name="sterling" format="2">
	<unicode hex="00A3"/>
	<advance width="1238"/>
	<outline>
		<contour>
			<point x="1228" y="0" type="line"/>
			<point x="36" y="0" type="line"/>
			<point x="36" y="293" type="line"/>
			<point x="92" y="293" type="line" smooth="yes"/>
			<point x="182" y="293"/>
			<point x="247.2" y="439.8"/>
			<point x="239" y="528" type="qcurve" smooth="yes"/>
			<point x="190.6" y="1023.2" type="line" smooth="yes"/>
			<point x="169.2" y="1248.8"/>
			<point x="421" y="1478"/>
			<point x="681" y="1478" type="qcurve" smooth="yes"/>
			<point x="929" y="1478"/>
			<point x="1188.4" y="1248"/>
			<point x="1188.4" y="1035" type="qcurve" smooth="yes"/>
			<point x="1188.4" y="1017" type="line"/>
			<point x="786" y="1017" type="line"/>
			<point x="786" y="1035" type="line" smooth="yes"/>
			<point x="786" y="1121"/>
			<point x="736" y="1219"/>
			<point x="683" y="1219" type="qcurve" smooth="yes"/>
			<point x="626.2" y="1219"/>
			<point x="581" y="1121"/>
			<point x="590.6" y="1023.2" type="qcurve" smooth="yes"/>
			<point x="635" y="555" type="line" smooth="yes"/>
			<point x="643.6" y="468.8"/>
			<point x="579.4" y="323"/>
			<point x="514" y="297" type="qcurve"/>
			<point x="1228" y="297" type="line"/>
		</contour>
		<contour>
			<point x="969" y="572" type="line"/>
			<point x="52" y="572" type="line"/>
			<point x="52" y="797" type="line"/>
			<point x="969" y="797" type="line"/>
		</contour>
	</outline>
</glyph>
<glyph name="currency" format="2">
	<unicode hex="00A4"/>
	<advance width="1336"/>
	<outline>
		<contour>
			<point x="425.4" y="712" type="qcurve"/>
			<point x="425.4" y="603.4"/>
			<point x="565.2" y="458.2"/>
			<point x="665" y="458.2" type="qcurve" smooth="yes"/>
			<point x="763.8" y="458.2"/>
			<point x="902.6" y="603.4"/>
			<point x="902.6" y="712" type="qcurve" smooth="yes"/>
			<point x="902.6" y="818.6"/>
			<point x="763.8" y="963.8"/>
			<point x="665" y="963.8" type="qcurve" smooth="yes"/>
			<point x="565.2" y="963.8"/>
			<point x="425.4" y="818.6"/>
		</contour>
		<contour>
			<point x="125" y="718" type="qcurve"/>
			<point x="125" y="952"/>
			<point x="446" y="1269"/>
			<point x="664" y="1269" type="qcurve" smooth="yes"/>
			<point x="882" y="1269"/>
			<point x="1203" y="952"/>
			<point x="1203" y="718" type="qcurve" smooth="yes"/>
			<point x="1203" y="486"/>
			<point x="882" y="165"/>
			<point x="664" y="165" type="qcurve" smooth="yes"/>
			<point x="446" y="165"/>
			<point x="125" y="486"/>
		</contour>
		<contour>
			<point x="1260" y="1213" type="line"/>
			<point x="1040" y="988" type="line"/>
			<point x="899" y="1135" type="line"/>
			<point x="1119" y="1360" type="line"/>
		</contour>
		<contour>
			<point x="406" y="315" type="line"/>
			<point x="186" y="90" type="line"/>
			<point x="46" y="236" type="line"/>
			<point x="266" y="460" type="line"/>
		</contour>
		<contour>
			<point x="1148" y="98" type="line"/>
			<point x="928" y="323" type="line"/>
			<point x="1070" y="468" type="line"/>
			<point x="1290" y="245" type="line"/>
		</contour>
		<contour>
			<point x="285" y="1003" type="line"/>
			<point x="65" y="1228" type="line"/>
			<point x="205" y="1374" type="line"/>
			<point x="425" y="1149" type="line"/>
		</contour>
	</outline>
	<guideline y="901" identifier="bRYxxRaQQf"/>
	<guideline y="555" identifier="917FhrihjR"/>
</glyph>
<glyph name="yen" format="2">
	<unicode hex="00A5"/>
	<advance width="1267"/>
	<outline>
		<contour>
			<point x="62.2" y="277" type="line"/>
			<point x="62.2" y="476" type="line"/>
			<point x="1208.2" y="476" type="line"/>
			<point x="1208.2" y="277" type="line"/>
		</contour>
		<contour>
			<point x="62.2" y="588" type="line"/>
			<point x="62.2" y="783" type="line"/>
			<point x="428.2" y="783" type="line"/>
			<point x="481.2" y="669" type="line"/>
			<point x="790.2" y="669" type="line"/>
			<point x="838.2" y="783" type="line"/>
			<point x="1208.2" y="783" type="line"/>
			<point x="1208.2" y="588" type="line"/>
		</contour>
		<contour>
			<point x="434.2" y="0" type="line"/>
			<point x="434.2" y="548" type="line"/>
			<point x="-20.8" y="1456" type="line"/>
			<point x="441.2" y="1456" type="line"/>
			<point x="611.2" y="1078" type="line" smooth="yes"/>
			<point x="625" y="1048"/>
			<point x="658" y="950.6"/>
			<point x="665.2" y="910" type="qcurve"/>
			<point x="673.2" y="910" type="line"/>
			<point x="682.2" y="966"/>
			<point x="713.4" y="1048"/>
			<point x="727.2" y="1078" type="qcurve" smooth="yes"/>
			<point x="900.2" y="1456" type="line"/>
			<point x="1283.2" y="1456" type="line"/>
			<point x="828.2" y="548" type="line"/>
			<point x="828.2" y="0" type="line"/>
		</contour>
	</outline>
</glyph>
<glyph name="section" format="2">
	<unicode hex="00A7"/>
	<advance width="1461"/>
	<outline>
		<contour>
			<point x="905" y="32" type="qcurve"/>
			<point x="905" y="372" type="line"/>
			<point x="922" y="388"/>
			<point x="938" y="425"/>
			<point x="938" y="448.4" type="qcurve"/>
			<point x="938" y="508"/>
			<point x="858" y="570"/>
			<point x="660" y="615" type="qcurve" smooth="yes"/>
			<point x="440" y="665"/>
			<point x="161" y="854"/>
			<point x="160" y="1055" type="qcurve" smooth="yes"/>
			<point x="160" y="1271"/>
			<point x="489" y="1505"/>
			<point x="724" y="1505" type="qcurve" smooth="yes"/>
			<point x="959" y="1505"/>
			<point x="1241" y="1264"/>
			<point x="1242.8" y="1043.2" type="qcurve"/>
			<point x="859.8" y="1043.2" type="line"/>
			<point x="858" y="1114.2"/>
			<point x="789" y="1192"/>
			<point x="720.6" y="1192" type="qcurve" smooth="yes"/>
			<point x="655.2" y="1192"/>
			<point x="608" y="1139"/>
			<point x="608" y="1096" type="qcurve" smooth="yes"/>
			<point x="608" y="1045.4"/>
			<point x="693" y="1003"/>
			<point x="884" y="957" type="qcurve" smooth="yes"/>
			<point x="1101" y="903"/>
			<point x="1385" y="690"/>
			<point x="1386" y="474" type="qcurve" smooth="yes"/>
			<point x="1386" y="277"/>
			<point x="1127" y="57"/>
		</contour>
		<contour>
			<point x="600" y="961" type="qcurve"/>
			<point x="600" y="641" type="line"/>
			<point x="564" y="630"/>
			<point x="528" y="590"/>
			<point x="528" y="558" type="qcurve" smooth="yes"/>
			<point x="528" y="506"/>
			<point x="617" y="465"/>
			<point x="808" y="417" type="qcurve" smooth="yes"/>
			<point x="1033.2" y="359"/>
			<point x="1312.8" y="139"/>
			<point x="1313.8" y="-79.6" type="qcurve" smooth="yes"/>
			<point x="1313.8" y="-319"/>
			<point x="971" y="-549"/>
			<point x="692" y="-549" type="qcurve" smooth="yes"/>
			<point x="417" y="-549"/>
			<point x="67" y="-325"/>
			<point x="67" y="-44" type="qcurve"/>
			<point x="512" y="-44" type="line"/>
			<point x="512" y="-162"/>
			<point x="601" y="-238"/>
			<point x="691" y="-238" type="qcurve" smooth="yes"/>
			<point x="778" y="-238"/>
			<point x="862" y="-180"/>
			<point x="862" y="-129" type="qcurve" smooth="yes"/>
			<point x="862" y="-71"/>
			<point x="782" y="-13"/>
			<point x="584" y="29" type="qcurve" smooth="yes"/>
			<point x="364" y="76"/>
			<point x="79" y="287"/>
			<point x="78" y="482.8" type="qcurve" smooth="yes"/>
			<point x="78" y="679"/>
			<point x="361" y="944"/>
		</contour>
	</outline>
	<guideline y="1658" identifier="QzZ5gIiCyn"/>
	<guideline y="578" identifier="9Hxjf2sdFw"/>
</glyph>
<glyph name="dieresis" format="2">
	<unicode hex="00A8"/>
	<advance width="1024"/>
	<outline>
		<contour>
			<point x="52" y="1399.4" type="qcurve" smooth="yes"/>
			<point x="52" y="1477.6"/>
			<point x="157.2" y="1582"/>
			<point x="255" y="1582" type="qcurve" smooth="yes"/>
			<point x="351.6" y="1582"/>
			<point x="457.8" y="1477.6"/>
			<point x="457.8" y="1399.4" type="qcurve" smooth="yes"/>
			<point x="457.8" y="1321.6"/>
			<point x="351.6" y="1216"/>
			<point x="254" y="1216" type="qcurve" smooth="yes"/>
			<point x="156.2" y="1216"/>
			<point x="52" y="1321.6"/>
		</contour>
		<contour>
			<point x="565.2" y="1399.4" type="qcurve" smooth="yes"/>
			<point x="565.2" y="1477.6"/>
			<point x="670.6" y="1582"/>
			<point x="768.2" y="1582" type="qcurve" smooth="yes"/>
			<point x="866" y="1582"/>
			<point x="972" y="1477.6"/>
			<point x="972" y="1399.4" type="qcurve" smooth="yes"/>
			<point x="972" y="1321.6"/>
			<point x="866" y="1216"/>
			<point x="767.2" y="1216" type="qcurve" smooth="yes"/>
			<point x="669.6" y="1216"/>
			<point x="565.2" y="1321.6"/>
		</contour>
	</outline>
</glyph>
<glyph name="copyright" format="2">
	<unicode hex="00A9"/>
	<advance width="1880"/>
	<outline>
		<contour>
			<point x="1066" y="588.2" type="qcurve"/>
			<point x="1422" y="588.2" type="line"/>
			<point x="1422" y="423.2"/>
			<point x="1168" y="204"/>
			<point x="958.6" y="204" type="qcurve" smooth="yes"/>
			<point x="730" y="204"/>
			<point x="443" y="447"/>
			<point x="443" y="676" type="qcurve" smooth="yes"/>
			<point x="443" y="704" type="line" smooth="yes"/>
			<point x="443" y="932"/>
			<point x="731.4" y="1174"/>
			<point x="960" y="1174" type="qcurve" smooth="yes"/>
			<point x="1179" y="1174"/>
			<point x="1410" y="966"/>
			<point x="1423" y="795" type="qcurve"/>
			<point x="1067" y="795" type="line"/>
			<point x="1067" y="853"/>
			<point x="1011" y="918"/>
			<point x="953" y="918" type="qcurve" smooth="yes"/>
			<point x="887" y="918"/>
			<point x="817" y="833"/>
			<point x="817" y="732" type="qcurve" smooth="yes"/>
			<point x="817" y="647" type="line" smooth="yes"/>
			<point x="817" y="546"/>
			<point x="881" y="460"/>
			<point x="952" y="460" type="qcurve" smooth="yes"/>
			<point x="1015" y="460"/>
			<point x="1066" y="523.2"/>
		</contour>
		<contour>
			<point x="268" y="687" type="qcurve" smooth="yes"/>
			<point x="268" y="392.2"/>
			<point x="645.8" y="11.8"/>
			<point x="941" y="11.8" type="qcurve" smooth="yes"/>
			<point x="1235.2" y="11.8"/>
			<point x="1613" y="392.2"/>
			<point x="1613" y="687" type="qcurve" smooth="yes"/>
			<point x="1613" y="980.6"/>
			<point x="1235.2" y="1359.2"/>
			<point x="941" y="1359.2" type="qcurve" smooth="yes"/>
			<point x="645.8" y="1359.2"/>
			<point x="268" y="980.6"/>
		</contour>
		<contour>
			<point x="101" y="687" type="qcurve" smooth="yes"/>
			<point x="101" y="1050"/>
			<point x="574" y="1519"/>
			<point x="940" y="1519" type="qcurve" smooth="yes"/>
			<point x="1306" y="1519"/>
			<point x="1780" y="1050"/>
			<point x="1780" y="687" type="qcurve" smooth="yes"/>
			<point x="1780" y="323"/>
			<point x="1306" y="-147"/>
			<point x="940" y="-147" type="qcurve" smooth="yes"/>
			<point x="574" y="-147"/>
			<point x="101" y="323"/>
		</contour>
	</outline>
	<guideline y="901" identifier="0Pjz0qKr8z"/>
	<guideline y="555" identifier="sJo8BlDiJ7"/>
</glyph>
<glyph name="ordfeminine" format="2">
	<unicode hex="00AA"/>
	<advance width="916"/>
	<outline>
		<contour>
			<point x="540" y="811" type="line"/>
			<point x="540" y="789"/>
			<point x="564" y="723"/>
			<point x="577" y="706" type="qcurve"/>
			<point x="873" y="706" type="line"/>
			<point x="858" y="744"/>
			<point x="839" y="826"/>
			<point x="839" y="887" type="qcurve" smooth="yes"/>
			<point x="839" y="1220" type="line" smooth="yes"/>
			<point x="839" y="1355"/>
			<point x="641" y="1477"/>
			<point x="477" y="1477" type="qcurve" smooth="yes"/>
			<point x="314" y="1477"/>
			<point x="92" y="1346"/>
			<point x="92.8" y="1234" type="qcurve" smooth="yes"/>
			<point x="92.8" y="1209" type="line"/>
			<point x="381" y="1209" type="line"/>
			<point x="381" y="1230" type="line" smooth="yes"/>
			<point x="381" y="1258"/>
			<point x="416.4" y="1289"/>
			<point x="462" y="1289" type="qcurve" smooth="yes"/>
			<point x="508" y="1289"/>
			<point x="540" y="1250"/>
			<point x="540" y="1222" type="qcurve" smooth="yes"/>
		</contour>
		<contour>
			<point x="597" y="1180" type="line"/>
			<point x="423" y="1180" type="line" smooth="yes"/>
			<point x="270" y="1180"/>
			<point x="58.4" y="1064"/>
			<point x="58.4" y="926" type="qcurve" smooth="yes"/>
			<point x="58.4" y="805"/>
			<point x="212" y="693"/>
			<point x="325" y="693" type="qcurve" smooth="yes"/>
			<point x="412" y="693"/>
			<point x="538" y="750"/>
			<point x="578" y="786" type="qcurve"/>
			<point x="565" y="941" type="line"/>
			<point x="545.6" y="908.6"/>
			<point x="486" y="877"/>
			<point x="440" y="877" type="qcurve" smooth="yes"/>
			<point x="394" y="877"/>
			<point x="359.8" y="911"/>
			<point x="359.8" y="944" type="qcurve" smooth="yes"/>
			<point x="359.8" y="981"/>
			<point x="407" y="1009.8"/>
			<point x="467" y="1011" type="qcurve" smooth="yes"/>
			<point x="597" y="1011" type="line"/>
		</contour>
	</outline>
	<guideline y="1681" identifier="3CJlALCfkl"/>
	<guideline y="909" identifier="Zdl6NZVQAy"/>
</glyph>
<glyph name="guillemotleft" format="2">
  <advance width="1112"/>
  <unicode hex="00AB"/>
  <guideline x="0" y="901.0" angle="0" identifier="ZftBQarVKw"/>
  <guideline x="0" y="555.0" angle="0" identifier="MVJpdoVRVd"/>
  <outline>
    <contour>
      <point x="33.0" y="481.0" type="line"/>
      <point x="33.0" y="622.0" type="line"/>
      <point x="324.0" y="959.0" type="line"/>
      <point x="611.0" y="959.0" type="line"/>
      <point x="346.0" y="551.0" type="line"/>
      <point x="611.0" y="143.0" type="line"/>
      <point x="324.0" y="143.0" type="line"/>
    </contour>
    <contour>
      <point x="542.0" y="481.0" type="line"/>
      <point x="542.0" y="622.0" type="line"/>
      <point x="833.0" y="959.0" type="line"/>
      <point x="1120.0" y="959.0" type="line"/>
      <point x="855.0" y="551.0" type="line"/>
      <point x="1120.0" y="143.0" type="line"/>
      <point x="833.0" y="143.0" type="line"/>
    </contour>
  </outline>
</glyph>
<glyph name="logicalnot" format="2">
	<unicode hex="00AC"/>
	<advance width="1200"/>
	<outline>
		<contour>
			<point x="1025" y="837" type="line"/>
			<point x="1025" y="272" type="line"/>
			<point x="651.6" y="272" type="line"/>
			<point x="651.6" y="508.2" type="line"/>
			<point x="70" y="508.2" type="line"/>
			<point x="70" y="837" type="line"/>
		</contour>
	</outline>
</glyph>
<glyph name="registered" format="2">
	<unicode hex="00AE"/>
	<advance width="1880"/>
	<outline>
		<contour>
			<point x="101" y="687" type="qcurve" smooth="yes"/>
			<point x="101" y="1050"/>
			<point x="574" y="1519"/>
			<point x="940" y="1519" type="qcurve" smooth="yes"/>
			<point x="1306" y="1519"/>
			<point x="1780" y="1050"/>
			<point x="1780" y="687" type="qcurve" smooth="yes"/>
			<point x="1780" y="323"/>
			<point x="1306" y="-147"/>
			<point x="940" y="-147" type="qcurve" smooth="yes"/>
			<point x="574" y="-147"/>
			<point x="101" y="323"/>
		</contour>
		<contour>
			<point x="266" y="686.8" type="qcurve" smooth="yes"/>
			<point x="266" y="392"/>
			<point x="645.8" y="11.8"/>
			<point x="941" y="11.8" type="qcurve" smooth="yes"/>
			<point x="1235.2" y="11.8"/>
			<point x="1615" y="392.2"/>
			<point x="1615" y="687" type="qcurve" smooth="yes"/>
			<point x="1615" y="980.6"/>
			<point x="1235.2" y="1359"/>
			<point x="941" y="1359" type="qcurve" smooth="yes"/>
			<point x="645.8" y="1359"/>
			<point x="266" y="980.4"/>
		</contour>
		<contour>
			<point x="899" y="565" type="line"/>
			<point x="862" y="565" type="line"/>
			<point x="862" y="225" type="line"/>
			<point x="580" y="225" type="line"/>
			<point x="580" y="1159" type="line"/>
			<point x="960" y="1159" type="line" smooth="yes"/>
			<point x="1141" y="1159"/>
			<point x="1344" y="1013"/>
			<point x="1344" y="870" type="qcurve" smooth="yes"/>
			<point x="1344" y="768"/>
			<point x="1226" y="614"/>
			<point x="1135" y="597" type="qcurve"/>
			<point x="1145" y="590"/>
			<point x="1171.2" y="564"/>
			<point x="1184" y="542" type="qcurve" smooth="yes"/>
			<point x="1352" y="255" type="line"/>
			<point x="1352" y="225" type="line"/>
			<point x="1056" y="225" type="line"/>
		</contour>
		<contour>
			<point x="947" y="960" type="qcurve" smooth="yes"/>
			<point x="862" y="960" type="line"/>
			<point x="862" y="755" type="line"/>
			<point x="947" y="755" type="line" smooth="yes"/>
			<point x="1010" y="755"/>
			<point x="1061.4" y="804.8"/>
			<point x="1061.4" y="861.2" type="qcurve" smooth="yes"/>
			<point x="1062.4" y="913.2"/>
			<point x="1008" y="960.2"/>
		</contour>
	</outline>
</glyph>
<glyph name="macron" format="2">
	<unicode hex="00AF"/>
	<advance width="1024"/>
	<outline>
		<contour>
			<point x="866" y="1518" type="line"/>
			<point x="866" y="1254" type="line"/>
			<point x="158" y="1254" type="line"/>
			<point x="158" y="1518" type="line"/>
		</contour>
	</outline>
</glyph>
<glyph name="degree" format="2">
  <advance width="739.0"/>
  <unicode hex="00B0"/>
  <outline>
    <contour>
      <point x="74.6" y="1176.0" type="qcurve"/>
      <point x="74.6" y="1299.4"/>
      <point x="250.8" y="1478.6"/>
      <point x="372.0" y="1478.6" type="qcurve" smooth="yes"/>
      <point x="492.2" y="1478.6"/>
      <point x="664.4" y="1299.40597014926"/>
      <point x="664.4" y="1176.0" type="qcurve" smooth="yes"/>
      <point x="664.4" y="1051.54328358208"/>
      <point x="492.20298507462" y="876.4"/>
      <point x="372.0" y="876.4" type="qcurve" smooth="yes"/>
      <point x="250.74626865672" y="876.4"/>
      <point x="74.6" y="1050.6"/>
    </contour>
    <contour>
      <point x="248.8" y="1176.0" type="qcurve"/>
      <point x="248.8" y="1119.2447761194"/>
      <point x="318.14626865672" y="1045.0"/>
      <point x="372.0" y="1045.0" type="qcurve" smooth="yes"/>
      <point x="423.85373134328" y="1045.0"/>
      <point x="490.2" y="1119.2447761194"/>
      <point x="490.2" y="1176.0" type="qcurve" smooth="yes"/>
      <point x="490.2" y="1234.80597014926"/>
      <point x="423.85373134328" y="1310.0"/>
      <point x="372.0" y="1310.0" type="qcurve" smooth="yes"/>
      <point x="318.14626865672" y="1310.0"/>
      <point x="248.8" y="1234.80597014926"/>
    </contour>
  </outline>
</glyph>
<glyph name="plusminus" format="2">
	<unicode hex="00B1"/>
	<advance width="1200"/>
	<outline>
		<contour>
			<point x="99" y="511" type="line"/>
			<point x="99" y="854" type="line"/>
			<point x="1101" y="854" type="line"/>
			<point x="1101" y="511" type="line"/>
		</contour>
		<contour>
			<point x="396" y="189" type="line"/>
			<point x="396" y="1189" type="line"/>
			<point x="807" y="1189" type="line"/>
			<point x="807" y="189" type="line"/>
		</contour>
		<contour>
			<point x="99" y="1" type="line"/>
			<point x="99" y="332" type="line"/>
			<point x="1101" y="332" type="line"/>
			<point x="1101" y="1" type="line"/>
		</contour>
	</outline>
</glyph>
<glyph name="twosuperior" format="2">
	<unicode hex="00B2"/>
	<advance width="753"/>
	<outline>
		<contour>
			<point x="54" y="697" type="line"/>
			<point x="54" y="826" type="line"/>
			<point x="336" y="1125" type="line" smooth="yes"/>
			<point x="374.2" y="1165.4"/>
			<point x="423" y="1230"/>
			<point x="423" y="1265" type="qcurve" smooth="yes"/>
			<point x="423" y="1291.4"/>
			<point x="400" y="1319"/>
			<point x="367.2" y="1319" type="qcurve" smooth="yes"/>
			<point x="334" y="1319"/>
			<point x="312" y="1264"/>
			<point x="312.2" y="1192.2" type="qcurve"/>
			<point x="44.2" y="1192.2" type="line"/>
			<point x="44" y="1341.4"/>
			<point x="212" y="1488.6"/>
			<point x="369" y="1488.6" type="qcurve" smooth="yes"/>
			<point x="548" y="1488.6"/>
			<point x="700" y="1373"/>
			<point x="701" y="1273" type="qcurve" smooth="yes"/>
			<point x="701" y="1193"/>
			<point x="613" y="1079.4"/>
			<point x="551" y="1017" type="qcurve" smooth="yes"/>
			<point x="409.6" y="874" type="line"/>
			<point x="707" y="874" type="line"/>
			<point x="707" y="697" type="line"/>
		</contour>
	</outline>
</glyph>
<glyph name="threesuperior" format="2">
	<unicode hex="00B3"/>
	<advance width="751"/>
	<outline>
		<contour>
			<point x="33" y="937.2" type="qcurve"/>
			<point x="298" y="937.2" type="line"/>
			<point x="298" y="892.2"/>
			<point x="321.8" y="850"/>
			<point x="364" y="850" type="qcurve" smooth="yes"/>
			<point x="405.6" y="850"/>
			<point x="433" y="894.4"/>
			<point x="433" y="940.8" type="qcurve" smooth="yes"/>
			<point x="433" y="980.4"/>
			<point x="398.4" y="1019.2"/>
			<point x="346.2" y="1019" type="qcurve" smooth="yes"/>
			<point x="256" y="1019" type="line"/>
			<point x="256" y="1179" type="line"/>
			<point x="341" y="1179" type="line" smooth="yes"/>
			<point x="379.2" y="1179"/>
			<point x="411" y="1218"/>
			<point x="411" y="1253" type="qcurve" smooth="yes"/>
			<point x="411" y="1285"/>
			<point x="388" y="1320.2"/>
			<point x="355.4" y="1320.2" type="qcurve" smooth="yes"/>
			<point x="322" y="1320.2"/>
			<point x="304.8" y="1285"/>
			<point x="304.8" y="1238.4" type="qcurve"/>
			<point x="40.8" y="1238.4" type="line"/>
			<point x="41" y="1350"/>
			<point x="200.4" y="1487"/>
			<point x="365" y="1487" type="qcurve" smooth="yes"/>
			<point x="540.8" y="1487"/>
			<point x="680" y="1365"/>
			<point x="680" y="1262" type="qcurve" smooth="yes"/>
			<point x="680" y="1213"/>
			<point x="611" y="1126"/>
			<point x="539" y="1106" type="qcurve"/>
			<point x="618" y="1091"/>
			<point x="705" y="997"/>
			<point x="705" y="925" type="qcurve" smooth="yes"/>
			<point x="705" y="815"/>
			<point x="537.6" y="685"/>
			<point x="359" y="685" type="qcurve" smooth="yes"/>
			<point x="189.8" y="685"/>
			<point x="33" y="816.2"/>
		</contour>
	</outline>
</glyph>
<glyph name="acute" format="2">
  <advance width="1024.0"/>
  <unicode hex="00B4"/>
  <outline>
    <contour>
      <point x="233.4" y="1376.0" type="line"/>
      <point x="509.8" y="1733.2" type="line"/>
      <point x="814.6" y="1554.4" type="line"/>
      <point x="466.8" y="1216.8" type="line"/>
    </contour>
  </outline>
</glyph>
<glyph name="micro" format="2">
	<unicode hex="00B5"/>
	<advance width="1280"/>
	<outline>
		<contour>
			<point x="180" y="1052" type="line"/>
			<point x="601" y="1052" type="line"/>
			<point x="470.8" y="380" type="line" smooth="yes"/>
			<point x="461" y="331"/>
			<point x="493.8" y="288"/>
			<point x="549.8" y="288" type="qcurve" smooth="yes"/>
			<point x="600.8" y="288"/>
			<point x="672.8" y="338"/>
			<point x="709.8" y="393" type="qcurve"/>
			<point x="838" y="1052" type="line"/>
			<point x="1258" y="1052" type="line"/>
			<point x="1054" y="0" type="line"/>
			<point x="652" y="0" type="line"/>
			<point x="665.2" y="109.2" type="line"/>
			<point x="660.2" y="109.6" type="line"/>
			<point x="616.4" y="39.2"/>
			<point x="533" y="-18"/>
			<point x="475" y="-18" type="qcurve" smooth="yes"/>
			<point x="441" y="-18"/>
			<point x="407.8" y="-0.8"/>
			<point x="400.4" y="18.8" type="qcurve"/>
			<point x="317" y="-416" type="line"/>
			<point x="-104" y="-416" type="line"/>
		</contour>
	</outline>
</glyph>
<glyph name="paragraph" format="2">
	<unicode hex="00B6"/>
	<advance width="1352"/>
	<outline>
		<contour>
			<point x="916" y="-146" type="line"/>
			<point x="612" y="-146" type="line"/>
			<point x="612" y="570" type="line"/>
			<point x="517" y="570" type="line" smooth="yes"/>
			<point x="292" y="570"/>
			<point x="48" y="820"/>
			<point x="48" y="1011.4" type="qcurve" smooth="yes"/>
			<point x="48" y="1204"/>
			<point x="292" y="1456"/>
			<point x="517" y="1456" type="qcurve" smooth="yes"/>
			<point x="916" y="1456" type="line"/>
		</contour>
		<contour>
			<point x="1054" y="1459" type="line"/>
			<point x="1248" y="1459" type="line"/>
			<point x="1248" y="-146" type="line"/>
			<point x="1054" y="-146" type="line"/>
		</contour>
	</outline>
	<guideline y="901" identifier="27539Lsr1A"/>
	<guideline y="555" identifier="e34wUdCmXR"/>
</glyph>
<glyph name="periodcentered" format="2">
  <advance width="727"/>
  <unicode hex="00B7"/>
  <outline>
    <contour>
      <point x="100.2" y="748.0" type="qcurve" smooth="yes"/>
      <point x="100.2" y="846.2"/>
      <point x="231.2" y="983.6"/>
      <point x="353.0" y="983.6" type="qcurve" smooth="yes"/>
      <point x="476.8" y="983.6"/>
      <point x="606.8" y="846.2"/>
      <point x="606.8" y="748.0" type="qcurve" smooth="yes"/>
      <point x="606.8" y="649.8"/>
      <point x="476.8" y="512.4"/>
      <point x="353.0" y="512.4" type="qcurve" smooth="yes"/>
      <point x="231.2" y="512.4"/>
      <point x="100.2" y="650.8"/>
    </contour>
  </outline>
</glyph>
<glyph name="cedilla" format="2">
  <advance width="1024"/>
  <unicode hex="00B8"/>
  <outline>
    <contour>
      <point x="407.8" y="42.0" type="line"/>
      <point x="603.8" y="42.0" type="line"/>
      <point x="571.8" y="-64.0" type="line"/>
      <point x="674.8" y="-76.0"/>
      <point x="801.8" y="-161.0"/>
      <point x="801.8" y="-254.2" type="qcurve" smooth="yes"/>
      <point x="801.8" y="-362.0"/>
      <point x="574.8" y="-494.0"/>
      <point x="306.8" y="-492.0" type="qcurve"/>
      <point x="294.8" y="-341.0" type="line"/>
      <point x="427.8" y="-340.6"/>
      <point x="521.8" y="-303.0"/>
      <point x="521.8" y="-256.0" type="qcurve" smooth="yes"/>
      <point x="521.8" y="-214.0"/>
      <point x="442.2" y="-182.8"/>
      <point x="358.8" y="-176.0" type="qcurve"/>
    </contour>
  </outline>
</glyph>
<glyph name="onesuperior" format="2">
	<unicode hex="00B9"/>
	<advance width="751"/>
	<outline>
		<contour>
			<point x="89.4" y="1166.4" type="line"/>
			<point x="89.4" y="1375.4" type="line"/>
			<point x="377" y="1486" type="line"/>
			<point x="541" y="1486" type="line"/>
			<point x="541" y="697" type="line"/>
			<point x="291" y="697" type="line"/>
			<point x="291" y="1238" type="line"/>
		</contour>
	</outline>
</glyph>
<glyph name="ordmasculine" format="2">
  <advance width="932.0"/>
  <unicode hex="00BA"/>
  <guideline y="1975.0" identifier="Jnt0R9CyOf"/>
  <outline>
    <contour>
      <point x="49.0" y="1073.0" type="qcurve"/>
      <point x="49.0" y="1096.0" type="line"/>
      <point x="49.0" y="1279.0"/>
      <point x="281.8" y="1478.0"/>
      <point x="466.0" y="1478.0" type="qcurve" smooth="yes"/>
      <point x="649.0" y="1478.0"/>
      <point x="882.0" y="1279.0"/>
      <point x="883.0" y="1096.0" type="qcurve"/>
      <point x="883.0" y="1073.0" type="line"/>
      <point x="882.0" y="891.0"/>
      <point x="648.0" y="691.0"/>
      <point x="466.0" y="691.0" type="qcurve" smooth="yes"/>
      <point x="283.2" y="691.0"/>
      <point x="49.0" y="891.0"/>
    </contour>
    <contour>
      <point x="353.0" y="1119.0" type="qcurve"/>
      <point x="353.0" y="1050.0" type="line"/>
      <point x="353.0" y="959.0"/>
      <point x="413.4" y="907.0"/>
      <point x="466.0" y="907.0" type="qcurve" smooth="yes"/>
      <point x="518.2" y="907.0"/>
      <point x="578.0" y="959.0"/>
      <point x="578.0" y="1050.0" type="qcurve"/>
      <point x="578.0" y="1119.0" type="line"/>
      <point x="578.0" y="1209.0"/>
      <point x="514.2" y="1261.0"/>
      <point x="465.0" y="1261.0" type="qcurve" smooth="yes"/>
      <point x="415.8" y="1261.0"/>
      <point x="353.0" y="1209.0"/>
    </contour>
  </outline>
</glyph>
<glyph name="guillemotright" format="2">
	<unicode hex="00BB"/>
	<advance width="1112"/>
	<outline>
		<contour>
			<point x="-6.800000000000001" y="143" type="line"/>
			<point x="258.2" y="551" type="line"/>
			<point x="-6.800000000000001" y="959" type="line"/>
			<point x="280.2" y="959" type="line"/>
			<point x="571.2" y="620.8" type="line"/>
			<point x="571.2" y="479.8" type="line"/>
			<point x="280.2" y="143" type="line"/>
		</contour>
		<contour>
			<point x="502.2" y="143" type="line"/>
			<point x="767.2" y="551" type="line"/>
			<point x="502.2" y="959" type="line"/>
			<point x="789.2" y="959" type="line"/>
			<point x="1080.2" y="620.8" type="line"/>
			<point x="1080.2" y="479.8" type="line"/>
			<point x="789.2" y="143" type="line"/>
		</contour>
	</outline>
	<guideline y="98" identifier="MTEldNnfdj"/>
	<guideline y="443" identifier="G9bQni2n1K"/>
</glyph>
<glyph name="questiondown" format="2">
	<unicode hex="00BF"/>
	<advance width="1263"/>
	<outline>
		<contour>
			<point x="929.8" y="951.8" type="qcurve" smooth="yes"/>
			<point x="929.8" y="862.6"/>
			<point x="799.2" y="734.8"/>
			<point x="678" y="734.8" type="qcurve" smooth="yes"/>
			<point x="555.6" y="734.8"/>
			<point x="426.2" y="862.6"/>
			<point x="426.2" y="951.8" type="qcurve" smooth="yes"/>
			<point x="426.2" y="1042.2"/>
			<point x="555.6" y="1170"/>
			<point x="678" y="1170" type="qcurve" smooth="yes"/>
			<point x="799.2" y="1170"/>
			<point x="929.8" y="1042.2"/>
		</contour>
		<contour>
			<point x="1165" y="152.4" type="line"/>
			<point x="1165" y="99.2" type="line" smooth="yes"/>
			<point x="1165" y="-117.4"/>
			<point x="870" y="-328"/>
			<point x="648.2" y="-328" type="qcurve" smooth="yes"/>
			<point x="415.6" y="-328"/>
			<point x="108.8" y="-114.4"/>
			<point x="108.8" y="89.8" type="qcurve" smooth="yes"/>
			<point x="108.8" y="230.4"/>
			<point x="236.8" y="396.8"/>
			<point x="342.8" y="464.4" type="qcurve" smooth="yes"/>
			<point x="416.8" y="504.2"/>
			<point x="458.8" y="635.8"/>
			<point x="458.8" y="688.6" type="qcurve" smooth="yes"/>
			<point x="458.8" y="702.6" type="line"/>
			<point x="899.2" y="702.6" type="line"/>
			<point x="899.2" y="685.6" type="line" smooth="yes"/>
			<point x="899.2" y="572.4"/>
			<point x="832" y="372.8"/>
			<point x="723" y="297.6" type="qcurve" smooth="yes"/>
			<point x="636.8" y="239.6"/>
			<point x="559.4" y="179.6"/>
			<point x="559.4" y="108" type="qcurve" smooth="yes"/>
			<point x="559.4" y="27.4"/>
			<point x="600" y="-29"/>
			<point x="651" y="-29" type="qcurve" smooth="yes"/>
			<point x="692.8" y="-29"/>
			<point x="733.4" y="35.2"/>
			<point x="733.4" y="110.2" type="qcurve" smooth="yes"/>
			<point x="732.4" y="152.4" type="line"/>
		</contour>
	</outline>
	<guideline y="-181" identifier="apukwP5ffL"/>
	<guideline y="921" identifier="5ZPZZL8Rim"/>
</glyph>
<glyph name="AE" format="2">
	<unicode hex="00C6"/>
	<advance width="1967"/>
	<outline>
		<contour>
			<point x="255" y="258" type="line"/>
			<point x="338" y="565" type="line"/>
			<point x="1010" y="565" type="line"/>
			<point x="1010" y="258" type="line"/>
		</contour>
		<contour>
			<point x="-81" y="0" type="line"/>
			<point x="770" y="1456" type="line"/>
			<point x="1895" y="1456" type="line"/>
			<point x="1895" y="1135.4" type="line"/>
			<point x="1271.6" y="1135.4" type="line"/>
			<point x="1271.6" y="904" type="line"/>
			<point x="1805" y="904" type="line"/>
			<point x="1805" y="591" type="line"/>
			<point x="1271.6" y="591" type="line"/>
			<point x="1271.6" y="318.2" type="line"/>
			<point x="1906" y="318.2" type="line"/>
			<point x="1906" y="0" type="line"/>
			<point x="842" y="0" type="line"/>
			<point x="842" y="926" type="line"/>
			<point x="310" y="0" type="line"/>
		</contour>
	</outline>
	<anchor name="top" x="1086" y="1456"/>
</glyph>
<glyph name="multiply" format="2">
	<unicode hex="00D7"/>
	<advance width="1200"/>
	<outline>
		<contour>
			<point x="319.4" y="152.6" type="line"/>
			<point x="83.6" y="388.4" type="line"/>
			<point x="879.6" y="1181.4" type="line"/>
			<point x="1115.4" y="945.6" type="line"/>
		</contour>
		<contour>
			<point x="878.2" y="152.6" type="line"/>
			<point x="85.2" y="946.6" type="line"/>
			<point x="320" y="1182.4" type="line"/>
			<point x="1113" y="388.4" type="line"/>
		</contour>
	</outline>
</glyph>
<glyph name="Thorn" format="2">
	<unicode hex="00DE"/>
	<advance width="1371"/>
	<outline>
		<contour>
			<point x="136.8" y="1456" type="line"/>
			<point x="570" y="1456" type="line"/>
			<point x="570" y="1242" type="line"/>
			<point x="768" y="1242" type="line" smooth="yes"/>
			<point x="1040" y="1242"/>
			<point x="1331" y="989"/>
			<point x="1331" y="736" type="qcurve" smooth="yes"/>
			<point x="1331" y="484"/>
			<point x="1039" y="227"/>
			<point x="767" y="227" type="qcurve" smooth="yes"/>
			<point x="571" y="227" type="line"/>
			<point x="571" y="0" type="line"/>
			<point x="136.8" y="0" type="line"/>
		</contour>
		<contour>
			<point x="712" y="928" type="qcurve" smooth="yes"/>
			<point x="571" y="928" type="line"/>
			<point x="571" y="538" type="line"/>
			<point x="712" y="538" type="line" smooth="yes"/>
			<point x="819.6" y="538"/>
			<point x="899" y="625"/>
			<point x="899" y="735" type="qcurve" smooth="yes"/>
			<point x="899" y="843"/>
			<point x="820" y="928"/>
		</contour>
	</outline>
	<guideline y="901" identifier="i9jYwjBDP4"/>
	<guideline y="555" identifier="T8KKW8oxop"/>
</glyph>
<glyph name="germandbls" format="2">
	<unicode hex="00DF"/>
	<advance width="1602"/>
	<outline>
		<contour>
			<point name="hr00" x="517.8" y="1092" type="qcurve"/>
			<point x="517.8" y="0" type="line"/>
			<point x="106.8" y="0" type="line"/>
			<point x="106.8" y="1092" type="line" smooth="yes"/>
			<point x="106.8" y="1305"/>
			<point x="401" y="1534"/>
			<point x="674" y="1534" type="qcurve" smooth="yes"/>
			<point x="922" y="1534"/>
			<point x="1186.6" y="1369"/>
			<point x="1186.6" y="1215" type="qcurve" smooth="yes"/>
			<point x="1186.6" y="1154"/>
			<point x="1137.6" y="1035"/>
			<point x="1082.6" y="965" type="qcurve" smooth="yes"/>
			<point x="1053.6" y="928"/>
			<point x="1030" y="879"/>
			<point x="1030" y="848" type="qcurve" smooth="yes"/>
			<point x="1030" y="816"/>
			<point x="1074.8" y="764.8"/>
			<point x="1257" y="703" type="qcurve" smooth="yes"/>
			<point x="1449.8" y="636.4"/>
			<point x="1618" y="474"/>
			<point x="1618" y="338.6" type="qcurve" smooth="yes"/>
			<point x="1618" y="155"/>
			<point x="1347.6" y="-30"/>
			<point x="1095" y="-30" type="qcurve" smooth="yes"/>
			<point x="846" y="-30"/>
			<point x="563.8" y="155.4"/>
			<point x="563.8" y="340.4" type="qcurve" smooth="yes"/>
			<point x="563.8" y="357.4" type="line"/>
			<point x="974" y="355.4" type="line"/>
			<point x="974" y="328.4" type="line" smooth="yes"/>
			<point x="974" y="275.4"/>
			<point x="1033" y="233"/>
			<point x="1093" y="233" type="qcurve" smooth="yes"/>
			<point x="1153" y="233"/>
			<point x="1200" y="271.4"/>
			<point x="1200" y="306" type="qcurve" smooth="yes"/>
			<point x="1200" y="346"/>
			<point x="1106.6" y="381.8"/>
			<point x="936.6" y="437.8" type="qcurve" smooth="yes"/>
			<point x="736.6" y="503.8"/>
			<point x="601" y="674"/>
			<point x="601" y="775" type="qcurve" smooth="yes"/>
			<point x="601" y="827"/>
			<point x="654" y="947"/>
			<point x="733" y="1060" type="qcurve" smooth="yes"/>
			<point x="754" y="1090"/>
			<point x="775" y="1138"/>
			<point x="775" y="1160" type="qcurve" smooth="yes"/>
			<point x="775" y="1211"/>
			<point x="722.4" y="1268"/>
			<point x="670" y="1268" type="qcurve" smooth="yes"/>
			<point x="596.8" y="1268"/>
			<point x="517.8" y="1180"/>
		</contour>
	</outline>
</glyph>
<glyph name="ae" format="2">
	<unicode hex="00E6"/>
	<advance width="1889"/>
	<outline>
		<contour>
			<point x="483.6" y="354" type="qcurve" smooth="yes"/>
			<point x="483.6" y="309.4"/>
			<point x="537" y="246.2"/>
			<point x="595.8" y="246.2" type="qcurve" smooth="yes"/>
			<point x="668.2" y="246.2"/>
			<point x="734.4" y="323.8"/>
			<point x="734.4" y="403.4" type="qcurve"/>
			<point x="734.4" y="436.4" type="line"/>
			<point x="634" y="436.4" type="line" smooth="yes"/>
			<point x="556" y="436.4"/>
			<point x="483.6" y="406"/>
		</contour>
		<contour>
			<point x="61" y="313.6" type="qcurve" smooth="yes"/>
			<point x="61" y="507"/>
			<point x="357" y="674.2"/>
			<point x="572.8" y="674.2" type="qcurve" smooth="yes"/>
			<point x="734.6" y="674.2" type="line"/>
			<point x="734.6" y="728" type="line" smooth="yes"/>
			<point x="734.6" y="770"/>
			<point x="688" y="820.6"/>
			<point x="629" y="820.6" type="qcurve" smooth="yes"/>
			<point x="571.6" y="820.6"/>
			<point x="520.6" y="780.4"/>
			<point x="520.6" y="742.8" type="qcurve" smooth="yes"/>
			<point x="520.6" y="712.8" type="line"/>
			<point x="107.4" y="712.8" type="line"/>
			<point x="107.4" y="742.8" type="line" smooth="yes"/>
			<point x="107.4" y="904"/>
			<point x="419.6" y="1088"/>
			<point x="649.6" y="1088" type="qcurve" smooth="yes"/>
			<point x="757.6" y="1088"/>
			<point x="930.4" y="1051.2"/>
			<point x="993.2" y="995.6" type="qcurve"/>
			<point x="1061.6" y="1050.2"/>
			<point x="1222" y="1089"/>
			<point x="1307" y="1089" type="qcurve" smooth="yes"/>
			<point x="1551.8" y="1089"/>
			<point x="1850.8" y="814"/>
			<point x="1850.8" y="563" type="qcurve" smooth="yes"/>
			<point x="1850.8" y="419" type="line"/>
			<point x="1032.4" y="419" type="line"/>
			<point x="1032.4" y="661.4" type="line"/>
			<point x="1438.4" y="661.4" type="line"/>
			<point x="1438.4" y="673" type="line"/>
			<point x="1438.4" y="730.2"/>
			<point x="1364.2" y="801"/>
			<point x="1298.8" y="801" type="qcurve" smooth="yes"/>
			<point x="1227.4" y="801"/>
			<point x="1144.2" y="699.4"/>
			<point x="1144.2" y="578" type="qcurve" smooth="yes"/>
			<point x="1144.2" y="483" type="line" smooth="yes"/>
			<point x="1144.2" y="368.8"/>
			<point x="1239.6" y="270"/>
			<point x="1314.2" y="270" type="qcurve" smooth="yes"/>
			<point x="1379" y="270"/>
			<point x="1481" y="349.2"/>
			<point x="1512.2" y="397" type="qcurve"/>
			<point x="1820" y="208" type="line"/>
			<point x="1769.8" y="87.2"/>
			<point x="1496.6" y="-31.2"/>
			<point x="1325.2" y="-31.2" type="qcurve" smooth="yes"/>
			<point x="1196" y="-31.2"/>
			<point x="976" y="46"/>
			<point x="899" y="117" type="qcurve"/>
			<point x="840" y="52"/>
			<point x="635" y="-19"/>
			<point x="490" y="-19" type="qcurve" smooth="yes"/>
			<point x="274" y="-19"/>
			<point x="61" y="140"/>
		</contour>
	</outline>
	<anchor name="top" x="994" y="1058"/>
</glyph>
<glyph name="eth" format="2">
  <advance width="1296"/>
  <unicode hex="00F0"/>
  <outline>
    <contour>
      <point x="164.0" y="1353.0" type="qcurve"/>
      <point x="266.0" y="1620.0" type="line"/>
      <point x="690.0" y="1534.0"/>
      <point x="1238.4" y="976.0"/>
      <point x="1238.4" y="633.0" type="qcurve"/>
      <point x="1238.4" y="535.0" type="line"/>
      <point x="1238.4" y="290.8"/>
      <point x="930.4" y="-20.0"/>
      <point x="647.0" y="-20.0" type="qcurve" smooth="yes"/>
      <point x="390.2" y="-20.0"/>
      <point x="57.2" y="251.4"/>
      <point x="57.2" y="468.0" type="qcurve" smooth="yes"/>
      <point x="57.2" y="726.0"/>
      <point x="341.2" y="1000.0"/>
      <point x="588.0" y="1000.0" type="qcurve" smooth="yes"/>
      <point x="751.6" y="1000.0"/>
      <point x="893.0" y="801.2"/>
      <point x="893.0" y="613.2" type="qcurve"/>
      <point x="812.0" y="540.0" type="line"/>
      <point x="812.0" y="618.0"/>
      <point x="727.4" y="695.0"/>
      <point x="649.4" y="695.0" type="qcurve" smooth="yes"/>
      <point x="554.0" y="695.0"/>
      <point x="487.0" y="603.0"/>
      <point x="487.0" y="478.2" type="qcurve" smooth="yes"/>
      <point x="487.0" y="363.0"/>
      <point x="560.0" y="279.0"/>
      <point x="648.4" y="279.0" type="qcurve" smooth="yes"/>
      <point x="728.0" y="279.0"/>
      <point x="811.4" y="386.0"/>
      <point x="811.4" y="495.0" type="qcurve" smooth="yes"/>
      <point x="811.4" y="635.0" type="line" smooth="yes"/>
      <point x="811.4" y="876.0"/>
      <point x="451.0" y="1279.0"/>
    </contour>
    <contour>
      <point x="1145.0" y="1425.0" type="line"/>
      <point x="383.0" y="1015.0" type="line"/>
      <point x="294.0" y="1141.0" type="line"/>
      <point x="1056.0" y="1550.0" type="line"/>
    </contour>
  </outline>
</glyph>
<glyph name="divide" format="2">
  <advance width="1200.0"/>
  <unicode hex="00F7"/>
  <outline>
    <contour>
      <point x="389.2" y="1077.6" type="qcurve" smooth="yes"/>
      <point x="389.2" y="1166.0"/>
      <point x="495.0" y="1282.6"/>
      <point x="599.0" y="1282.6" type="qcurve" smooth="yes"/>
      <point x="701.8" y="1282.6"/>
      <point x="810.8" y="1166.0"/>
      <point x="810.8" y="1077.6" type="qcurve" smooth="yes"/>
      <point x="810.8" y="992.4"/>
      <point x="701.8" y="878.0"/>
      <point x="599.0" y="878.0" type="qcurve" smooth="yes"/>
      <point x="495.0" y="878.0"/>
      <point x="389.2" y="992.4"/>
    </contour>
    <contour>
      <point x="388.2" y="266.2" type="qcurve" smooth="yes"/>
      <point x="388.2" y="353.4"/>
      <point x="494.0" y="471.0"/>
      <point x="598.0" y="471.0" type="qcurve" smooth="yes"/>
      <point x="700.8" y="471.0"/>
      <point x="809.8" y="353.4"/>
      <point x="809.8" y="266.2" type="qcurve" smooth="yes"/>
      <point x="809.8" y="181.8"/>
      <point x="700.8" y="65.4"/>
      <point x="598.0" y="65.4" type="qcurve" smooth="yes"/>
      <point x="494.0" y="65.4"/>
      <point x="388.2" y="181.8"/>
    </contour>
    <contour>
      <point x="99.0" y="501.8" type="line"/>
      <point x="99.0" y="853.8" type="line"/>
      <point x="1101.0" y="853.8" type="line"/>
      <point x="1101.0" y="501.8" type="line"/>
    </contour>
  </outline>
</glyph>
<glyph name="thorn" format="2">
  <advance width="1309"/>
  <unicode hex="00FE"/>
  <outline>
    <contour>
      <point x="108.0" y="-416.2" type="line"/>
      <point x="108.0" y="1536.0" type="line"/>
      <point x="513.0" y="1536.0" type="line"/>
      <point x="513.0" y="960.4" type="line"/>
      <point x="541.2" y="1015.6"/>
      <point x="705.0" y="1080.0"/>
      <point x="788.6" y="1080.0" type="qcurve" smooth="yes"/>
      <point x="992.8" y="1080.0"/>
      <point x="1251.0" y="801.0"/>
      <point x="1251.0" y="546.0" type="qcurve" smooth="yes"/>
      <point x="1251.0" y="514.0" type="line" smooth="yes"/>
      <point x="1251.0" y="261.0"/>
      <point x="1001.8" y="-20.0"/>
      <point x="807.6" y="-20.0" type="qcurve" smooth="yes"/>
      <point x="724.8" y="-20.0"/>
      <point x="556.0" y="31.4"/>
      <point x="526.8" y="85.6" type="qcurve"/>
      <point x="521.6" y="85.6" type="line"/>
      <point x="522.0" y="-416.2" type="line"/>
    </contour>
    <contour>
      <point x="528.0" y="398.8" type="line"/>
      <point x="541.6" y="352.4"/>
      <point x="635.4" y="290.4"/>
      <point x="686.4" y="290.4" type="qcurve" smooth="yes"/>
      <point x="750.0" y="290.4"/>
      <point x="821.4" y="369.6"/>
      <point x="821.4" y="481.0" type="qcurve" smooth="yes"/>
      <point x="821.4" y="578.0" type="line" smooth="yes"/>
      <point x="821.4" y="689.4"/>
      <point x="750.0" y="768.6"/>
      <point x="683.4" y="768.6" type="qcurve" smooth="yes"/>
      <point x="625.4" y="768.6"/>
      <point x="546.6" y="711.6"/>
      <point x="528.0" y="669.2" type="qcurve"/>
    </contour>
  </outline>
</glyph>
<glyph name="gcommaaccent" format="2">
	<unicode hex="0123"/>
	<advance width="1309"/>
	<outline>
		<contour>
			<point x="147.6" y="-292" type="qcurve"/>
			<point x="291" y="-59.8" type="line"/>
			<point x="319.8" y="-82.8"/>
			<point x="490.8" y="-143"/>
			<point x="588.4" y="-143" type="qcurve" smooth="yes"/>
			<point x="667.2" y="-143"/>
			<point x="783" y="-25"/>
			<point x="783" y="110" type="qcurve" smooth="yes"/>
			<point x="783" y="90.6" type="line"/>
			<point x="752.6" y="34.4"/>
			<point x="612.4" y="-19"/>
			<point x="524.6" y="-19" type="qcurve" smooth="yes"/>
			<point x="319.4" y="-19"/>
			<point x="58" y="262"/>
			<point x="58" y="513" type="qcurve" smooth="yes"/>
			<point x="58" y="545" type="line" smooth="yes"/>
			<point x="58" y="797"/>
			<point x="317.6" y="1078"/>
			<point x="524.8" y="1078" type="qcurve" smooth="yes"/>
			<point x="607.6" y="1078"/>
			<point x="758.4" y="1013.6"/>
			<point x="782.8" y="956.4" type="qcurve"/>
			<point x="787.6" y="956.4" type="line"/>
			<point x="792.4" y="1058" type="line"/>
			<point x="1201" y="1058" type="line"/>
			<point x="1201" y="126" type="line" smooth="yes"/>
			<point x="1201" y="-146.4"/>
			<point x="858.8" y="-438"/>
			<point x="615.6" y="-438" type="qcurve" smooth="yes"/>
			<point x="469.4" y="-438"/>
			<point x="221.6" y="-354.2"/>
		</contour>
		<contour>
			<point x="487.4" y="484" type="line" smooth="yes"/>
			<point x="487.4" y="388.6"/>
			<point x="572.6" y="290.4"/>
			<point x="650" y="290.4" type="qcurve" smooth="yes"/>
			<point x="697" y="290.4"/>
			<point x="768.2" y="355.4"/>
			<point x="782" y="396.8" type="qcurve"/>
			<point x="782" y="649.2" type="line"/>
			<point x="765" y="714.6"/>
			<point x="691" y="768.6"/>
			<point x="640.2" y="768.6" type="qcurve" smooth="yes"/>
			<point x="571.6" y="768.6"/>
			<point x="487.4" y="669.4"/>
			<point x="487.4" y="574" type="qcurve" smooth="yes"/>
		</contour>
		<contour>
			<point x="950.2997007206" y="1704" type="line"/>
			<point x="916.2997007206" y="1582"/>
			<point x="874.2997007206" y="1419"/>
			<point x="848.2997007206" y="1270" type="qcurve"/>
			<point x="442.2997007206" y="1267" type="line"/>
			<point x="589.2997007206" y="1707" type="line"/>
		</contour>
	</outline>
</glyph>
<glyph name="idotless" format="2">
	<unicode hex="0131"/>
	<advance width="629"/>
	<outline>
		<contour>
			<point x="104" y="0" type="line"/>
			<point x="104" y="1058" type="line"/>
			<point x="526" y="1058" type="line"/>
			<point x="526" y="0" type="line"/>
		</contour>
	</outline>
	<anchor name="top" x="314.5" y="1058.4116923077"/>
</glyph>
<glyph name="kgreenlandic" format="2">
  <advance width="1282.0"/>
  <unicode hex="0138"/>
  <outline>
    <contour>
      <point x="528.0" y="1065.0" type="line"/>
      <point x="528.0" y="0.0" type="line"/>
      <point x="108.0" y="0.0" type="line"/>
      <point x="108.0" y="1065.0" type="line"/>
    </contour>
    <contour>
      <point x="1279.0" y="1065.0" type="line"/>
      <point x="809.0" y="372.0" type="line"/>
      <point x="322.0" y="372.0" type="line"/>
      <point x="322.0" y="718.0" type="line"/>
      <point x="609.6" y="718.0" type="line"/>
      <point x="846.6" y="1065.0" type="line"/>
    </contour>
    <contour>
      <point x="828.0" y="0.0" type="line"/>
      <point x="459.0" y="470.0" type="line"/>
      <point x="722.6" y="750.4" type="line"/>
      <point x="1326.0" y="0.0" type="line"/>
    </contour>
  </outline>
</glyph>
<glyph name="OE" format="2">
	<unicode hex="0152"/>
	<advance width="2069"/>
	<outline>
		<contour>
			<point x="773" y="1485" type="qcurve" smooth="yes"/>
			<point x="831" y="1485"/>
			<point x="1021" y="1468"/>
			<point x="1096" y="1456" type="qcurve"/>
			<point x="1997" y="1456" type="line"/>
			<point x="1997" y="1135.4" type="line"/>
			<point x="1374.4" y="1135.4" type="line"/>
			<point x="1374.4" y="904" type="line"/>
			<point x="1907" y="904" type="line"/>
			<point x="1907" y="591" type="line"/>
			<point x="1374.4" y="591" type="line"/>
			<point x="1374.4" y="318.4" type="line"/>
			<point x="2008" y="318.4" type="line"/>
			<point x="2008" y="0" type="line"/>
			<point x="1099" y="0" type="line"/>
			<point x="1024" y="-12"/>
			<point x="832" y="-29"/>
			<point x="773" y="-29" type="qcurve" smooth="yes"/>
			<point x="468" y="-29"/>
			<point x="80" y="323"/>
			<point x="80" y="683" type="qcurve" smooth="yes"/>
			<point x="80" y="773" type="line" smooth="yes"/>
			<point x="80" y="1137.4"/>
			<point x="468" y="1485"/>
		</contour>
		<contour>
			<point x="527.8" y="627" type="line" smooth="yes"/>
			<point x="527.8" y="436"/>
			<point x="654" y="288"/>
			<point x="773" y="288" type="qcurve" smooth="yes"/>
			<point x="800" y="288"/>
			<point x="900" y="295"/>
			<point x="948" y="302" type="qcurve"/>
			<point x="948" y="1151" type="line"/>
			<point x="900" y="1159"/>
			<point x="802" y="1167"/>
			<point x="773" y="1167" type="qcurve" smooth="yes"/>
			<point x="654" y="1167"/>
			<point x="527.8" y="1026"/>
			<point x="527.8" y="828" type="qcurve" smooth="yes"/>
		</contour>
	</outline>
</glyph>
<glyph name="oe" format="2">
	<unicode hex="0153"/>
	<advance width="1972"/>
	<outline>
		<contour>
			<point x="488.4" y="579.6" type="qcurve" smooth="yes"/>
			<point x="488.4" y="482.8" type="line" smooth="yes"/>
			<point x="488.4" y="352"/>
			<point x="580.6" y="282.4"/>
			<point x="651.2" y="282.4" type="qcurve" smooth="yes"/>
			<point x="721.8" y="282.4"/>
			<point x="812.6" y="352"/>
			<point x="812.6" y="482.8" type="qcurve" smooth="yes"/>
			<point x="812.6" y="579.6" type="line" smooth="yes"/>
			<point x="812.6" y="706.6"/>
			<point x="716" y="776.4"/>
			<point x="650.8" y="776.4" type="qcurve" smooth="yes"/>
			<point x="584.6" y="776.4"/>
			<point x="488.4" y="706"/>
		</contour>
		<contour>
			<point x="1029.8" y="961.2" type="qcurve"/>
			<point x="1102" y="1035.8"/>
			<point x="1284.6" y="1089"/>
			<point x="1385.2" y="1089" type="qcurve" smooth="yes"/>
			<point x="1634.6" y="1089"/>
			<point x="1934" y="814"/>
			<point x="1934" y="563" type="qcurve" smooth="yes"/>
			<point x="1934" y="420.4" type="line"/>
			<point x="1114" y="420.4" type="line"/>
			<point x="1114" y="660.6" type="line"/>
			<point x="1520.6" y="660.6" type="line"/>
			<point x="1520.4" y="670" type="line"/>
			<point x="1521.4" y="727.8"/>
			<point x="1446.8" y="801"/>
			<point x="1378.8" y="801" type="qcurve" smooth="yes"/>
			<point x="1309.8" y="801"/>
			<point x="1226.6" y="698.4"/>
			<point x="1226.6" y="578" type="qcurve" smooth="yes"/>
			<point x="1226.6" y="483" type="line" smooth="yes"/>
			<point x="1226.6" y="368.2"/>
			<point x="1324.6" y="269.8"/>
			<point x="1398.2" y="269.8" type="qcurve" smooth="yes"/>
			<point x="1462.8" y="269.8"/>
			<point x="1562.8" y="349.2"/>
			<point x="1594.2" y="397.2" type="qcurve"/>
			<point x="1901.8" y="208" type="line"/>
			<point x="1852" y="87.6"/>
			<point x="1579" y="-31.2"/>
			<point x="1409.4" y="-31.2" type="qcurve" smooth="yes"/>
			<point x="1299" y="-31.2"/>
			<point x="1100.8" y="25.4"/>
			<point x="1026.8" y="97.4" type="qcurve"/>
			<point x="951.8" y="25.4"/>
			<point x="755" y="-30"/>
			<point x="651" y="-30" type="qcurve" smooth="yes"/>
			<point x="394" y="-30"/>
			<point x="58" y="254"/>
			<point x="58" y="514" type="qcurve" smooth="yes"/>
			<point x="58" y="546" type="line" smooth="yes"/>
			<point x="58" y="806"/>
			<point x="394" y="1089"/>
			<point x="651" y="1089" type="qcurve" smooth="yes"/>
			<point x="763" y="1089"/>
			<point x="954.8" y="1034.2"/>
		</contour>
	</outline>
</glyph>
<glyph name="Schwa" format="2">
	<unicode hex="018F"/>
	<advance width="1446"/>
	<outline>
		<contour>
			<point x="-9.6" y="1198.4" type="line"/>
			<point x="89.6" y="1353.4"/>
			<point x="442" y="1519"/>
			<point x="659" y="1519" type="qcurve" smooth="yes"/>
			<point x="1045.2" y="1519"/>
			<point x="1461" y="1147.2"/>
			<point x="1461" y="789" type="qcurve" smooth="yes"/>
			<point x="1461" y="394"/>
			<point x="1062" y="-30"/>
			<point x="682" y="-30" type="qcurve" smooth="yes"/>
			<point x="375" y="-30"/>
			<point x="30.4" y="297"/>
			<point x="19.8" y="602" type="qcurve" smooth="yes"/>
			<point x="19.8" y="864" type="line"/>
			<point x="1076" y="864" type="line"/>
			<point x="1076" y="599" type="line"/>
			<point x="756" y="606" type="line"/>
			<point x="447" y="601" type="line"/>
			<point x="447" y="553" type="line" smooth="yes"/>
			<point x="447" y="427"/>
			<point x="578" y="294"/>
			<point x="706" y="294" type="qcurve" smooth="yes"/>
			<point x="861" y="294"/>
			<point x="1029" y="523"/>
			<point x="1029" y="745" type="qcurve" smooth="yes"/>
			<point x="1029" y="962"/>
			<point x="828.4" y="1185"/>
			<point x="641" y="1185" type="qcurve" smooth="yes"/>
			<point x="497" y="1185"/>
			<point x="271.6" y="1083"/>
			<point x="220.6" y="1008" type="qcurve"/>
		</contour>
	</outline>
</glyph>
<glyph name="florin" format="2">
	<unicode hex="0192"/>
	<advance width="1181"/>
	<outline>
		<contour>
			<point x="944" y="920" type="line"/>
			<point x="944" y="621" type="line"/>
			<point x="700" y="621" type="line"/>
			<point x="700" y="8" type="line" smooth="yes"/>
			<point x="700" y="-197"/>
			<point x="475" y="-436"/>
			<point x="214" y="-436" type="qcurve" smooth="yes"/>
			<point x="171" y="-436"/>
			<point x="12" y="-421"/>
			<point x="-13" y="-411" type="qcurve"/>
			<point x="34" y="-127" type="line"/>
			<point x="49" y="-131"/>
			<point x="92" y="-137"/>
			<point x="132" y="-137" type="qcurve" smooth="yes"/>
			<point x="226" y="-137"/>
			<point x="282" y="-47"/>
			<point x="282" y="65" type="qcurve" smooth="yes"/>
			<point x="282" y="621" type="line"/>
			<point x="179" y="621" type="line"/>
			<point x="179" y="920" type="line"/>
			<point x="282" y="920" type="line"/>
			<point x="282" y="1080" type="line" smooth="yes"/>
			<point x="282" y="1318"/>
			<point x="567" y="1546"/>
			<point x="742" y="1546" type="qcurve" smooth="yes"/>
			<point x="848" y="1546"/>
			<point x="1022" y="1498"/>
			<point x="1073" y="1468" type="qcurve"/>
			<point x="946" y="1211" type="line"/>
			<point x="917" y="1229"/>
			<point x="848" y="1248"/>
			<point x="813" y="1248" type="qcurve" smooth="yes"/>
			<point x="750" y="1248"/>
			<point x="700" y="1160"/>
			<point x="700" y="1061" type="qcurve" smooth="yes"/>
			<point x="700" y="920" type="line"/>
		</contour>
	</outline>
</glyph>
<glyph name="schwa" format="2">
  <advance width="1210"/>
  <unicode hex="0259"/>
  <outline>
    <contour>
      <point x="1146.0" y="543.8" type="qcurve" smooth="yes"/>
      <point x="1146.0" y="511.8" type="line" smooth="yes"/>
      <point x="1146.0" y="260.8"/>
      <point x="814.0" y="-31.2"/>
      <point x="572.4" y="-31.2" type="qcurve" smooth="yes"/>
      <point x="327.6" y="-31.2"/>
      <point x="28.2" y="243.8"/>
      <point x="28.6" y="494.8" type="qcurve" smooth="yes"/>
      <point x="28.6" y="637.8" type="line"/>
      <point x="846.8" y="637.8" type="line"/>
      <point x="846.8" y="397.4" type="line"/>
      <point x="441.0" y="397.4" type="line"/>
      <point x="441.2" y="388.6" type="line"/>
      <point x="440.0" y="329.6"/>
      <point x="514.6" y="256.8"/>
      <point x="583.0" y="256.8" type="qcurve" smooth="yes"/>
      <point x="651.4" y="256.8"/>
      <point x="736.2" y="358.4"/>
      <point x="736.2" y="479.8" type="qcurve" smooth="yes"/>
      <point x="736.2" y="574.8" type="line" smooth="yes"/>
      <point x="736.2" y="689.2"/>
      <point x="639.6" y="788.4"/>
      <point x="565.4" y="788.4" type="qcurve" smooth="yes"/>
      <point x="500.6" y="788.4"/>
      <point x="398.2" y="710.4"/>
      <point x="367.4" y="661.8" type="qcurve"/>
      <point x="59.8" y="849.6" type="line"/>
      <point x="110.0" y="970.4"/>
      <point x="382.6" y="1089.0"/>
      <point x="554.4" y="1089.0" type="qcurve" smooth="yes"/>
      <point x="821.2" y="1089.0"/>
      <point x="1146.0" y="795.8"/>
    </contour>
  </outline>
</glyph>
<glyph name="primemod" format="2">
  <advance width="598.0"/>
  <unicode hex="02B9"/>
  <outline>
    <contour>
      <point x="150.0" y="1502.0" type="line"/>
      <point x="556.0" y="1502.0" type="line"/>
      <point x="415.0" y="896.0" type="line"/>
      <point x="88.0" y="902.0" type="line"/>
    </contour>
  </outline>
</glyph>
<glyph name="doubleprimemod" format="2">
	<unicode hex="02BA"/>
	<advance width="1128"/>
	<outline>
		<contour>
			<point x="150" y="1502" type="line"/>
			<point x="556" y="1502" type="line"/>
			<point x="415" y="896" type="line"/>
			<point x="88" y="902" type="line"/>
		</contour>
		<contour>
			<point x="680" y="1502" type="line"/>
			<point x="1086" y="1502" type="line"/>
			<point x="945" y="896" type="line"/>
			<point x="618" y="902" type="line"/>
		</contour>
	</outline>
</glyph>
<glyph name="commaaccentturned" format="2">
	<unicode hex="02BB"/>
	<advance width="1024"/>
	<outline>
		<contour>
			<point x="950.2997007206" y="1704" type="line"/>
			<point x="916.2997007206" y="1582"/>
			<point x="874.2997007206" y="1419"/>
			<point x="848.2997007206" y="1270" type="qcurve"/>
			<point x="442.2997007206" y="1267" type="line"/>
			<point x="589.2997007206" y="1707" type="line"/>
		</contour>
	</outline>
</glyph>
<glyph name="apostrophemod" format="2">
  <advance width="612.0"/>
  <unicode hex="02BC"/>
  <outline>
    <contour>
      <point x="101.0" y="1017.0" type="line"/>
      <point x="143.0" y="1045.0"/>
      <point x="250.0" y="1140.8"/>
      <point x="266.6" y="1207.0" type="qcurve"/>
      <point x="186.4" y="1207.0"/>
      <point x="105.0" y="1308.8"/>
      <point x="105.0" y="1387.6" type="qcurve" smooth="yes"/>
      <point x="105.0" y="1465.2"/>
      <point x="221.2" y="1568.8"/>
      <point x="309.8" y="1568.8" type="qcurve" smooth="yes"/>
      <point x="395.8" y="1568.8"/>
      <point x="531.0" y="1441.8"/>
      <point x="531.0" y="1336.8" type="qcurve" smooth="yes"/>
      <point x="531.0" y="1176.2"/>
      <point x="308.6" y="960.4"/>
      <point x="171.2" y="901.2" type="qcurve"/>
    </contour>
  </outline>
</glyph>
<glyph name="circumflex" format="2">
	<unicode hex="02C6"/>
	<advance width="1024"/>
	<outline>
		<contour>
			<point x="606" y="1647" type="line"/>
			<point x="943" y="1220" type="line"/>
			<point x="652" y="1220" type="line"/>
			<point x="511" y="1372" type="line"/>
			<point x="372" y="1220" type="line"/>
			<point x="83" y="1220" type="line"/>
			<point x="416" y="1647" type="line"/>
		</contour>
	</outline>
</glyph>
<glyph name="caron" format="2">
	<unicode hex="02C7"/>
	<advance width="1024"/>
	<outline>
		<contour>
			<point x="420" y="1220" type="line"/>
			<point x="83" y="1647" type="line"/>
			<point x="374" y="1647" type="line"/>
			<point x="515" y="1495" type="line"/>
			<point x="654" y="1647" type="line"/>
			<point x="943" y="1647" type="line"/>
			<point x="610" y="1220" type="line"/>
		</contour>
	</outline>
</glyph>
<glyph name="breve" format="2">
	<unicode hex="02D8"/>
	<advance width="1022"/>
	<outline>
		<contour>
			<point x="728.6" y="1630.8" type="qcurve"/>
			<point x="929.2" y="1527" type="line"/>
			<point x="898.2" y="1429.2"/>
			<point x="675.2" y="1219"/>
			<point x="514" y="1219" type="qcurve" smooth="yes"/>
			<point x="364.2" y="1219"/>
			<point x="136.4" y="1412.4"/>
			<point x="95.8" y="1527" type="qcurve"/>
			<point x="291.2" y="1630.8" type="line"/>
			<point x="323.8" y="1577.2"/>
			<point x="441" y="1486"/>
			<point x="514" y="1486" type="qcurve" smooth="yes"/>
			<point x="591" y="1486"/>
			<point x="695" y="1574.2"/>
		</contour>
	</outline>
</glyph>
<glyph name="dotaccent" format="2">
  <advance width="1024.0"/>
  <unicode hex="02D9"/>
  <outline>
    <contour>
      <point x="296.4" y="1337.8" type="qcurve" smooth="yes"/>
      <point x="296.4" y="1420.6"/>
      <point x="408.8" y="1532.6"/>
      <point x="513.0" y="1532.6" type="qcurve" smooth="yes"/>
      <point x="617.2" y="1532.6"/>
      <point x="729.6" y="1420.6"/>
      <point x="729.6" y="1337.8" type="qcurve" smooth="yes"/>
      <point x="729.6" y="1254.8"/>
      <point x="617.2" y="1141.8"/>
      <point x="512.0" y="1141.8" type="qcurve" smooth="yes"/>
      <point x="407.8" y="1141.8"/>
      <point x="296.4" y="1254.8"/>
    </contour>
  </outline>
</glyph>
<glyph name="ring" format="2">
	<unicode hex="02DA"/>
	<advance width="1024"/>
	<outline>
		<contour>
			<point x="224.6" y="1487" type="qcurve"/>
			<point x="224.6" y="1602"/>
			<point x="389.8" y="1763.8"/>
			<point x="512" y="1763.8" type="qcurve" smooth="yes"/>
			<point x="631.2" y="1763.8"/>
			<point x="799.4" y="1602"/>
			<point x="799.4" y="1487" type="qcurve" smooth="yes"/>
			<point x="799.4" y="1372"/>
			<point x="631.2" y="1215.2"/>
			<point x="512" y="1215.2" type="qcurve" smooth="yes"/>
			<point x="389.8" y="1215.2"/>
			<point x="224.6" y="1372"/>
		</contour>
		<contour>
			<point x="415" y="1487" type="qcurve"/>
			<point x="415" y="1450.4"/>
			<point x="469.8" y="1390.8"/>
			<point x="512" y="1390.8" type="qcurve" smooth="yes"/>
			<point x="554.2" y="1390.8"/>
			<point x="610" y="1448.6"/>
			<point x="610" y="1487" type="qcurve" smooth="yes"/>
			<point x="610" y="1526.6"/>
			<point x="554.2" y="1587.2"/>
			<point x="512" y="1587.2" type="qcurve" smooth="yes"/>
			<point x="469.8" y="1587.2"/>
			<point x="415" y="1526.6"/>
		</contour>
	</outline>
</glyph>
<glyph name="ogonek" format="2">
  <advance width="1024"/>
  <unicode hex="02DB"/>
  <outline>
    <contour>
      <point x="511.0" y="85.2" type="qcurve"/>
      <point x="605.2" y="14.8" type="line"/>
      <point x="549.0" y="-31.4"/>
      <point x="456.6" y="-137.4"/>
      <point x="456.6" y="-194.6" type="qcurve" smooth="yes"/>
      <point x="456.6" y="-226.6"/>
      <point x="504.4" y="-262.4"/>
      <point x="547.0" y="-262.4" type="qcurve" smooth="yes"/>
      <point x="581.6" y="-262.4"/>
      <point x="630.4" y="-245.2"/>
      <point x="649.0" y="-237.2" type="qcurve"/>
      <point x="678.8" y="-445.0" type="line"/>
      <point x="641.4" y="-463.8"/>
      <point x="533.0" y="-496.8"/>
      <point x="454.0" y="-496.8" type="qcurve" smooth="yes"/>
      <point x="346.0" y="-496.8"/>
      <point x="214.0" y="-381.6"/>
      <point x="214.0" y="-271.0" type="qcurve" smooth="yes"/>
      <point x="214.0" y="-176.0"/>
      <point x="359.0" y="4.4"/>
    </contour>
  </outline>
</glyph>
<glyph name="tilde" format="2">
	<unicode hex="02DC"/>
	<advance width="1024"/>
	<outline>
		<contour>
			<point x="92.4" y="1374.4" type="line"/>
			<point x="130.6" y="1467"/>
			<point x="294.8" y="1608.8"/>
			<point x="373.8" y="1608.8" type="qcurve" smooth="yes"/>
			<point x="423" y="1608.8"/>
			<point x="511.8" y="1581.8"/>
			<point x="556.4" y="1551.8" type="qcurve" smooth="yes"/>
			<point x="595.8" y="1526.8"/>
			<point x="690.8" y="1475.8"/>
			<point x="736.2" y="1475.8" type="qcurve" smooth="yes"/>
			<point x="784.8" y="1475.8"/>
			<point x="866.8" y="1537.8"/>
			<point x="894" y="1580.8" type="qcurve"/>
			<point x="996.2" y="1425.4" type="line"/>
			<point x="950.6" y="1322.6"/>
			<point x="793.8" y="1217.8"/>
			<point x="723.8" y="1217.8" type="qcurve" smooth="yes"/>
			<point x="665" y="1217.8"/>
			<point x="554" y="1267.8"/>
			<point x="517" y="1289.8" type="qcurve" smooth="yes"/>
			<point x="476" y="1310.8"/>
			<point x="395" y="1353.8"/>
			<point x="360" y="1353.8" type="qcurve" smooth="yes"/>
			<point x="305" y="1353.8"/>
			<point x="209" y="1266.8"/>
			<point x="186" y="1233.8" type="qcurve"/>
		</contour>
	</outline>
</glyph>
<glyph name="hungarumlaut" format="2">
	<unicode hex="02DD"/>
	<advance width="1024"/>
	<outline>
		<contour>
			<point x="67.4" y="1366" type="line"/>
			<point x="338.8" y="1720.6" type="line"/>
			<point x="617.8" y="1551.6" type="line"/>
			<point x="273.8" y="1217.4" type="line"/>
		</contour>
		<contour>
			<point x="537.6" y="1365.8" type="line"/>
			<point x="809" y="1720.4" type="line"/>
			<point x="1088" y="1551.4" type="line"/>
			<point x="744" y="1217.2" type="line"/>
		</contour>
	</outline>
</glyph>
<glyph name="hookabovecomb" format="2">
  <advance width="1024"/>
  <unicode hex="0309"/>
  <outline>
    <contour>
      <point x="412.0" y="1220.0" type="line"/>
      <point x="412.0" y="1262.0" type="line" smooth="yes"/>
      <point x="412.0" y="1342.0"/>
      <point x="482.8" y="1424.6"/>
      <point x="551.0" y="1433.0" type="qcurve" smooth="yes"/>
      <point x="585.2" y="1437.4"/>
      <point x="619.0" y="1462.8"/>
      <point x="619.0" y="1488.2" type="qcurve" smooth="yes"/>
      <point x="619.0" y="1512.2"/>
      <point x="579.8" y="1535.0"/>
      <point x="544.2" y="1535.0" type="qcurve" smooth="yes"/>
      <point x="501.0" y="1535.0"/>
      <point x="381.4" y="1499.0"/>
      <point x="365.8" y="1488.2" type="qcurve"/>
      <point x="289.6" y="1661.8" type="line"/>
      <point x="329.4" y="1683.4"/>
      <point x="503.0" y="1727.2"/>
      <point x="595.6" y="1727.2" type="qcurve" smooth="yes"/>
      <point x="732.0" y="1727.2"/>
      <point x="874.0" y="1604.0"/>
      <point x="874.0" y="1502.2" type="qcurve" smooth="yes"/>
      <point x="874.0" y="1393.0"/>
      <point x="728.2" y="1265.0"/>
      <point x="593.2" y="1254.0" type="qcurve"/>
      <point x="593.2" y="1220.0" type="line"/>
    </contour>
  </outline>
</glyph>
<glyph name="breveinvertedcomb" format="2">
	<unicode hex="030F"/>
	<advance width="1024"/>
	<outline>
		<contour>
			<point x="297.2" y="1217.8" type="qcurve"/>
			<point x="97.4" y="1321" type="line"/>
			<point x="128" y="1416.4"/>
			<point x="351.8" y="1628.4"/>
			<point x="510.8" y="1628.4" type="qcurve" smooth="yes"/>
			<point x="655.4" y="1628.4"/>
			<point x="886.4" y="1434.4"/>
			<point x="927.2" y="1321" type="qcurve"/>
			<point x="732.4" y="1217.8" type="line"/>
			<point x="700" y="1269.8"/>
			<point x="583.2" y="1358.2"/>
			<point x="510.8" y="1358.2" type="qcurve" smooth="yes"/>
			<point x="434.4" y="1358.2"/>
			<point x="330.6" y="1272.8"/>
		</contour>
	</outline>
	<anchor name="_top" x="512" y="1058.4116923077"/>
	<anchor name="top" x="512" y="1624"/>
</glyph>
<glyph name="horncomb" format="2">
  <advance width="1024"/>
  <unicode hex="031B"/>
  <anchor x="46.0" y="1058.0" name="_topright"/>
  <anchor x="46.0" y="1339.0" name="topright"/>
  <outline>
    <contour>
      <point x="0.0" y="1058.0" type="line"/>
      <point x="89.0" y="1058.0" type="line" smooth="yes"/>
      <point x="141.0" y="1058.0"/>
      <point x="217.0" y="1098.0"/>
      <point x="217.0" y="1158.0" type="qcurve" smooth="yes"/>
      <point x="217.0" y="1212.0"/>
      <point x="204.0" y="1297.0"/>
      <point x="193.0" y="1339.0" type="qcurve"/>
      <point x="400.0" y="1339.0" type="line"/>
      <point x="424.4" y="1295.4"/>
      <point x="465.0" y="1157.6"/>
      <point x="465.0" y="1072.4" type="qcurve" smooth="yes"/>
      <point x="465.0" y="954.8"/>
      <point x="293.4" y="841.2"/>
      <point x="175.6" y="841.2" type="qcurve" smooth="yes"/>
      <point x="119.8" y="841.2"/>
      <point x="31.4" y="857.4"/>
      <point x="0.0" y="869.6" type="qcurve"/>
    </contour>
  </outline>
</glyph>
<glyph name="dotbelowcomb" format="2">
	<unicode hex="0323"/>
	<advance width="1024"/>
	<outline>
		<contour>
			<point x="311" y="-332.8" type="qcurve" smooth="yes"/>
			<point x="311" y="-254.4"/>
			<point x="415.6" y="-151"/>
			<point x="513" y="-151" type="qcurve" smooth="yes"/>
			<point x="609.2" y="-151"/>
			<point x="715" y="-254.8"/>
			<point x="715" y="-332.8" type="qcurve" smooth="yes"/>
			<point x="715" y="-410.2"/>
			<point x="609.4" y="-514.8"/>
			<point x="512" y="-514.8" type="qcurve" smooth="yes"/>
			<point x="414.8" y="-514.8"/>
			<point x="311" y="-410"/>
		</contour>
	</outline>
	<anchor name="_bottom" x="512" y="0"/>
	<anchor name="bottom" x="512" y="-511"/>
</glyph>
<glyph name="dieresisbelowcomb" format="2">
	<unicode hex="0324"/>
	<advance width="1024"/>
	<outline>
		<contour>
			<point x="54.2" y="-389" type="qcurve" smooth="yes"/>
			<point x="54.2" y="-311.2"/>
			<point x="158.2" y="-208.4"/>
			<point x="255" y="-208.4" type="qcurve" smooth="yes"/>
			<point x="350.6" y="-208.4"/>
			<point x="455.8" y="-311.4"/>
			<point x="455.8" y="-389" type="qcurve" smooth="yes"/>
			<point x="455.8" y="-465.8"/>
			<point x="350.8" y="-569.6"/>
			<point x="254" y="-569.6" type="qcurve" smooth="yes"/>
			<point x="157.4" y="-569.6"/>
			<point x="54.2" y="-465.6"/>
		</contour>
		<contour>
			<point x="567.2" y="-389" type="qcurve" smooth="yes"/>
			<point x="567.2" y="-311.2"/>
			<point x="671.2" y="-208.4"/>
			<point x="768" y="-208.4" type="qcurve" smooth="yes"/>
			<point x="864.6" y="-208.4"/>
			<point x="969.8" y="-311.4"/>
			<point x="969.8" y="-389" type="qcurve" smooth="yes"/>
			<point x="969.8" y="-465.8"/>
			<point x="864.8" y="-569.6"/>
			<point x="767" y="-569.6" type="qcurve" smooth="yes"/>
			<point x="670.4" y="-569.6"/>
			<point x="567.2" y="-465.6"/>
		</contour>
	</outline>
	<anchor name="_bottom" x="512" y="0"/>
	<anchor name="bottom" x="512" y="-564"/>
</glyph>
<glyph name="commaaccentcomb" format="2">
	<unicode hex="0326"/>
	<advance width="1024"/>
	<outline>
		<contour>
			<point x="272" y="-597" type="line"/>
			<point x="306" y="-475"/>
			<point x="348" y="-312"/>
			<point x="374" y="-163" type="qcurve"/>
			<point x="780" y="-160" type="line"/>
			<point x="633" y="-600" type="line"/>
		</contour>
	</outline>
	<anchor name="_bottom" x="512" y="0"/>
	<anchor name="bottom" x="512" y="-600"/>
</glyph>
<glyph name="brevebelowcomb" format="2">
	<unicode hex="032E"/>
	<advance width="1024"/>
	<outline>
		<contour>
			<point x="730.6" y="-52.8" type="qcurve"/>
			<point x="930" y="-159.4" type="line"/>
			<point x="899.2" y="-255.4"/>
			<point x="674" y="-468.6"/>
			<point x="514" y="-468.6" type="qcurve" smooth="yes"/>
			<point x="368.4" y="-468.6"/>
			<point x="136" y="-273.6"/>
			<point x="95" y="-159.4" type="qcurve"/>
			<point x="289.4" y="-52.8" type="line"/>
			<point x="322.2" y="-106.2"/>
			<point x="440.4" y="-196.8"/>
			<point x="514" y="-196.8" type="qcurve" smooth="yes"/>
			<point x="591.6" y="-196.8"/>
			<point x="696.6" y="-109.2"/>
		</contour>
	</outline>
	<anchor name="_bottom" x="512" y="0"/>
	<anchor name="bottom" x="512" y="-463"/>
</glyph>
<glyph name="numeralsign" format="2">
  <advance width="646"/>
  <unicode hex="0374"/>
  <outline>
    <contour>
      <point x="275.4" y="1047.2" type="line"/>
      <point x="45.2" y="1093.8" type="line"/>
      <point x="161.0" y="1609.0" type="line"/>
      <point x="509.6" y="1546.6" type="line"/>
    </contour>
  </outline>
</glyph>
<glyph name="lownumeralsign" format="2">
	<unicode hex="0375"/>
	<advance width="646"/>
	<outline>
		<contour>
			<point x="279" y="310.8" type="line"/>
			<point x="509.2" y="264.2" type="line"/>
			<point x="393.4" y="-251" type="line"/>
			<point x="44.8" y="-188.6" type="line"/>
		</contour>
	</outline>
</glyph>
<glyph name="tonos" format="2">
	<unicode hex="0384"/>
	<advance width="889"/>
	<outline>
		<contour>
			<point x="463.6" y="1217" type="line"/>
			<point x="243.4" y="1273.6" type="line"/>
			<point x="328.4" y="1717" type="line"/>
			<point x="677" y="1654.6" type="line"/>
		</contour>
	</outline>
</glyph>
<glyph name="dieresistonos" format="2">
  <advance width="1165.0"/>
  <unicode hex="0385"/>
  <outline>
    <contour>
      <point x="221.0" y="1203.6" type="qcurve" smooth="yes"/>
      <point x="135.2" y="1203.6"/>
      <point x="44.0" y="1296.2"/>
      <point x="44.0" y="1364.0" type="qcurve" smooth="yes"/>
      <point x="44.0" y="1432.2"/>
      <point x="136.2" y="1523.6"/>
      <point x="222.0" y="1523.6" type="qcurve" smooth="yes"/>
      <point x="305.6" y="1523.6"/>
      <point x="398.8" y="1432.2"/>
      <point x="398.8" y="1364.0" type="qcurve" smooth="yes"/>
      <point x="398.8" y="1296.2"/>
      <point x="305.6" y="1203.6"/>
    </contour>
    <contour>
      <point x="660.0" y="1208.0" type="line"/>
      <point x="467.6" y="1225.2" type="line"/>
      <point x="473.4" y="1688.4" type="line"/>
      <point x="792.6" y="1688.4" type="line"/>
    </contour>
    <contour>
      <point x="942.0" y="1204.0" type="qcurve" smooth="yes"/>
      <point x="857.4" y="1204.0"/>
      <point x="766.0" y="1296.6"/>
      <point x="766.0" y="1364.4" type="qcurve" smooth="yes"/>
      <point x="766.0" y="1432.6"/>
      <point x="858.4" y="1524.0"/>
      <point x="943.0" y="1524.0" type="qcurve" smooth="yes"/>
      <point x="1028.8" y="1524.0"/>
      <point x="1120.8" y="1432.6"/>
      <point x="1120.8" y="1364.4" type="qcurve" smooth="yes"/>
      <point x="1120.8" y="1296.6"/>
      <point x="1028.8" y="1204.0"/>
    </contour>
  </outline>
</glyph>
<glyph name="Delta" format="2">
  <advance width="1314.0"/>
  <unicode hex="0394"/>
  <outline>
    <contour>
      <point x="2.8" y="0.0" type="line"/>
      <point x="2.8" y="196.6" type="line"/>
      <point x="414.2" y="1460.0" type="line"/>
      <point x="901.2" y="1460.0" type="line"/>
      <point x="1323.4" y="196.6" type="line"/>
      <point x="1323.4" y="0.0" type="line"/>
    </contour>
    <contour>
      <point x="412.2" y="310.6" type="line"/>
      <point x="829.4" y="310.6" type="line"/>
      <point x="660.2" y="927.6" type="line" smooth="yes"/>
      <point x="649.8" y="963.2"/>
      <point x="632.2" y="1023.8"/>
      <point x="627.4" y="1053.4" type="qcurve"/>
      <point x="620.4" y="1053.4" type="line"/>
      <point x="616.8" y="1024.4"/>
      <point x="596.6" y="963.2"/>
      <point x="587.0" y="927.6" type="qcurve" smooth="yes"/>
    </contour>
  </outline>
</glyph>
<glyph name="Theta" format="2">
	<unicode hex="0398"/>
	<advance width="1614"/>
	<outline>
		<contour>
			<point x="803.4" y="-29" type="qcurve" smooth="yes"/>
			<point x="497.2" y="-29"/>
			<point x="111" y="323"/>
			<point x="111" y="683" type="qcurve" smooth="yes"/>
			<point x="111" y="773" type="line" smooth="yes"/>
			<point x="111" y="1133"/>
			<point x="497.2" y="1485"/>
			<point x="803.4" y="1485" type="qcurve" smooth="yes"/>
			<point x="1108.6" y="1485"/>
			<point x="1503" y="1133"/>
			<point x="1503" y="773" type="qcurve" smooth="yes"/>
			<point x="1503" y="683" type="line" smooth="yes"/>
			<point x="1503" y="323"/>
			<point x="1108.6" y="-29"/>
		</contour>
		<contour>
			<point x="803.4" y="291" type="qcurve" smooth="yes"/>
			<point x="939" y="291"/>
			<point x="1076.2" y="436.2"/>
			<point x="1076.2" y="627" type="qcurve" smooth="yes"/>
			<point x="1076.2" y="828" type="line" smooth="yes"/>
			<point x="1076.2" y="1019.8"/>
			<point x="939" y="1164"/>
			<point x="803.4" y="1164" type="qcurve" smooth="yes"/>
			<point x="669" y="1164"/>
			<point x="539" y="1019.8"/>
			<point x="539" y="828" type="qcurve" smooth="yes"/>
			<point x="539" y="627" type="line" smooth="yes"/>
			<point x="539" y="436.2"/>
			<point x="669" y="291"/>
		</contour>
		<contour>
			<point x="621.2" y="562.8" type="line"/>
			<point x="621.2" y="891.2" type="line"/>
			<point x="994" y="891.2" type="line"/>
			<point x="994" y="562.8" type="line"/>
		</contour>
	</outline>
</glyph>
<glyph name="Lambda" format="2">
	<unicode hex="039B"/>
	<advance width="1262"/>
	<outline>
		<contour>
			<point x="-43" y="0" type="line"/>
			<point x="388.8" y="1460" type="line"/>
			<point x="875.8" y="1460" type="line"/>
			<point x="1320" y="0" type="line"/>
			<point x="842.6" y="0" type="line"/>
			<point x="632.2" y="927.4" type="line" smooth="yes"/>
			<point x="624.2" y="961.4"/>
			<point x="609.8" y="1023.4"/>
			<point x="602" y="1053.4" type="qcurve"/>
			<point x="595" y="1053.4" type="line"/>
			<point x="588.2" y="1023.4"/>
			<point x="572.6" y="961.4"/>
			<point x="564.8" y="927.4" type="qcurve" smooth="yes"/>
			<point x="347.8" y="0" type="line"/>
		</contour>
	</outline>
</glyph>
<glyph name="Xi" format="2">
  <advance width="1271"/>
  <unicode hex="039E"/>
  <outline>
    <contour>
      <point x="58.0" y="0.0" type="line"/>
      <point x="58.0" y="337.0" type="line"/>
      <point x="1212.0" y="337.0" type="line"/>
      <point x="1212.0" y="0.0" type="line"/>
    </contour>
    <contour>
      <point x="160.0" y="583.8" type="line"/>
      <point x="160.0" y="915.4" type="line"/>
      <point x="1110.0" y="915.4" type="line"/>
      <point x="1110.0" y="583.8" type="line"/>
    </contour>
    <contour>
      <point x="58.0" y="1118.0" type="line"/>
      <point x="58.0" y="1456.0" type="line"/>
      <point x="1212.0" y="1456.0" type="line"/>
      <point x="1212.0" y="1118.0" type="line"/>
    </contour>
  </outline>
</glyph>
<glyph name="Sigma" format="2">
  <advance width="1191"/>
  <unicode hex="03A3"/>
  <outline>
    <contour>
      <point x="27.0" y="0.0" type="line"/>
      <point x="27.0" y="272.4" type="line"/>
      <point x="427.0" y="719.8" type="line"/>
      <point x="425.0" y="643.6" type="line"/>
      <point x="39.0" y="1141.8" type="line"/>
      <point x="39.0" y="1456.0" type="line"/>
      <point x="1133.4" y="1456.0" type="line"/>
      <point x="1133.4" y="1136.4" type="line"/>
      <point x="534.2" y="1136.4" type="line"/>
      <point x="534.2" y="1208.0" type="line"/>
      <point x="897.0" y="743.4" type="line"/>
      <point x="897.0" y="703.8" type="line"/>
      <point x="454.2" y="179.4" type="line"/>
      <point x="455.2" y="319.6" type="line"/>
      <point x="1165.6" y="319.6" type="line"/>
      <point x="1165.6" y="0.0" type="line"/>
    </contour>
  </outline>
</glyph>
<glyph name="Phi" format="2">
  <advance width="1945.0"/>
  <unicode hex="03A6"/>
  <outline>
    <contour>
      <point x="1182.0" y="1476.0" type="line"/>
      <point x="1182.0" y="1303.0" type="line"/>
      <point x="1210.0" y="1303.0" type="line" smooth="yes"/>
      <point x="1559.8" y="1303.0"/>
      <point x="1907.4" y="1002.5866906475001"/>
      <point x="1907.4" y="744.4" type="qcurve" smooth="yes"/>
      <point x="1907.4" y="482.6014209591"/>
      <point x="1559.8" y="184.0"/>
      <point x="1210.0" y="184.0" type="qcurve" smooth="yes"/>
      <point x="1182.0" y="184.0" type="line"/>
      <point x="1182.0" y="-20.0" type="line"/>
      <point x="763.2" y="-20.0" type="line"/>
      <point x="763.2" y="184.0" type="line"/>
      <point x="735.2" y="184.0" type="line" smooth="yes"/>
      <point x="384.4" y="184.0"/>
      <point x="37.8" y="483.5960923623"/>
      <point x="37.8" y="744.2" type="qcurve" smooth="yes"/>
      <point x="37.8" y="1003.5920863309001"/>
      <point x="384.4" y="1303.0"/>
      <point x="735.2" y="1303.0" type="qcurve" smooth="yes"/>
      <point x="763.2" y="1303.0" type="line"/>
      <point x="763.2" y="1476.0" type="line"/>
    </contour>
    <contour>
      <point x="1210.0" y="989.0" type="qcurve" smooth="yes"/>
      <point x="1182.0" y="989.0" type="line"/>
      <point x="1182.0" y="498.0" type="line"/>
      <point x="1210.0" y="498.0" type="line" smooth="yes"/>
      <point x="1351.2" y="498.0"/>
      <point x="1473.6" y="624.2"/>
      <point x="1473.6" y="744.8" type="qcurve" smooth="yes"/>
      <point x="1473.6" y="858.8"/>
      <point x="1350.6" y="989.0"/>
    </contour>
    <contour>
      <point x="735.2" y="989.0" type="line" smooth="yes"/>
      <point x="594.0" y="989.0"/>
      <point x="471.6" y="858.0"/>
      <point x="471.6" y="743.8" type="qcurve" smooth="yes"/>
      <point x="471.6" y="623.4"/>
      <point x="594.0" y="498.0"/>
      <point x="735.2" y="498.0" type="qcurve" smooth="yes"/>
      <point x="763.2" y="498.0" type="line"/>
      <point x="763.2" y="989.0" type="line"/>
    </contour>
  </outline>
</glyph>
<glyph name="Psi" format="2">
	<unicode hex="03A8"/>
	<advance width="1770"/>
	<outline>
		<contour>
			<point x="693" y="0" type="line"/>
			<point x="693" y="1456" type="line"/>
			<point x="1088.8" y="1456" type="line"/>
			<point x="1088.8" y="0" type="line"/>
		</contour>
		<contour>
			<point x="825.8" y="302" type="line"/>
			<point x="767.2" y="302" type="line" smooth="yes"/>
			<point x="451.8" y="302"/>
			<point x="117.6" y="615"/>
			<point x="117.6" y="928" type="qcurve" smooth="yes"/>
			<point x="117.6" y="1456" type="line"/>
			<point x="530" y="1456" type="line"/>
			<point x="530" y="904.8" type="line" smooth="yes"/>
			<point x="530" y="729.4"/>
			<point x="655.6" y="621.2"/>
			<point x="746.4" y="621.2" type="qcurve" smooth="yes"/>
			<point x="825.8" y="621.2" type="line"/>
		</contour>
		<contour>
			<point x="942" y="302" type="line"/>
			<point x="942" y="621.2" type="line"/>
			<point x="1037" y="621.2" type="line" smooth="yes"/>
			<point x="1128.2" y="621.2"/>
			<point x="1252.8" y="729.4"/>
			<point x="1252.8" y="904.8" type="qcurve" smooth="yes"/>
			<point x="1252.8" y="1456" type="line"/>
			<point x="1651.2" y="1456" type="line"/>
			<point x="1651.2" y="928" type="line" smooth="yes"/>
			<point x="1651.2" y="615"/>
			<point x="1316.2" y="302"/>
			<point x="1000.8" y="302" type="qcurve" smooth="yes"/>
		</contour>
	</outline>
</glyph>
<glyph name="Omega" format="2">
  <advance width="1558.0"/>
  <unicode hex="03A9"/>
  <outline>
    <contour>
      <point x="79.6" y="0.0" type="line"/>
      <point x="79.6" y="321.4" type="line"/>
      <point x="435.2" y="321.4" type="line"/>
      <point x="435.2" y="360.2" type="line"/>
      <point x="280.2" y="411.6"/>
      <point x="79.6" y="658.0"/>
      <point x="79.6" y="869.0" type="qcurve"/>
      <point x="79.6" y="889.4" type="line"/>
      <point x="79.6" y="1171.4"/>
      <point x="459.0" y="1486.0"/>
      <point x="781.2" y="1486.0" type="qcurve"/>
      <point x="1102.4" y="1486.0"/>
      <point x="1478.4" y="1170.4"/>
      <point x="1478.4" y="889.4" type="qcurve"/>
      <point x="1478.4" y="869.0" type="line"/>
      <point x="1478.4" y="658.0"/>
      <point x="1277.8" y="411.6"/>
      <point x="1122.6" y="360.2" type="qcurve"/>
      <point x="1122.6" y="321.4" type="line"/>
      <point x="1478.4" y="321.4" type="line"/>
      <point x="1478.4" y="0.0" type="line"/>
      <point x="842.4" y="0.0" type="line"/>
      <point x="842.4" y="530.6" type="line"/>
      <point x="941.2" y="553.2"/>
      <point x="1036.4" y="711.8"/>
      <point x="1036.4" y="850.0" type="qcurve"/>
      <point x="1036.4" y="874.6" type="line"/>
      <point x="1036.4" y="1025.8"/>
      <point x="904.2" y="1164.0"/>
      <point x="779.0" y="1164.0" type="qcurve"/>
      <point x="654.0" y="1164.0"/>
      <point x="523.6" y="1025.8"/>
      <point x="523.6" y="874.6" type="qcurve"/>
      <point x="523.6" y="850.0" type="line"/>
      <point x="523.6" y="711.8"/>
      <point x="616.8" y="553.2"/>
      <point x="715.4" y="530.6" type="qcurve"/>
      <point x="715.4" y="0.0" type="line"/>
    </contour>
  </outline>
</glyph>
